<svg width="197" height="228" viewBox="0 0 197 228" fill="none" xmlns="http://www.w3.org/2000/svg">
<ellipse cx="188.768" cy="112.261" rx="7.48413" ry="29.1049" fill="#142929"/>
<path fill-rule="evenodd" clip-rule="evenodd" d="M55.6939 18.4907C22.1459 38.6528 -5.79593e-05 73.3554 -5.79593e-05 112.783C-5.79593e-05 152.208 22.1425 186.909 55.6862 207.071C37.0098 186.908 24.6813 152.209 24.6813 112.785C24.6813 73.356 37.0131 38.6525 55.6939 18.4907Z" fill="#142929"/>
<path fill-rule="evenodd" clip-rule="evenodd" d="M137.596 216.767C155.546 216.767 170.098 170.637 170.098 113.732C170.098 56.8275 155.546 10.6973 137.596 10.6973C119.646 10.6973 105.094 56.8275 105.094 113.732C105.094 170.637 119.646 216.767 137.596 216.767ZM143.865 184.608C155.347 184.608 164.654 152.962 164.654 113.925C164.654 74.8874 155.347 43.2413 143.865 43.2413C132.384 43.2413 123.076 74.8874 123.076 113.925C123.076 152.962 132.384 184.608 143.865 184.608Z" fill="#142929"/>
<path fill-rule="evenodd" clip-rule="evenodd" d="M115.717 29.2734C111.659 23.3055 107.103 19.958 102.288 19.958C85.2953 19.958 71.52 61.6564 71.52 113.094C71.52 164.531 85.2953 206.23 102.288 206.23C107.473 206.23 112.359 202.347 116.645 195.49C110.072 215.284 101.12 227.463 91.2539 227.463C71.0809 227.463 54.7275 176.544 54.7275 113.732C54.7275 50.9194 71.0809 0 91.2539 0C100.663 0 109.241 11.0779 115.717 29.2734Z" fill="#142929"/>
</svg>
