<svg width="496" height="374" viewBox="0 0 496 374" fill="none" xmlns="http://www.w3.org/2000/svg">
<g clip-path="url(#clip0_313_327)">
<path d="M212.487 38.7824H440.219C441.684 38.7806 443.09 38.1976 444.126 37.1612C445.163 36.1248 445.746 34.7196 445.748 33.2538V28.2303C445.746 26.7645 445.163 25.3593 444.126 24.3229C443.09 23.2865 441.684 22.7035 440.219 22.7017H212.488C211.019 22.7017 209.611 23.285 208.573 24.3233C207.534 25.3617 206.951 26.77 206.951 28.2384V33.2619C206.955 34.7273 207.54 36.1312 208.578 37.1661C209.616 38.2009 211.021 38.7821 212.487 38.7824ZM217.413 34.1939C216.96 34.1939 216.511 34.1046 216.092 33.9311C215.673 33.7576 215.292 33.5033 214.972 33.1827C214.651 32.8621 214.397 32.4815 214.223 32.0626C214.05 31.6438 213.961 31.1948 213.961 30.7415C213.961 30.2881 214.05 29.8392 214.223 29.4203C214.397 29.0014 214.651 28.6208 214.972 28.3003C215.292 27.9797 215.673 27.7254 216.092 27.5519C216.511 27.3784 216.96 27.2891 217.413 27.2891C217.866 27.2891 218.315 27.3784 218.734 27.5519C219.153 27.7254 219.534 27.9797 219.854 28.3003C220.175 28.6208 220.429 29.0014 220.603 29.4203C220.776 29.8392 220.865 30.2881 220.865 30.7415C220.865 31.1948 220.776 31.6438 220.603 32.0626C220.429 32.4815 220.175 32.8621 219.854 33.1827C219.534 33.5033 219.153 33.7576 218.734 33.9311C218.315 34.1046 217.866 34.1939 217.413 34.1939ZM444.295 28.2303V33.2538C444.294 34.3344 443.864 35.3704 443.1 36.1345C442.335 36.8985 441.299 37.3281 440.219 37.329H227.868V24.1574H440.219C441.299 24.1586 442.334 24.588 443.098 25.3514C443.863 26.1149 444.293 27.1502 444.295 28.2303Z" fill="#3B8F6E"/>
<path d="M411.876 123.966C411.683 123.966 411.499 124.042 411.362 124.179C411.226 124.315 411.149 124.5 411.149 124.693V130.51C411.149 130.702 411.226 130.887 411.362 131.023C411.499 131.16 411.683 131.236 411.876 131.236C412.069 131.236 412.254 131.16 412.39 131.023C412.526 130.887 412.603 130.702 412.603 130.51V124.696C412.603 124.6 412.585 124.505 412.549 124.417C412.512 124.328 412.459 124.248 412.391 124.18C412.324 124.112 412.243 124.058 412.155 124.021C412.067 123.985 411.972 123.966 411.876 123.966Z" fill="#142929"/>
<path d="M411.876 135.593C411.781 135.593 411.686 135.612 411.598 135.648C411.51 135.685 411.43 135.738 411.362 135.806C411.295 135.873 411.241 135.953 411.205 136.041C411.168 136.13 411.149 136.224 411.149 136.319V142.133C411.149 142.326 411.226 142.511 411.362 142.647C411.499 142.783 411.683 142.86 411.876 142.86C412.069 142.86 412.254 142.783 412.39 142.647C412.526 142.511 412.603 142.326 412.603 142.133V136.319C412.603 136.224 412.584 136.13 412.548 136.041C412.511 135.953 412.458 135.873 412.39 135.806C412.323 135.738 412.242 135.685 412.154 135.648C412.066 135.612 411.972 135.593 411.876 135.593Z" fill="#142929"/>
<path d="M411.876 147.218C411.683 147.218 411.499 147.295 411.362 147.431C411.226 147.567 411.149 147.752 411.149 147.945V153.759C411.149 153.951 411.226 154.136 411.362 154.272C411.499 154.409 411.683 154.485 411.876 154.485C412.069 154.485 412.254 154.409 412.39 154.272C412.526 154.136 412.603 153.951 412.603 153.759V147.945C412.603 147.752 412.526 147.567 412.39 147.431C412.254 147.295 412.069 147.218 411.876 147.218Z" fill="#142929"/>
<path d="M367.477 120.827C367.382 120.827 367.287 120.845 367.199 120.882C367.111 120.918 367.03 120.972 366.963 121.039C366.895 121.107 366.842 121.187 366.805 121.275C366.769 121.363 366.75 121.458 366.75 121.553V127.366C366.75 127.559 366.827 127.743 366.963 127.88C367.099 128.016 367.284 128.092 367.477 128.092C367.67 128.092 367.855 128.016 367.991 127.88C368.127 127.743 368.204 127.559 368.204 127.366V121.553C368.204 121.458 368.185 121.363 368.149 121.275C368.112 121.187 368.059 121.107 367.991 121.039C367.924 120.972 367.844 120.918 367.755 120.882C367.667 120.845 367.573 120.827 367.477 120.827Z" fill="#142929"/>
<path d="M367.477 109.2C367.284 109.2 367.099 109.276 366.963 109.413C366.827 109.549 366.75 109.734 366.75 109.926V115.745C366.75 115.937 366.827 116.122 366.963 116.258C367.099 116.395 367.284 116.471 367.477 116.471C367.67 116.471 367.855 116.395 367.991 116.258C368.127 116.122 368.204 115.937 368.204 115.745V109.931C368.204 109.835 368.186 109.74 368.15 109.651C368.114 109.563 368.06 109.482 367.993 109.414C367.925 109.346 367.845 109.292 367.756 109.255C367.668 109.219 367.573 109.2 367.477 109.2Z" fill="#142929"/>
<path d="M367.477 144.08C367.382 144.08 367.287 144.099 367.199 144.135C367.111 144.172 367.03 144.225 366.963 144.293C366.895 144.36 366.842 144.44 366.805 144.529C366.769 144.617 366.75 144.711 366.75 144.807V150.619C366.75 150.812 366.827 150.997 366.963 151.133C367.099 151.269 367.284 151.346 367.477 151.346C367.67 151.346 367.855 151.269 367.991 151.133C368.127 150.997 368.204 150.812 368.204 150.619V144.813C368.205 144.717 368.187 144.621 368.15 144.533C368.114 144.444 368.061 144.363 367.993 144.295C367.926 144.227 367.845 144.172 367.757 144.136C367.668 144.099 367.573 144.08 367.477 144.08Z" fill="#142929"/>
<path d="M367.477 132.453C367.284 132.453 367.099 132.529 366.963 132.665C366.827 132.802 366.75 132.987 366.75 133.179V138.993C366.75 139.186 366.827 139.371 366.963 139.507C367.099 139.643 367.284 139.72 367.477 139.72C367.67 139.72 367.855 139.643 367.991 139.507C368.127 139.371 368.204 139.186 368.204 138.993V133.179C368.204 132.987 368.127 132.802 367.991 132.665C367.855 132.529 367.67 132.453 367.477 132.453Z" fill="#142929"/>
<path d="M367.477 85.9463C367.284 85.9463 367.099 86.0229 366.963 86.1591C366.827 86.2954 366.75 86.4802 366.75 86.673V92.4866C366.75 92.6793 366.827 92.8641 366.963 93.0004C367.099 93.1367 367.284 93.2133 367.477 93.2133C367.67 93.2133 367.855 93.1367 367.991 93.0004C368.127 92.8641 368.204 92.6793 368.204 92.4866V86.6764C368.204 86.5807 368.186 86.4858 368.149 86.3973C368.113 86.3087 368.06 86.2282 367.992 86.1604C367.925 86.0925 367.844 86.0387 367.756 86.0019C367.668 85.9652 367.573 85.9463 367.477 85.9463Z" fill="#142929"/>
<path d="M367.477 97.5737C367.382 97.5736 367.287 97.5923 367.199 97.6287C367.111 97.6652 367.03 97.7187 366.963 97.7862C366.895 97.8537 366.842 97.9339 366.805 98.0222C366.769 98.1104 366.75 98.205 366.75 98.3004V104.113C366.75 104.306 366.827 104.49 366.963 104.627C367.099 104.763 367.284 104.84 367.477 104.84C367.67 104.84 367.855 104.763 367.991 104.627C368.127 104.49 368.204 104.306 368.204 104.113V98.3004C368.204 98.205 368.185 98.1104 368.149 98.0222C368.112 97.9339 368.059 97.8537 367.991 97.7862C367.924 97.7187 367.844 97.6652 367.755 97.6287C367.667 97.5923 367.573 97.5736 367.477 97.5737Z" fill="#142929"/>
<path d="M256.957 142.799C256.861 142.799 256.767 142.817 256.679 142.854C256.59 142.89 256.51 142.944 256.443 143.011C256.375 143.079 256.322 143.159 256.285 143.247C256.249 143.335 256.23 143.43 256.23 143.526V149.338C256.226 149.436 256.242 149.533 256.277 149.625C256.312 149.716 256.364 149.8 256.432 149.87C256.5 149.941 256.581 149.997 256.672 150.035C256.762 150.074 256.858 150.094 256.956 150.094C257.054 150.094 257.151 150.074 257.241 150.035C257.331 149.997 257.412 149.941 257.48 149.87C257.548 149.8 257.601 149.716 257.636 149.625C257.67 149.533 257.686 149.436 257.682 149.338V143.526C257.683 143.43 257.664 143.336 257.628 143.247C257.591 143.159 257.538 143.079 257.471 143.011C257.403 142.944 257.323 142.89 257.235 142.854C257.147 142.817 257.052 142.799 256.957 142.799Z" fill="#142929"/>
<path d="M256.957 131.171C256.861 131.171 256.767 131.19 256.679 131.226C256.59 131.263 256.51 131.316 256.443 131.384C256.375 131.451 256.322 131.532 256.285 131.62C256.249 131.708 256.23 131.803 256.23 131.898V137.712C256.226 137.809 256.242 137.907 256.277 137.999C256.312 138.09 256.364 138.174 256.432 138.244C256.5 138.315 256.581 138.371 256.672 138.409C256.762 138.448 256.858 138.467 256.956 138.467C257.054 138.467 257.151 138.448 257.241 138.409C257.331 138.371 257.412 138.315 257.48 138.244C257.548 138.174 257.601 138.09 257.636 137.999C257.67 137.907 257.686 137.809 257.682 137.712V131.893C257.682 131.702 257.605 131.518 257.469 131.383C257.333 131.247 257.149 131.171 256.957 131.171Z" fill="#142929"/>
<path d="M363.026 324.055H370.657C370.85 324.055 371.035 323.978 371.171 323.842C371.308 323.706 371.384 323.521 371.384 323.328C371.384 323.136 371.308 322.951 371.171 322.814C371.035 322.678 370.85 322.602 370.657 322.602H363.026C362.833 322.602 362.648 322.678 362.512 322.814C362.376 322.951 362.299 323.136 362.299 323.328C362.299 323.521 362.376 323.706 362.512 323.842C362.648 323.978 362.833 324.055 363.026 324.055Z" fill="#142929"/>
<path d="M392.771 322.602H385.138C384.945 322.602 384.761 322.678 384.624 322.814C384.488 322.951 384.411 323.136 384.411 323.328C384.411 323.521 384.488 323.706 384.624 323.842C384.761 323.978 384.945 324.055 385.138 324.055H392.771C392.963 324.055 393.148 323.978 393.285 323.842C393.421 323.706 393.497 323.521 393.497 323.328C393.497 323.136 393.421 322.951 393.285 322.814C393.148 322.678 392.963 322.602 392.771 322.602Z" fill="#142929"/>
<path d="M414.884 322.602H407.252C407.059 322.602 406.874 322.678 406.738 322.814C406.602 322.951 406.525 323.136 406.525 323.328C406.525 323.521 406.602 323.706 406.738 323.842C406.874 323.978 407.059 324.055 407.252 324.055H414.884C415.077 324.055 415.262 323.978 415.398 323.842C415.534 323.706 415.611 323.521 415.611 323.328C415.611 323.136 415.534 322.951 415.398 322.814C415.262 322.678 415.077 322.602 414.884 322.602Z" fill="#142929"/>
<path d="M436.997 322.602H429.365C429.173 322.602 428.988 322.678 428.852 322.814C428.715 322.951 428.639 323.136 428.639 323.328C428.639 323.521 428.715 323.706 428.852 323.842C428.988 323.978 429.173 324.055 429.365 324.055H436.997C437.19 324.055 437.374 323.978 437.511 323.842C437.647 323.706 437.724 323.521 437.724 323.328C437.724 323.136 437.647 322.951 437.511 322.814C437.374 322.678 437.19 322.602 436.997 322.602Z" fill="#142929"/>
<path d="M459.11 322.602H451.475C451.283 322.602 451.098 322.678 450.962 322.814C450.825 322.951 450.749 323.136 450.749 323.328C450.749 323.521 450.825 323.706 450.962 323.842C451.098 323.978 451.283 324.055 451.475 324.055H459.107C459.3 324.055 459.484 323.978 459.621 323.842C459.757 323.706 459.834 323.521 459.834 323.328C459.834 323.136 459.757 322.951 459.621 322.814C459.484 322.678 459.3 322.602 459.107 322.602H459.11Z" fill="#142929"/>
<path d="M481.224 322.602H473.591C473.399 322.602 473.214 322.678 473.077 322.814C472.941 322.951 472.865 323.136 472.865 323.328C472.865 323.521 472.941 323.706 473.077 323.842C473.214 323.978 473.399 324.055 473.591 324.055H481.224C481.417 324.055 481.601 323.978 481.738 323.842C481.874 323.706 481.951 323.521 481.951 323.328C481.951 323.136 481.874 322.951 481.738 322.814C481.601 322.678 481.417 322.602 481.224 322.602Z" fill="#142929"/>
<path d="M363.026 243.593H456.929C457.122 243.593 457.307 243.516 457.443 243.38C457.579 243.243 457.656 243.059 457.656 242.866C457.656 242.673 457.579 242.488 457.443 242.352C457.307 242.216 457.122 242.139 456.929 242.139H363.026C362.833 242.139 362.648 242.216 362.512 242.352C362.376 242.488 362.299 242.673 362.299 242.866C362.299 243.059 362.376 243.243 362.512 243.38C362.648 243.516 362.833 243.593 363.026 243.593Z" fill="#142929"/>
<path d="M366.851 314.26C368.055 314.255 369.207 313.773 370.056 312.92C370.905 312.066 371.38 310.911 371.378 309.707V277.721C371.359 276.529 370.873 275.393 370.023 274.557C369.174 273.721 368.03 273.253 366.839 273.253C365.647 273.253 364.503 273.721 363.654 274.557C362.805 275.393 362.318 276.529 362.299 277.721V309.703C362.3 310.911 362.779 312.069 363.633 312.923C364.486 313.777 365.643 314.258 366.851 314.26ZM366.851 274.651C367.665 274.654 368.445 274.979 369.021 275.554C369.597 276.13 369.922 276.91 369.925 277.724V290.708C369.094 289.913 367.989 289.469 366.839 289.469C365.689 289.469 364.583 289.913 363.753 290.708V277.721C363.757 276.903 364.085 276.119 364.666 275.543C365.247 274.967 366.033 274.645 366.851 274.648V274.651Z" fill="#3B8F6E"/>
<path d="M388.956 256.658C387.752 256.659 386.597 257.138 385.745 257.989C384.893 258.84 384.413 259.995 384.411 261.2V309.711C384.402 310.313 384.512 310.912 384.736 311.471C384.96 312.031 385.293 312.541 385.716 312.97C386.139 313.4 386.643 313.741 387.199 313.974C387.755 314.207 388.352 314.327 388.954 314.327C389.557 314.327 390.154 314.207 390.71 313.974C391.266 313.741 391.77 313.4 392.193 312.97C392.616 312.541 392.949 312.031 393.173 311.471C393.397 310.912 393.507 310.313 393.497 309.711V261.2C393.498 260.603 393.381 260.012 393.152 259.461C392.924 258.91 392.59 258.409 392.168 257.988C391.746 257.566 391.246 257.231 390.694 257.003C390.143 256.775 389.553 256.658 388.956 256.658ZM392.045 309.713C392.053 310.124 391.979 310.532 391.827 310.914C391.676 311.295 391.449 311.643 391.162 311.937C390.874 312.23 390.531 312.463 390.152 312.622C389.773 312.781 389.366 312.863 388.956 312.863C388.545 312.863 388.138 312.781 387.759 312.622C387.38 312.463 387.037 312.23 386.75 311.937C386.462 311.643 386.236 311.295 386.084 310.914C385.932 310.532 385.858 310.124 385.866 309.713V261.2C385.858 260.789 385.932 260.381 386.084 259.999C386.236 259.617 386.462 259.269 386.75 258.976C387.037 258.683 387.38 258.45 387.759 258.291C388.138 258.132 388.545 258.05 388.956 258.05C389.366 258.05 389.773 258.132 390.152 258.291C390.531 258.45 390.874 258.683 391.162 258.976C391.449 259.269 391.676 259.617 391.827 259.999C391.979 260.381 392.053 260.789 392.045 261.2V309.713Z" fill="#142929"/>
<path d="M411.069 278.694C409.864 278.696 408.709 279.175 407.858 280.026C407.006 280.878 406.527 282.032 406.525 283.237V309.713C406.516 310.316 406.626 310.914 406.85 311.474C407.074 312.033 407.407 312.543 407.83 312.972C408.253 313.402 408.757 313.743 409.313 313.976C409.869 314.209 410.465 314.329 411.068 314.329C411.671 314.329 412.268 314.209 412.824 313.976C413.38 313.743 413.884 313.402 414.306 312.972C414.729 312.543 415.062 312.033 415.286 311.474C415.51 310.914 415.621 310.316 415.611 309.713V283.237C415.612 282.64 415.494 282.049 415.266 281.498C415.038 280.947 414.704 280.446 414.282 280.024C413.86 279.602 413.359 279.267 412.808 279.039C412.256 278.811 411.665 278.694 411.069 278.694ZM414.158 309.713C414.166 310.124 414.092 310.532 413.94 310.914C413.788 311.295 413.562 311.643 413.274 311.936C412.987 312.23 412.643 312.463 412.264 312.622C411.886 312.781 411.479 312.863 411.068 312.863C410.657 312.863 410.251 312.781 409.872 312.622C409.493 312.463 409.15 312.23 408.862 311.936C408.574 311.643 408.348 311.295 408.196 310.914C408.045 310.532 407.971 310.124 407.978 309.713V283.237C407.994 282.428 408.327 281.657 408.904 281.09C409.482 280.524 410.259 280.206 411.068 280.206C411.877 280.206 412.654 280.524 413.232 281.09C413.81 281.657 414.142 282.428 414.158 283.237V309.713Z" fill="#142929"/>
<path d="M433.189 314.26C434.393 314.255 435.545 313.772 436.393 312.919C437.242 312.066 437.717 310.91 437.715 309.707V266.703C437.696 265.511 437.21 264.375 436.361 263.539C435.511 262.703 434.367 262.235 433.176 262.235C431.984 262.235 430.841 262.703 429.991 263.539C429.142 264.375 428.655 265.511 428.636 266.703V309.704C428.637 310.911 429.116 312.069 429.97 312.924C430.824 313.778 431.981 314.259 433.189 314.26ZM433.189 263.633C434.004 263.635 434.784 263.959 435.36 264.535C435.936 265.111 436.261 265.892 436.262 266.706V297.644C435.435 296.851 434.334 296.409 433.189 296.407C432.036 296.41 430.928 296.852 430.09 297.644V266.703C430.094 265.884 430.423 265.102 431.004 264.525C431.585 263.949 432.371 263.627 433.189 263.63V263.633Z" fill="#3B8F6E"/>
<path d="M450.752 288.747V309.713C450.752 310.918 451.231 312.073 452.083 312.925C452.934 313.777 454.09 314.255 455.295 314.255C456.499 314.255 457.655 313.777 458.507 312.925C459.358 312.073 459.837 310.918 459.837 309.713V288.747C459.837 287.542 459.358 286.387 458.507 285.535C457.655 284.683 456.499 284.205 455.295 284.205C454.09 284.205 452.934 284.683 452.083 285.535C451.231 286.387 450.752 287.542 450.752 288.747ZM458.384 288.747V309.713C458.384 310.532 458.058 311.318 457.479 311.897C456.9 312.476 456.114 312.802 455.295 312.802C454.475 312.802 453.69 312.476 453.11 311.897C452.531 311.318 452.206 310.532 452.206 309.713V288.747C452.206 287.928 452.531 287.142 453.11 286.563C453.69 285.983 454.475 285.658 455.295 285.658C456.114 285.658 456.9 285.983 457.479 286.563C458.058 287.142 458.384 287.928 458.384 288.747Z" fill="#142929"/>
<path d="M477.414 314.26C478.618 314.255 479.77 313.773 480.619 312.919C481.468 312.066 481.943 310.911 481.941 309.707V261.199C481.945 260.604 481.831 260.013 481.605 259.462C481.378 258.911 481.045 258.411 480.624 257.989C480.203 257.568 479.702 257.235 479.151 257.009C478.6 256.783 478.01 256.668 477.414 256.672C476.21 256.67 475.055 257.145 474.202 257.994C473.348 258.843 472.867 259.996 472.862 261.199V309.704C472.863 310.911 473.342 312.069 474.196 312.923C475.049 313.778 476.206 314.258 477.414 314.26ZM477.414 258.124C477.819 258.121 478.22 258.198 478.594 258.351C478.969 258.504 479.309 258.731 479.596 259.017C479.882 259.303 480.108 259.643 480.261 260.018C480.414 260.392 480.492 260.794 480.488 261.198V279.057C479.651 278.272 478.545 277.838 477.398 277.841C476.25 277.845 475.148 278.287 474.316 279.077V261.199C474.318 260.38 474.646 259.596 475.227 259.019C475.808 258.441 476.595 258.118 477.414 258.121V258.124Z" fill="#3B8F6E"/>
<path d="M13.512 289.95C13.4166 289.95 13.322 289.969 13.2338 290.005C13.1455 290.042 13.0654 290.095 12.9978 290.163C12.9303 290.23 12.8768 290.31 12.8403 290.399C12.8039 290.487 12.7852 290.581 12.7853 290.677V372.857C12.7852 372.953 12.8039 373.047 12.8403 373.135C12.8768 373.224 12.9303 373.304 12.9978 373.371C13.0654 373.439 13.1455 373.492 13.2338 373.529C13.322 373.565 13.4166 373.584 13.512 373.584H90.4635C90.559 373.584 90.6536 373.565 90.7418 373.529C90.8301 373.492 90.9102 373.439 90.9777 373.371C91.0452 373.304 91.0988 373.224 91.1352 373.135C91.1717 373.047 91.1904 372.953 91.1903 372.857V290.677C91.1904 290.581 91.1717 290.487 91.1352 290.399C91.0988 290.31 91.0452 290.23 90.9777 290.163C90.9102 290.095 90.8301 290.042 90.7418 290.005C90.6536 289.969 90.559 289.95 90.4635 289.95H13.512ZM89.7415 372.132H28.0298V291.404H89.7415V372.132Z" fill="#3B8F6E"/>
<path d="M141.533 184.448C141.533 185.42 141.821 186.37 142.36 187.177C142.9 187.985 143.667 188.615 144.564 188.987C145.462 189.359 146.449 189.456 147.402 189.267C148.355 189.078 149.23 188.61 149.917 187.923C150.604 187.236 151.072 186.361 151.262 185.408C151.451 184.455 151.354 183.468 150.982 182.57C150.611 181.673 149.981 180.906 149.173 180.366C148.366 179.826 147.416 179.538 146.445 179.538C145.143 179.54 143.895 180.058 142.974 180.978C142.053 181.899 141.535 183.147 141.533 184.448Z" fill="#142929"/>
<path d="M5.53687 57.4371H102.741C104.209 57.435 105.616 56.8509 106.654 55.8131C107.692 54.7752 108.276 53.3681 108.278 51.9004V28.0151H147.831V76.0648C147.831 76.1603 147.85 76.2548 147.886 76.3431C147.923 76.4313 147.976 76.5115 148.044 76.579C148.111 76.6465 148.191 76.7 148.28 76.7365C148.368 76.7729 148.462 76.7916 148.558 76.7915H199.634V90.007L175.022 117.848C174.366 118.839 173.459 119.638 172.393 120.164C171.326 120.689 170.14 120.922 168.954 120.839C168.645 120.82 128.63 118.472 128.331 118.458L128.063 112.433C130.254 111.074 140.647 103.964 135.943 93.6785L131.284 83.4125C137.077 80.8518 139.989 76.4662 135.74 71.798C135.506 71.5138 135.255 71.2442 134.988 70.9906C132.175 68.5625 127.453 67.3675 123.556 68.5475C123.126 68.6767 122.679 68.7874 122.301 68.9743C116.995 66.8899 110.577 66.8888 106.116 70.4911C101.398 70.2524 97.3176 73.7209 97.9174 81.2959C93.5526 84.7344 92.9505 92.6543 94.6196 97.9418C96.6601 104.427 103.501 109.66 109.721 112.329L109.926 118.196C105.082 118.311 101.282 118.579 98.4019 119.025C78.4961 122.067 70.7874 140.008 66.1804 150.728L65.4675 152.385C60.6229 163.481 58.9757 179.457 65.1849 188.519C70.8727 196.811 84.6789 197.731 87.8279 197.833L89.9734 212.044C87.9282 216.069 87.2177 222.35 86.5544 230.133C83.44 230.992 81.6383 234.015 81.1469 239.088C75.5859 239.073 67.1758 238.867 65.1019 238.332C64.6405 238.204 64.1871 238.367 63.8445 238.77C61.0047 242.107 62.3935 272.89 63.4639 275.258C63.9564 276.345 64.7777 276.955 65.7328 276.955C65.7882 276.955 65.8482 276.955 65.8989 276.949C68.3824 276.769 70.9016 272.665 72.9917 265.394C75.414 256.994 80.2587 255.031 82.4503 254.573C82.7964 256.213 83.0709 257.27 83.0709 257.27C83.1116 257.423 83.2013 257.558 83.3262 257.656C83.4512 257.753 83.6045 257.807 83.763 257.81C83.763 257.81 92.0981 257.894 104.26 258.034L110.57 334.749C110.57 335.637 111.493 336.024 114.515 336.364C114.435 345.239 114.161 351.025 113.733 352.642C113.32 354.172 115.702 354.621 117.283 354.884V372.89C117.283 372.985 117.302 373.08 117.338 373.168C117.375 373.256 117.428 373.336 117.496 373.404C117.563 373.471 117.644 373.525 117.732 373.561C117.82 373.598 117.915 373.616 118.01 373.616H201.256C201.449 373.616 201.634 373.54 201.77 373.403C201.906 373.267 201.983 373.082 201.983 372.89V257.9C209.365 255.741 222.322 247.489 221.836 230.337C221.269 210.935 194.006 210.624 193.724 210.621L190.648 210.64C191.864 208.601 191.048 210.027 191.288 160.511C191.29 159.328 190.823 158.192 189.989 157.353C189.155 156.514 188.023 156.041 186.84 156.036H150.339L149.452 145.522C154.691 145.753 181.865 146.676 190.463 141.844C192.77 140.53 195.858 136.951 199.637 131.226V167.982C199.641 171.388 200.995 174.653 203.404 177.062C205.813 179.47 209.078 180.825 212.484 180.829H270.019V312.842H249.932L249.893 299.001C249.879 298.877 249.84 298.757 249.777 298.649C249.715 298.541 249.631 298.447 249.531 298.373L232.834 288.671C232.723 288.607 232.598 288.574 232.47 288.574C232.342 288.574 232.217 288.607 232.106 288.671L215.287 298.382C215.206 298.432 215.136 298.499 215.082 298.577C215.027 298.655 214.989 298.743 214.97 298.837C214.947 298.892 214.932 298.95 214.924 299.009L214.977 318.072C214.978 318.199 215.012 318.324 215.075 318.434C215.139 318.544 215.23 318.636 215.339 318.7L232.037 328.403C232.147 328.466 232.272 328.5 232.4 328.5C232.527 328.5 232.652 328.466 232.763 328.403L249.582 318.692C249.692 318.628 249.784 318.536 249.848 318.426C249.912 318.315 249.945 318.19 249.945 318.062L249.933 314.288H270.743C270.839 314.288 270.933 314.269 271.022 314.233C271.11 314.196 271.19 314.143 271.258 314.075C271.325 314.008 271.379 313.928 271.415 313.839C271.452 313.751 271.47 313.657 271.47 313.561V180.829H303.898V272.611C299.306 273.015 295.673 276.842 295.673 281.516C295.673 286.452 299.702 290.468 304.655 290.468C309.353 290.468 313.173 286.819 313.537 282.213H349.091V330.246C349.093 332.19 349.866 334.054 351.24 335.429C352.615 336.803 354.478 337.577 356.422 337.579H488.67C490.614 337.577 492.477 336.803 493.852 335.429C495.226 334.054 495.999 332.19 496.001 330.246V235.361C495.999 233.418 495.226 231.554 493.852 230.18C492.477 228.805 490.613 228.032 488.67 228.03H356.421C354.477 228.032 352.614 228.805 351.239 230.18C349.865 231.554 349.092 233.418 349.09 235.361V280.764H313.529C313.347 278.658 312.427 276.685 310.93 275.193C309.434 273.701 307.458 272.786 305.352 272.611V180.829H440.22C443.626 180.825 446.891 179.47 449.3 177.062C451.708 174.653 453.063 171.388 453.067 167.982V136.419H483.011V193.698H474.168C473.564 193.698 472.984 193.938 472.557 194.365C472.13 194.792 471.889 195.371 471.889 195.976V211.168C471.889 211.773 472.13 212.352 472.557 212.779C472.984 213.207 473.564 213.447 474.168 213.448H493.307C493.911 213.447 494.49 213.207 494.917 212.779C495.344 212.352 495.585 211.772 495.585 211.168V195.976C495.584 195.372 495.344 194.793 494.917 194.365C494.49 193.938 493.911 193.698 493.307 193.698H484.465V135.692C484.465 135.499 484.389 135.314 484.252 135.178C484.116 135.042 483.931 134.965 483.739 134.965H453.067V78.967L480.174 55.8972L487.349 63.0996C487.44 63.1918 487.555 63.2579 487.68 63.2909C487.806 63.3239 487.938 63.3227 488.063 63.2874C488.188 63.2521 488.301 63.1839 488.391 63.09C488.48 62.9961 488.543 62.8799 488.573 62.7535L495.578 32.088C495.604 31.9726 495.602 31.8524 495.571 31.738C495.541 31.6236 495.482 31.5185 495.402 31.4317C495.321 31.3449 495.221 31.2792 495.109 31.2402C494.997 31.2012 494.877 31.1901 494.76 31.2079L462.496 36.1195C462.368 36.1391 462.247 36.1927 462.146 36.2748C462.046 36.3568 461.969 36.4643 461.924 36.586C461.879 36.7077 461.868 36.8393 461.891 36.967C461.914 37.0947 461.971 37.2139 462.055 37.3122L469.128 45.5285L453.067 58.8051V25.2063C453.067 18.1055 447.3 12.3299 440.22 12.3299H212.484C205.401 12.3299 199.637 18.1055 199.637 25.2063V75.3369H149.287V27.2884C149.287 27.0956 149.21 26.9108 149.074 26.7745C148.938 26.6382 148.753 26.5617 148.56 26.5617H108.28V5.53821C108.279 4.07033 107.695 2.66311 106.657 1.62516C105.619 0.587219 104.212 0.00329625 102.744 0.00146484H5.53687C4.06899 0.00329625 2.66176 0.587219 1.62382 1.62516C0.585876 2.66311 0.00195348 4.07033 0.00012207 5.53821V51.8992C0.00164826 53.3673 0.585435 54.7748 1.62341 55.813C2.66139 56.8512 4.06879 57.4353 5.53687 57.4371ZM232.468 290.145L247.715 299.005L232.347 307.877L217.1 299.017L232.468 290.145ZM248.492 317.652L233.12 326.526C233.12 326.086 233.067 308.227 233.069 309.136L248.44 300.263L248.474 312.842H243.386C243.454 312.582 243.495 312.316 243.51 312.048C243.51 310.572 242.471 309.981 241.183 310.722C239.895 311.464 238.854 313.26 238.859 314.732C238.863 316.204 239.907 316.808 241.199 316.066C241.852 315.689 242.435 315.039 242.854 314.296H248.478L248.492 317.652ZM356.421 229.479H488.669C490.229 229.479 491.725 230.098 492.828 231.202C493.932 232.305 494.551 233.801 494.551 235.361V330.251C494.551 331.811 493.932 333.307 492.828 334.411C491.725 335.514 490.229 336.134 488.669 336.134H356.421C354.861 336.134 353.365 335.514 352.261 334.411C351.158 333.307 350.538 331.811 350.538 330.251V235.361C350.538 233.801 351.158 232.305 352.261 231.202C353.365 230.098 354.861 229.479 356.421 229.479ZM312.152 281.491C312.152 281.5 312.162 281.506 312.163 281.515H312.15C312.126 283.491 311.323 285.379 309.917 286.768C308.511 288.157 306.614 288.936 304.637 288.936C302.66 288.936 300.763 288.157 299.357 286.768C297.951 285.379 297.148 283.491 297.124 281.515C297.124 277.39 300.49 274.017 304.653 273.985C308.764 273.986 312.127 277.348 312.152 281.491ZM488.59 203.577C488.59 206.177 486.325 208.415 483.724 208.415C481.038 208.415 478.885 206.177 478.885 203.577C478.88 202.94 479.002 202.309 479.244 201.72C479.486 201.131 479.842 200.596 480.292 200.146C480.742 199.695 481.277 199.339 481.866 199.098C482.456 198.856 483.087 198.734 483.724 198.738C486.325 198.738 488.59 200.864 488.59 203.577ZM105.219 108.229C108.246 108.095 110.197 107.519 110.895 106.455C112.31 104.301 110.902 102.746 109.414 101.104C108.088 99.6375 104.865 95.7652 106.467 94.5956C107.434 93.8919 109.402 94.2495 109.697 94.5275C109.812 94.6671 109.956 94.8643 110.127 95.0939C111.234 96.5934 113.295 99.401 115.455 98.0572C117.473 96.7884 115.304 94.02 115.867 93.028C115.982 92.8169 116.267 92.6496 116.702 92.5274C120.212 91.5538 121.836 87.8361 123.142 84.8486L123.363 84.3411C124.144 82.5693 128.109 83.2049 129.798 83.649L134.62 94.2818C139.277 104.463 127.469 111.115 126.967 111.393C126.967 111.393 126.967 111.393 126.959 111.4C126.951 111.407 126.93 111.4 126.917 111.408L123.72 113.513C123.59 113.599 123.491 113.725 123.437 113.872C123.384 114.019 123.38 114.179 123.425 114.329C123.47 114.478 123.561 114.61 123.687 114.703C123.812 114.796 123.964 114.847 124.12 114.847C124.504 114.847 124.52 114.68 126.649 113.327L127.145 124.439C127.151 124.53 127.172 124.81 126.623 125.185C124.179 126.853 116.154 126.915 112.781 125.284C112.356 125.079 111.628 124.66 111.598 124.185L111.427 118.859C111.397 118.052 111.148 111.368 111.164 111.793C111.12 110.837 110.016 111.338 105.219 108.229ZM101.598 225.709L101.737 227.381C96.1434 227.453 91.8339 228.173 88.0574 229.636C88.58 223.506 89.234 216.843 91.1718 212.857L103.375 212.753C101.193 219.127 101.579 225.42 101.598 225.709ZM101.968 211.311L91.3472 211.401L89.3032 197.86L101.592 198.373C101.595 208.921 101.467 210.145 101.968 211.311ZM84.3455 256.355C83.1551 251.483 82.1665 244.845 82.5264 239.86C82.8806 234.803 84.5116 231.967 87.3711 231.426C87.3907 231.426 87.3999 231.404 87.4184 231.399C88.1624 231.199 91.9758 228.948 101.855 228.834L104.147 256.571C93.8941 256.448 86.3964 256.37 84.3455 256.355ZM103.047 225.606C103.047 225.538 102.627 218.675 105.093 212.284C105.111 212.22 105.119 212.155 105.118 212.089C105.133 212.062 105.168 212.055 105.179 212.028C108.006 204.831 113.253 201.122 120.762 201.006C129.694 200.869 136.064 204.718 139.863 212.46C139.942 212.753 142.887 218.036 143.103 225.875C143.344 235.674 133.477 324.207 132.355 334.418C129.99 335.322 114.753 335.515 112.008 334.437C111.061 322.925 115.377 375.329 103.047 225.601V225.606ZM130.276 336.255C132.857 335.994 133.772 335.592 133.769 334.823C133.789 334.645 135.407 320.135 137.376 301.86V343.435C132.816 341.287 130.982 338.347 130.276 336.249V336.255ZM118.741 355.076C124.085 355.706 131.997 355.616 137.374 355.422V372.148H118.744L118.741 355.076ZM200.535 372.148H138.824V355.366C144.804 355.117 149.749 354.674 150.658 354.264C151.812 353.758 152.426 352.88 152.356 351.851C152.184 349.355 148.08 346.828 140.8 344.734C140.077 344.526 139.453 344.283 138.824 344.042V288.305C139.874 278.249 140.953 267.806 141.898 258.384C196.061 258.87 197.655 258.888 200.535 258.277V372.148ZM193.73 212.078C193.99 212.078 219.861 212.371 220.386 230.383C220.859 247.037 207.961 254.854 201.084 256.659C198.239 257.37 201.285 257.467 142.04 256.936C142.732 250.055 144 236.957 144.404 230.046C160.553 228.104 173.126 230.909 174.299 230.909C175.186 230.909 175.293 229.607 174.414 229.465C163.79 227.776 153.735 227.497 144.486 228.582C144.77 222.689 143.635 217.304 141.658 212.864H186.846C187.905 212.864 188.98 212.312 189.268 212.106L193.73 212.078ZM189.838 160.517V208.387C189.838 210.105 188.368 211.41 186.839 211.41H140.964C136.919 203.501 129.919 199.414 120.739 199.551C112.98 199.667 107.261 203.521 104.154 210.696C103.81 210.418 103.532 210.067 103.341 209.668C103.15 209.269 103.05 208.832 103.048 208.389V176.4C103.346 176.159 103.458 175.708 103.048 175.333V160.511C103.046 159.712 103.361 158.946 103.923 158.38C104.485 157.813 105.249 157.493 106.047 157.49H186.851C187.648 157.495 188.41 157.816 188.971 158.382C189.531 158.948 189.845 159.714 189.842 160.511L189.838 160.517ZM189.742 140.585C181.48 145.238 153.799 144.259 149.318 144.066L148.93 140.454C148.92 140.359 148.891 140.267 148.846 140.183C148.8 140.099 148.738 140.025 148.664 139.965C148.589 139.906 148.504 139.861 148.412 139.834C148.321 139.807 148.225 139.799 148.13 139.809C148.035 139.819 147.943 139.848 147.859 139.894C147.776 139.939 147.702 140.001 147.642 140.076C147.582 140.15 147.537 140.235 147.51 140.327C147.483 140.418 147.475 140.514 147.485 140.609C147.516 140.901 147.956 145.118 147.926 144.828L148.881 156.043H106.044C104.861 156.048 103.728 156.521 102.894 157.36C102.06 158.199 101.593 159.334 101.595 160.517V174.936C97.6729 174.235 100.182 173.769 85.1183 170.79C89.6758 164.556 89.7484 149.946 89.9215 149.164C90.1291 148.227 88.7103 147.91 88.5027 148.851C86.3606 158.561 83.853 166.648 80.8366 173.571C80.788 173.682 80.7678 173.803 80.7778 173.923C80.7878 174.044 80.8278 174.16 80.894 174.261C80.9602 174.362 81.0506 174.445 81.1571 174.502C81.2635 174.559 81.3825 174.589 81.5033 174.589C84.74 174.718 90.1545 174.335 101.595 176.409V196.919L88.4681 196.385C81.2357 196.327 70.6444 193.896 66.3845 187.688C60.5387 179.152 62.232 163.422 66.8021 152.955L67.5184 151.292C72.0066 140.849 79.5147 123.37 98.6257 120.451C101.455 120.012 105.176 119.743 109.979 119.633L110.142 124.263C110.212 125.205 110.888 125.994 112.149 126.596C116.089 128.49 128.923 128.672 128.598 124.351L128.4 119.913C128.695 119.927 168.556 122.27 168.867 122.29C170.29 122.387 171.713 122.109 172.994 121.485C174.276 120.861 175.372 119.912 176.172 118.732L204.649 86.5327L217.049 94.6994C217.84 95.1239 217.652 95.591 217.049 96.0755C213.211 104.141 197.559 136.134 189.749 140.578L189.742 140.585ZM207.185 86.4669C207.725 84.0031 209.802 77.6797 217.282 73.4441C217.721 73.2272 224.889 69.115 225.879 69.6814C225.926 69.7575 225.994 70.0678 225.648 71.3159C224.862 73.9366 217.397 77.404 217.105 77.5989C216.993 77.6745 216.904 77.7797 216.849 77.9029C216.793 78.026 216.773 78.1622 216.791 78.2962C216.808 78.4301 216.863 78.5565 216.949 78.6611C217.034 78.7658 217.147 78.8445 217.275 78.8885C221.877 80.2312 223.11 82.7112 223.303 84.0931C223.772 87.2478 219.471 91.202 216.813 92.81L207.185 86.4669ZM440.215 179.383H212.484C209.463 179.379 206.567 178.178 204.431 176.042C202.295 173.906 201.093 171.009 201.09 167.989V128.98C206.469 120.415 212.575 108.632 217.049 99.4218V160.687C217.048 160.782 217.067 160.877 217.104 160.965C217.14 161.053 217.194 161.134 217.261 161.201C217.329 161.269 217.409 161.322 217.497 161.359C217.585 161.395 217.68 161.414 217.775 161.414H431.558C431.751 161.414 431.936 161.337 432.072 161.201C432.208 161.065 432.285 160.88 432.285 160.687C432.285 160.494 432.208 160.309 432.072 160.173C431.936 160.037 431.751 159.96 431.558 159.96H412.603V159.577C412.603 159.385 412.526 159.2 412.39 159.063C412.254 158.927 412.069 158.851 411.876 158.851C411.683 158.851 411.499 158.927 411.362 159.063C411.226 159.2 411.149 159.385 411.149 159.577V159.965H368.204V156.438C368.204 156.245 368.127 156.06 367.991 155.924C367.855 155.787 367.67 155.711 367.477 155.711C367.285 155.711 367.1 155.787 366.963 155.924C366.827 156.06 366.751 156.245 366.751 156.438V159.965H296.411V157.054C296.411 156.861 296.334 156.676 296.198 156.54C296.062 156.403 295.877 156.327 295.684 156.327C295.491 156.327 295.307 156.403 295.17 156.54C295.034 156.676 294.957 156.861 294.957 157.054V159.965H257.682V155.156C257.686 155.058 257.671 154.961 257.636 154.869C257.601 154.778 257.548 154.694 257.48 154.624C257.413 154.553 257.331 154.497 257.241 154.458C257.151 154.42 257.054 154.4 256.956 154.4C256.858 154.4 256.762 154.42 256.672 154.458C256.582 154.497 256.5 154.553 256.432 154.624C256.365 154.694 256.312 154.778 256.277 154.869C256.242 154.961 256.226 155.058 256.23 155.156V159.965H218.502V145.824L256.23 121.601V126.09C256.226 126.188 256.242 126.286 256.277 126.377C256.312 126.469 256.365 126.552 256.432 126.623C256.5 126.693 256.582 126.75 256.672 126.788C256.762 126.826 256.858 126.846 256.956 126.846C257.054 126.846 257.151 126.826 257.241 126.788C257.331 126.75 257.413 126.693 257.48 126.623C257.548 126.552 257.601 126.469 257.636 126.377C257.671 126.286 257.686 126.188 257.682 126.09V121.64L294.957 145.633V151.242C294.957 151.435 295.034 151.62 295.17 151.756C295.307 151.892 295.491 151.969 295.684 151.969C295.877 151.969 296.062 151.892 296.198 151.756C296.334 151.62 296.411 151.435 296.411 151.242V145.994C296.439 145.973 296.475 145.977 296.501 145.951L366.748 76.788V80.8668C366.748 81.0595 366.825 81.2443 366.961 81.3806C367.097 81.5169 367.282 81.5935 367.475 81.5935C367.668 81.5935 367.853 81.5169 367.989 81.3806C368.125 81.2443 368.202 81.0595 368.202 80.8668V76.6415L411.147 113.404V118.878C411.147 119.07 411.224 119.255 411.36 119.391C411.496 119.528 411.681 119.604 411.874 119.604C412.067 119.604 412.251 119.528 412.388 119.391C412.524 119.255 412.601 119.07 412.601 118.878V113.415L451.612 80.2035V167.984C451.608 171.004 450.406 173.899 448.271 176.035C446.135 178.17 443.24 179.372 440.22 179.376L440.215 179.383ZM470.705 45.1444L464.006 37.3606L493.924 32.7998L487.45 61.141L480.736 54.4011C480.607 54.271 480.434 54.1945 480.251 54.1868C480.068 54.1791 479.889 54.2408 479.75 54.3596L411.887 112.119L367.94 74.503C367.802 74.3871 367.625 74.3263 367.445 74.3323C367.265 74.3382 367.093 74.4105 366.963 74.5353L295.902 144.498L257.424 119.739C257.133 119.644 256.971 119.393 256.534 119.671L221.259 142.325L253.422 103.106L292.409 127.615C292.546 127.701 292.707 127.739 292.867 127.723C293.027 127.708 293.178 127.64 293.295 127.53L366.997 58.218L410.333 95.2888C410.464 95.4 410.629 95.4616 410.801 95.4629C410.973 95.4641 411.139 95.405 411.272 95.2957C503.336 19.0778 410.508 95.9255 470.623 46.1756C470.698 46.114 470.76 46.0379 470.806 45.9519C470.851 45.8659 470.878 45.7717 470.886 45.6748C470.894 45.578 470.883 45.4806 470.853 45.3882C470.822 45.2959 470.774 45.2107 470.71 45.1375L470.705 45.1444ZM212.484 13.7833H440.22C446.503 13.7833 451.614 18.9083 451.614 25.2029V60.0025L410.813 93.7801L367.442 56.6827C367.305 56.5666 367.131 56.5047 366.952 56.5087C366.773 56.5127 366.601 56.5825 366.47 56.7046L292.701 126.08L253.652 101.532C253.502 101.44 253.323 101.405 253.149 101.433C252.975 101.461 252.817 101.551 252.703 101.685L218.502 143.393V96.4008C218.883 95.5933 219.117 95.0996 219.131 95.0697C219.204 94.9114 219.218 94.7321 219.17 94.5645C219.122 94.3968 219.016 94.2519 218.87 94.1561L218.502 93.9127V93.4213C227.362 87.1452 226.087 80.9175 219.361 78.0799C226.96 74.0577 226.775 71.9976 227.048 71.7057C227.394 70.4796 227.656 69.2246 226.794 68.5463C225.881 67.8231 224.134 68.063 218.502 71.1336V58.1972C218.502 58.0045 218.425 57.8197 218.289 57.6834C218.153 57.5471 217.968 57.4706 217.775 57.4706C217.583 57.4706 217.398 57.5471 217.261 57.6834C217.125 57.8197 217.049 58.0045 217.049 58.1972V71.9122C217.02 71.9284 216.711 72.0991 216.602 72.1533C209.086 76.4074 206.653 82.657 205.898 85.6122L204.92 84.9686C204.774 84.8719 204.597 84.8315 204.424 84.8546C204.25 84.8777 204.091 84.9628 203.975 85.0943L201.091 88.3587V25.2063C201.09 18.9083 206.201 13.7833 212.484 13.7833ZM1.45352 5.53821C1.45474 4.45551 1.8853 3.41748 2.65078 2.65178C3.41626 1.88609 4.45416 1.45523 5.53687 1.4537H102.741C103.824 1.45523 104.862 1.88605 105.628 2.65171C106.393 3.41738 106.824 4.4554 106.826 5.53821V51.8992C106.824 52.982 106.393 54.02 105.628 54.7857C104.862 55.5514 103.824 55.9822 102.741 55.9837H5.53687C4.45396 55.9825 3.41577 55.5518 2.65004 54.786C1.88431 54.0203 1.45358 52.9821 1.45236 51.8992L1.45352 5.53821Z" fill="#142929"/>
<path d="M25.7609 46.6578C35.6336 46.6578 43.6665 38.6133 43.6665 28.7233C43.6665 18.8333 35.6336 10.79 25.7609 10.79C25.7552 10.79 25.7517 10.79 25.7459 10.79C25.7402 10.79 25.7367 10.79 25.7309 10.79C15.8594 10.79 7.82764 18.8345 7.82764 28.7233C7.82764 38.6122 15.8721 46.6578 25.7609 46.6578ZM25.7309 17.8206C25.7309 17.8206 25.7402 17.8206 25.7459 17.8136C25.7517 17.8067 25.7552 17.8206 25.7609 17.8206C28.6463 17.8245 31.4121 18.974 33.4502 21.0164C35.4884 23.0588 36.6322 25.8269 36.6302 28.7123C36.6283 31.5977 35.4806 34.3643 33.4396 36.4039C31.3987 38.4435 28.6313 39.5892 25.7459 39.5892C22.8605 39.5892 20.0932 38.4435 18.0522 36.4039C16.0112 34.3643 14.8636 31.5977 14.8616 28.7123C14.8596 25.8269 16.0034 23.0588 18.0416 21.0164C20.0798 18.974 22.8455 17.8245 25.7309 17.8206ZM42.1981 27.9932H38.0929C37.9109 24.9747 36.6298 22.1275 34.4915 19.9893C32.3533 17.851 29.506 16.5699 26.4876 16.3879V12.2584C34.9831 12.631 41.8267 19.4873 42.1981 27.9966V27.9932ZM25.0042 12.2584V16.3914C18.6658 16.7651 13.7404 21.9443 13.399 27.9966H9.29603C9.6663 19.4873 16.5099 12.631 25.0042 12.2584Z" fill="#3B8F6E"/>
<path d="M52.177 14.5076H99.2578C99.4505 14.5076 99.6354 14.431 99.7716 14.2947C99.9079 14.1585 99.9845 13.9736 99.9845 13.7809C99.9845 13.5882 99.9079 13.4033 99.7716 13.267C99.6354 13.1308 99.4505 13.0542 99.2578 13.0542H52.177C51.9843 13.0542 51.7995 13.1308 51.6632 13.267C51.5269 13.4033 51.4503 13.5882 51.4503 13.7809C51.4503 13.9736 51.5269 14.1585 51.6632 14.2947C51.7995 14.431 51.9843 14.5076 52.177 14.5076Z" fill="#142929"/>
<path d="M52.177 24.4656H99.2578C99.3532 24.4656 99.4477 24.4468 99.5359 24.4103C99.6241 24.3738 99.7042 24.3203 99.7717 24.2528C99.8391 24.1853 99.8927 24.1052 99.9292 24.017C99.9657 23.9288 99.9845 23.8343 99.9845 23.7389C99.9845 23.6435 99.9657 23.549 99.9292 23.4608C99.8927 23.3727 99.8391 23.2925 99.7717 23.2251C99.7042 23.1576 99.6241 23.104 99.5359 23.0675C99.4477 23.031 99.3532 23.0122 99.2578 23.0122H52.177C51.9843 23.0122 51.7995 23.0888 51.6632 23.2251C51.5269 23.3613 51.4503 23.5462 51.4503 23.7389C51.4503 23.9316 51.5269 24.1165 51.6632 24.2528C51.7995 24.3891 51.9843 24.4656 52.177 24.4656Z" fill="#142929"/>
<path d="M52.177 34.4236H99.2578C99.4505 34.4236 99.6354 34.347 99.7716 34.2108C99.9079 34.0745 99.9845 33.8896 99.9845 33.6969C99.9845 33.5042 99.9079 33.3193 99.7716 33.1831C99.6354 33.0468 99.4505 32.9702 99.2578 32.9702H52.177C51.9843 32.9702 51.7995 33.0468 51.6632 33.1831C51.5269 33.3193 51.4503 33.5042 51.4503 33.6969C51.4503 33.8896 51.5269 34.0745 51.6632 34.2108C51.7995 34.347 51.9843 34.4236 52.177 34.4236Z" fill="#142929"/>
<path d="M52.177 44.3841H70.9235C71.1162 44.3841 71.3011 44.3075 71.4374 44.1712C71.5736 44.0349 71.6502 43.8501 71.6502 43.6574C71.6502 43.4646 71.5736 43.2798 71.4374 43.1435C71.3011 43.0072 71.1162 42.9307 70.9235 42.9307H52.177C51.9843 42.9307 51.7995 43.0072 51.6632 43.1435C51.5269 43.2798 51.4503 43.4646 51.4503 43.6574C51.4503 43.8501 51.5269 44.0349 51.6632 44.1712C51.7995 44.3075 51.9843 44.3841 52.177 44.3841Z" fill="#142929"/>
<path d="M35.8136 121.295H56.0216C56.2143 121.295 56.3991 121.218 56.5354 121.082C56.6717 120.946 56.7483 120.761 56.7483 120.568V100.361C56.7477 100.218 56.7048 100.078 56.6247 99.9584C56.5447 99.8392 56.4313 99.7463 56.2986 99.6915C56.1659 99.6366 56.02 99.6222 55.8792 99.6501C55.7383 99.6779 55.6089 99.7468 55.5071 99.848L35.2968 120.054C35.1954 120.156 35.1264 120.285 35.0987 120.427C35.0709 120.568 35.0856 120.714 35.1409 120.847C35.1962 120.98 35.2896 121.093 35.4094 121.173C35.5291 121.253 35.6697 121.295 35.8136 121.295ZM55.2949 102.116V119.841H37.5681L55.2949 102.116Z" fill="#142929"/>
<path d="M335.346 31.468H435.096C435.191 31.468 435.286 31.4492 435.374 31.4127C435.462 31.3762 435.542 31.3227 435.61 31.2552C435.677 31.1877 435.731 31.1076 435.767 31.0194C435.804 30.9313 435.823 30.8368 435.823 30.7413C435.823 30.6459 435.804 30.5514 435.767 30.4632C435.731 30.3751 435.677 30.295 435.61 30.2275C435.542 30.16 435.462 30.1065 435.374 30.07C435.286 30.0334 435.191 30.0146 435.096 30.0146H335.346C335.153 30.0146 334.968 30.0912 334.832 30.2275C334.696 30.3638 334.619 30.5486 334.619 30.7413C334.619 30.9341 334.696 31.1189 334.832 31.2552C334.968 31.3915 335.153 31.468 335.346 31.468Z" fill="#142929"/>
<path d="M447.227 348.394C447.42 348.394 447.605 348.317 447.741 348.181C447.877 348.045 447.954 347.86 447.954 347.667C447.954 347.474 447.877 347.29 447.741 347.153C447.605 347.017 447.42 346.94 447.227 346.94H389.808C389.615 346.94 389.43 347.017 389.294 347.153C389.157 347.29 389.081 347.474 389.081 347.667C389.081 347.86 389.157 348.045 389.294 348.181C389.43 348.317 389.615 348.394 389.808 348.394H447.227Z" fill="#142929"/>
<path d="M332.781 209.259C332.781 210.23 333.069 211.18 333.608 211.987C334.148 212.795 334.915 213.424 335.812 213.796C336.709 214.168 337.697 214.266 338.649 214.076C339.602 213.887 340.477 213.419 341.164 212.733C341.85 212.046 342.318 211.171 342.508 210.218C342.697 209.266 342.6 208.278 342.229 207.381C341.857 206.484 341.228 205.717 340.42 205.177C339.612 204.638 338.663 204.35 337.692 204.35C336.391 204.353 335.144 204.871 334.223 205.791C333.303 206.711 332.785 207.958 332.781 209.259Z" fill="#3B8F6E"/>
<path d="M468.22 96.1665C467.648 96.1671 467.101 96.3943 466.697 96.7983C466.293 97.2022 466.065 97.7499 466.065 98.3212V105.963C466.066 106.534 466.293 107.082 466.697 107.485C467.101 107.889 467.648 108.116 468.22 108.117H475.859C476.43 108.116 476.978 107.889 477.382 107.485C477.786 107.082 478.013 106.534 478.014 105.963V98.327C478.013 97.7557 477.786 97.208 477.382 96.804C476.978 96.4001 476.43 96.1729 475.859 96.1723L468.22 96.1665ZM476.56 98.3212V105.963C476.56 106.149 476.486 106.327 476.354 106.458C476.223 106.589 476.045 106.663 475.859 106.663H468.22C468.034 106.663 467.856 106.589 467.724 106.458C467.593 106.327 467.519 106.149 467.518 105.963V98.327C467.519 98.1411 467.593 97.9629 467.724 97.8314C467.855 97.7 468.034 97.626 468.22 97.6257H475.859C476.045 97.626 476.223 97.7 476.355 97.8314C476.486 97.9629 476.56 98.1411 476.56 98.327V98.3212Z" fill="#142929"/>
<path d="M170.546 38.418C169.984 38.4177 169.435 38.584 168.968 38.8958C168.501 39.2076 168.137 39.6509 167.922 40.1696C167.707 40.6883 167.651 41.2591 167.76 41.8098C167.869 42.3605 168.14 42.8665 168.537 43.2636C168.934 43.6607 169.439 43.9312 169.99 44.0408C170.541 44.1504 171.112 44.0943 171.63 43.8795C172.149 43.6646 172.593 43.3008 172.905 42.8339C173.217 42.3671 173.383 41.8182 173.383 41.2567C173.383 40.5041 173.084 39.7824 172.552 39.2502C172.02 38.7179 171.298 38.4186 170.546 38.418Z" fill="#3B8F6E"/>
<path d="M184.458 38.418C183.896 38.4177 183.347 38.584 182.88 38.8958C182.413 39.2076 182.049 39.6509 181.834 40.1696C181.619 40.6883 181.563 41.2591 181.672 41.8098C181.782 42.3605 182.052 42.8665 182.449 43.2636C182.846 43.6607 183.352 43.9312 183.902 44.0408C184.453 44.1504 185.024 44.0943 185.543 43.8795C186.061 43.6646 186.505 43.3008 186.817 42.8339C187.129 42.3671 187.295 41.8182 187.295 41.2567C187.295 40.5042 186.996 39.7827 186.464 39.2505C185.932 38.7183 185.21 38.4189 184.458 38.418Z" fill="#3B8F6E"/>
<path d="M170.546 49.5898C169.984 49.5896 169.435 49.7559 168.968 50.0677C168.501 50.3795 168.137 50.8228 167.922 51.3415C167.707 51.8601 167.651 52.4309 167.76 52.9817C167.869 53.5324 168.14 54.0383 168.537 54.4355C168.934 54.8326 169.439 55.1031 169.99 55.2127C170.541 55.3223 171.112 55.2662 171.63 55.0513C172.149 54.8365 172.593 54.4727 172.905 54.0058C173.217 53.539 173.383 52.9901 173.383 52.4286C173.383 51.676 173.084 50.9543 172.552 50.422C172.02 49.8898 171.298 49.5905 170.546 49.5898Z" fill="#3B8F6E"/>
<path d="M184.458 49.5898C183.896 49.5896 183.347 49.7559 182.88 50.0677C182.413 50.3795 182.049 50.8228 181.834 51.3415C181.619 51.8601 181.563 52.4309 181.672 52.9817C181.782 53.5324 182.052 54.0383 182.449 54.4355C182.846 54.8326 183.352 55.1031 183.902 55.2127C184.453 55.3223 185.024 55.2662 185.543 55.0513C186.061 54.8365 186.505 54.4727 186.817 54.0058C187.129 53.539 187.295 52.9901 187.295 52.4286C187.295 51.6761 186.996 50.9546 186.464 50.4224C185.932 49.8902 185.21 49.5908 184.458 49.5898Z" fill="#3B8F6E"/>
<path d="M288.409 85.9634H237.705C237.512 85.9634 237.328 86.04 237.191 86.1762C237.055 86.3125 236.978 86.4973 236.978 86.6901C236.978 86.8828 237.055 87.0677 237.191 87.2039C237.328 87.3402 237.512 87.4168 237.705 87.4168H288.409C288.602 87.4168 288.787 87.3402 288.923 87.2039C289.059 87.0677 289.136 86.8828 289.136 86.6901C289.136 86.4973 289.059 86.3125 288.923 86.1762C288.787 86.04 288.602 85.9634 288.409 85.9634Z" fill="#142929"/>
<path d="M319.8 71.7231H237.705C237.512 71.7231 237.328 71.7997 237.191 71.936C237.055 72.0723 236.978 72.2571 236.978 72.4498C236.978 72.6426 237.055 72.8274 237.191 72.9637C237.328 73.1 237.512 73.1765 237.705 73.1765H319.8C319.895 73.1765 319.99 73.1577 320.078 73.1212C320.166 73.0847 320.246 73.0312 320.314 72.9637C320.381 72.8962 320.435 72.8161 320.471 72.7279C320.508 72.6398 320.527 72.5453 320.527 72.4498C320.527 72.3544 320.508 72.2599 320.471 72.1718C320.435 72.0836 320.381 72.0035 320.314 71.936C320.246 71.8685 320.166 71.815 320.078 71.7785C319.99 71.7419 319.895 71.7231 319.8 71.7231Z" fill="#142929"/>
<path d="M338.635 57.4805H237.705C237.512 57.4805 237.328 57.557 237.191 57.6933C237.055 57.8296 236.978 58.0144 236.978 58.2072C236.978 58.3999 237.055 58.5847 237.191 58.721C237.328 58.8573 237.512 58.9339 237.705 58.9339H338.635C338.828 58.9339 339.013 58.8573 339.149 58.721C339.285 58.5847 339.362 58.3999 339.362 58.2072C339.362 58.0144 339.285 57.8296 339.149 57.6933C339.013 57.557 338.828 57.4805 338.635 57.4805Z" fill="#142929"/>
</g>
<defs>
<clipPath id="clip0_313_327">
<rect width="496" height="373.599" fill="white"/>
</clipPath>
</defs>
</svg>
