<svg width="46" height="53" viewBox="0 0 46 53" fill="none" xmlns="http://www.w3.org/2000/svg">
<ellipse cx="43.7554" cy="26.0218" rx="1.73479" ry="6.74642" fill="white"/>
<path fill-rule="evenodd" clip-rule="evenodd" d="M12.9082 4.28711C5.1327 8.96073 0 17.0042 0 26.1429C0 35.2817 5.13283 43.3253 12.9085 47.9989C8.57891 43.3253 5.72087 35.2817 5.72087 26.1428C5.72087 17.0042 8.57877 8.96074 12.9082 4.28711Z" fill="white"/>
<path fill-rule="evenodd" clip-rule="evenodd" d="M31.8935 50.2457C36.0543 50.2457 39.4273 39.5529 39.4273 26.3626C39.4273 13.1723 36.0543 2.47949 31.8935 2.47949C27.7327 2.47949 24.3597 13.1723 24.3597 26.3626C24.3597 39.5529 27.7327 50.2457 31.8935 50.2457ZM33.3469 42.7915C36.0083 42.7915 38.1658 35.4561 38.1658 26.4073C38.1658 17.3586 36.0083 10.0232 33.3469 10.0232C30.6855 10.0232 28.5281 17.3586 28.5281 26.4073C28.5281 35.4561 30.6855 42.7915 33.3469 42.7915Z" fill="white"/>
<path fill-rule="evenodd" clip-rule="evenodd" d="M26.8226 6.78668C25.8818 5.40251 24.8253 4.6261 23.709 4.6261C19.7701 4.6261 16.577 14.2916 16.577 26.2147C16.577 38.1377 19.7701 47.8032 23.709 47.8032C24.9113 47.8032 26.0442 46.9026 27.0379 45.312C25.5144 49.9013 23.439 52.7252 21.1517 52.7252C16.4757 52.7252 12.6851 40.9223 12.6851 26.3626C12.6851 11.8029 16.4757 0 21.1517 0C23.333 0 25.3216 2.5683 26.8226 6.78668Z" fill="white"/>
</svg>
