<svg width="72" height="72" viewBox="0 0 72 72" fill="none" xmlns="http://www.w3.org/2000/svg">
<path d="M50.4696 26.8845C51.0522 26.8845 51.5243 26.4123 51.5243 25.8299V20.4625L52.157 21.1379C52.3647 21.3597 52.6455 21.4716 52.927 21.4716C53.1854 21.4716 53.4444 21.3772 53.6477 21.1867C54.073 20.7886 54.0948 20.121 53.6965 19.6959L51.2394 17.0729C51.04 16.86 50.7614 16.7392 50.4696 16.7392C50.1778 16.7392 49.8992 16.86 49.6998 17.0729L47.2427 19.6959C46.8444 20.121 46.8664 20.7885 47.2915 21.1867C47.7167 21.5851 48.3841 21.5629 48.7823 21.138L49.4149 20.4626V25.83C49.4149 26.4125 49.887 26.8845 50.4696 26.8845Z" fill="black"/>
<path d="M50.4695 12.5478C45.3215 12.5478 41.1334 16.7037 41.1334 21.8121C41.1334 26.9204 45.3216 31.0763 50.4695 31.0763C52.552 31.0763 54.5225 30.4106 56.1679 29.1509C56.6304 28.7968 56.7183 28.1348 56.3642 27.6723C56.0101 27.2098 55.3482 27.1219 54.8855 27.476C53.6116 28.4514 52.0844 28.9669 50.4695 28.9669C46.4847 28.9669 43.2427 25.7573 43.2427 21.8121C43.2427 17.8668 46.4847 14.6572 50.4695 14.6572C54.4542 14.6572 57.6962 17.8668 57.6962 21.8121C57.6962 22.8618 57.4722 23.8726 57.0302 24.8167C56.7832 25.3441 57.0106 25.972 57.5383 26.219C58.0659 26.466 58.6936 26.2385 58.9407 25.7109C59.5146 24.4848 59.8055 23.173 59.8055 21.8119C59.8055 16.7036 55.6175 12.5478 50.4695 12.5478Z" fill="black"/>
<path d="M15.8804 47.6657C15.4204 46.1038 13.9666 44.9592 12.2482 44.9592C10.1611 44.9592 8.46338 46.6464 8.46338 48.7204C8.46338 50.7943 10.1611 52.4815 12.2482 52.4815C13.9667 52.4815 15.4204 51.337 15.8804 49.7751H29.9938C30.5764 49.7751 31.0485 49.3028 31.0485 48.7204C31.0485 48.1379 30.5764 47.6657 29.9938 47.6657H15.8804ZM12.2482 50.3722C11.3244 50.3722 10.5728 49.6312 10.5728 48.7204C10.5728 47.8095 11.3244 47.0686 12.2482 47.0686C13.1719 47.0686 13.9236 47.8095 13.9236 48.7204C13.9236 49.6312 13.1719 50.3722 12.2482 50.3722Z" fill="black"/>
<path d="M70.635 56.126V18.3871C70.635 17.0594 69.5495 15.9792 68.2152 15.9792H62.4419C60.2647 11.599 55.7163 8.57812 50.4696 8.57812C43.1138 8.57812 37.1295 14.5147 37.1295 21.8119C37.1295 26.187 39.2813 30.0724 42.5897 32.4831V43.9668C42.5897 44.587 42.9254 45.1631 43.4656 45.4704C44.009 45.7795 44.6802 45.7729 45.2171 45.4534L50.4696 42.3293L55.7221 45.4534C55.9956 45.6161 56.304 45.6976 56.6125 45.6976C56.9095 45.6976 57.2071 45.622 57.4736 45.4704C58.014 45.163 58.3495 44.5868 58.3495 43.9668V40.3026H62.755C63.3376 40.3026 63.8097 39.8303 63.8097 39.2479C63.8097 38.6654 63.3376 38.1932 62.755 38.1932H58.3495V32.4832C61.4694 30.2099 63.5602 26.625 63.7883 22.5546H68.5256V55.8998H3.47442V22.5543H34.5438C35.1264 22.5543 35.5985 22.0821 35.5985 21.4996C35.5985 20.9171 35.1264 20.4449 34.5438 20.4449H3.47442V18.3871C3.47442 18.2225 3.61364 18.0886 3.78478 18.0886H35.226C35.8086 18.0886 36.2807 17.6164 36.2807 17.0339C36.2807 16.4514 35.8086 15.9792 35.226 15.9792H3.78478C2.45053 15.9792 1.36505 17.0594 1.36505 18.3871V56.126C0.559828 56.504 0 57.3172 0 58.2602C0 59.0812 0.418078 59.8303 1.11839 60.2643C4.45233 62.3301 8.29252 63.4219 12.2237 63.4219H59.7763C63.7075 63.4219 67.5477 62.3301 70.8816 60.2643C71.5819 59.8303 72 59.0812 72 58.2602C72 57.3172 71.4402 56.504 70.635 56.126ZM56.2402 43.3072L51.36 40.4045C50.8108 40.0777 50.1283 40.0777 49.5793 40.4045L44.6991 43.3073V33.7424C46.4463 34.5774 48.4038 35.0457 50.4696 35.0457C52.5354 35.0457 54.4929 34.5774 56.2402 33.7424V43.3072ZM50.4696 32.9362C44.2769 32.9362 39.2389 27.9458 39.2389 21.8119C39.2389 15.678 44.2768 10.6875 50.4696 10.6875C56.6625 10.6875 61.7003 15.6779 61.7003 21.8119C61.7003 27.946 56.6623 32.9362 50.4696 32.9362ZM63.7388 20.4449C63.6548 19.6357 63.4963 18.8483 63.2714 18.0886H68.2152C68.3864 18.0886 68.5256 18.2226 68.5256 18.3871V20.4449H63.7388ZM69.7705 58.4712C66.7706 60.33 63.3146 61.3125 59.7763 61.3125H12.2237C8.68542 61.3125 5.22942 60.33 2.22947 58.4712C2.15438 58.4246 2.10938 58.3457 2.10938 58.2602C2.10938 58.1217 2.22722 58.0089 2.37206 58.0089H2.41158C2.41439 58.0089 2.41706 58.0094 2.41973 58.0094C2.42241 58.0094 2.42508 58.0089 2.42789 58.0089H27.4375V59.3449C27.4375 59.9273 27.9096 60.3996 28.4922 60.3996C29.0748 60.3996 29.5469 59.9273 29.5469 59.3449V58.0089H42.453V59.3449C42.453 59.9273 42.9251 60.3996 43.5077 60.3996C44.0903 60.3996 44.5624 59.9273 44.5624 59.3449V58.0089H69.6278C69.7726 58.0089 69.8905 58.1217 69.8905 58.2602C69.8906 58.3459 69.8458 58.4246 69.7705 58.4712Z" fill="black"/>
<path d="M12.2482 33.5362C13.9667 33.5362 15.4204 32.3917 15.8804 30.8298H34.0889C34.6715 30.8298 35.1436 30.3576 35.1436 29.7751C35.1436 29.1926 34.6715 28.7204 34.0889 28.7204H15.8804C15.4204 27.1585 13.9666 26.0139 12.2482 26.0139C10.1611 26.0139 8.46338 27.7012 8.46338 29.7751C8.46338 31.849 10.1611 33.5362 12.2482 33.5362ZM12.2482 28.1233C13.1719 28.1233 13.9236 28.8643 13.9236 29.7751C13.9236 30.6859 13.1719 31.4269 12.2482 31.4269C11.3244 31.4269 10.5728 30.6859 10.5728 29.7751C10.5728 28.8643 11.3243 28.1233 12.2482 28.1233Z" fill="black"/>
<path d="M41.491 39.2477C41.491 38.6653 41.0189 38.193 40.4363 38.193H15.8804C15.4204 36.6311 13.9666 35.4866 12.2482 35.4866C10.1611 35.4866 8.46338 37.1738 8.46338 39.2477C8.46338 41.3217 10.1611 43.0089 12.2482 43.0089C13.9667 43.0089 15.4204 41.8643 15.8804 40.3024H40.4363C41.0188 40.3024 41.491 39.8302 41.491 39.2477ZM12.2482 40.8995C11.3244 40.8995 10.5728 40.1586 10.5728 39.2477C10.5728 38.3369 11.3244 37.596 12.2482 37.596C13.1719 37.596 13.9236 38.3369 13.9236 39.2477C13.9236 40.1586 13.1719 40.8995 12.2482 40.8995Z" fill="black"/>
</svg>
