<svg width="72" height="72" viewBox="0 0 72 72" fill="none" xmlns="http://www.w3.org/2000/svg">
<g clip-path="url(#clip0_322_106)">
<path d="M36 0C25.1525 0 16.3273 8.83015 16.3273 19.6838C16.3273 30.5377 25.1525 39.3679 36 39.3679C46.8477 39.3679 55.6728 30.5377 55.6728 19.6838C55.6728 8.83015 46.8477 0 36 0ZM48.8236 6.86739C47.1577 7.60908 45.4497 8.2 43.7165 8.64046C42.8284 5.816 41.6031 3.52815 40.1522 2.01892C43.4911 2.80462 46.4767 4.51662 48.8236 6.86739ZM36 1.53846C38.5036 1.53846 40.7745 4.504 42.1977 8.988C38.1027 9.81569 33.8973 9.81569 29.8022 8.988C31.2254 4.504 33.4965 1.53846 36 1.53846ZM43.7243 18.9146H28.2756C28.3331 15.8568 28.7317 12.9669 29.3816 10.4534C33.7413 11.3505 38.258 11.3508 42.6182 10.4532C43.2682 12.9669 43.6668 15.8566 43.7243 18.9146ZM43.724 20.4531C43.6663 23.512 43.2683 26.4032 42.618 28.9174C38.259 28.0169 33.7408 28.0169 29.3817 28.9174C28.7314 26.4032 28.3334 23.512 28.2757 20.4531H43.724ZM28.2834 8.64062C26.5502 8.2 24.8423 7.60908 23.1765 6.86754C25.523 4.51723 28.5082 2.80523 31.8467 2.01938C30.3962 3.52862 29.1713 5.81646 28.2834 8.64062ZM22.0865 31.3077C19.4533 28.1571 17.8657 24.1026 17.8657 19.6838C17.8657 15.2651 19.4527 11.2103 22.0859 8.05985C23.9414 8.918 25.8799 9.60339 27.8657 10.1062C27.1937 12.7178 26.7917 15.7058 26.7363 18.9146H20.9427C20.5179 18.9146 20.1734 19.2589 20.1734 19.6838C20.1734 20.1088 20.5179 20.4531 20.9427 20.4531H26.7367C26.7922 23.6617 27.1927 26.6514 27.8645 29.2634C25.8799 29.7665 23.9411 30.45 22.0865 31.3077ZM23.1756 32.5011C24.8414 31.7594 26.5497 31.1711 28.283 30.7306C29.1708 33.5549 30.3967 35.8397 31.8471 37.3488C28.5083 36.5629 25.5222 34.8519 23.1756 32.5011ZM36 37.8295C33.4973 37.8295 31.2267 34.8659 29.8031 30.384C33.8976 29.5571 38.1019 29.5578 42.1962 30.386C40.7728 34.8668 38.5025 37.8295 36 37.8295ZM40.153 37.3488C41.6031 35.8402 42.8287 33.5563 43.7163 30.7332C45.4488 31.1739 47.1568 31.7623 48.822 32.5037C46.4757 34.8531 43.4905 36.5632 40.153 37.3488ZM44.1354 29.2634C44.8073 26.6514 45.2077 23.6617 45.2633 20.4531H51.0574C51.4823 20.4531 51.8267 20.1088 51.8267 19.6838C51.8267 19.2589 51.4823 18.9146 51.0574 18.9146H45.2637C45.2083 15.7055 44.8062 12.7174 44.1342 10.1058C46.1188 9.60323 48.0571 8.91815 49.914 8.05969C52.5474 11.2102 54.1343 15.2649 54.1343 19.6838C54.1343 24.1028 52.5468 28.1571 49.9136 31.3077C48.0588 30.45 46.1202 29.7666 44.1354 29.2634Z" fill="#292929"/>
<path d="M22.0045 50.3008H3.84615C1.72538 50.3008 0 52.0262 0 54.1469V71.2308C0 71.6557 0.344462 72 0.769231 72H25.0814C25.5062 72 25.8506 71.6557 25.8506 71.2308V54.1469C25.8506 52.0262 24.1252 50.3008 22.0045 50.3008ZM24.3122 70.4616H1.53846V54.1469C1.53846 52.8745 2.57369 51.8392 3.84615 51.8392H9.98231L8.12323 60.008C8.06754 60.2526 8.13477 60.5091 8.30308 60.6951L12.3552 65.17C12.6445 65.5042 13.2063 65.5042 13.4955 65.17L17.5477 60.6951C17.716 60.5091 17.7832 60.2526 17.7275 60.008L16.3297 53.866C16.2354 53.4519 15.8231 53.1926 15.4089 53.2866C14.9946 53.3808 14.7352 53.7931 14.8295 54.2072L16.1386 59.9589L12.9254 63.5074L9.71215 59.9589L11.5602 51.8392H22.0045C23.2769 51.8392 24.3122 52.8745 24.3122 54.1469V70.4616Z" fill="#292929"/>
<path d="M12.9253 48.1345C8.99011 48.1345 5.78857 44.9312 5.78857 40.994C5.78857 37.0568 8.99011 33.8535 12.9253 33.8535C16.8606 33.8535 20.0621 37.0568 20.0621 40.994C20.0621 44.9312 16.8604 48.1345 12.9253 48.1345ZM12.9253 35.392C9.83842 35.392 7.32704 37.9051 7.32704 40.994C7.32704 44.0829 9.83842 46.596 12.9253 46.596C16.0123 46.596 18.5237 44.0829 18.5237 40.994C18.5237 37.9051 16.0123 35.392 12.9253 35.392Z" fill="#292929"/>
<path d="M49.461 65.7961C49.0361 65.7961 48.6918 65.4518 48.6918 65.0269V63.5763C48.6918 63.1514 49.0361 62.8071 49.461 62.8071C49.8859 62.8071 50.2302 63.1514 50.2302 63.5763V65.0269C50.2302 65.4518 49.8859 65.7961 49.461 65.7961Z" fill="#292929"/>
<path d="M54.9724 65.7961C54.5474 65.7961 54.2031 65.4518 54.2031 65.0269V63.5763C54.2031 63.1514 54.5474 62.8071 54.9724 62.8071C55.3973 62.8071 55.7416 63.1514 55.7416 63.5763V65.0269C55.7416 65.4518 55.3973 65.7961 54.9724 65.7961Z" fill="#292929"/>
<path d="M49.461 58.7349C49.0361 58.7349 48.6918 58.3906 48.6918 57.9657V56.515C48.6918 56.0901 49.0361 55.7458 49.461 55.7458C49.8859 55.7458 50.2302 56.0901 50.2302 56.515V57.9657C50.2302 58.3906 49.8859 58.7349 49.461 58.7349Z" fill="#292929"/>
<path d="M54.9724 58.7349C54.5474 58.7349 54.2031 58.3906 54.2031 57.9657V56.515C54.2031 56.0901 54.5474 55.7458 54.9724 55.7458C55.3973 55.7458 55.7416 56.0901 55.7416 56.515V57.9657C55.7416 58.3906 55.3973 58.7349 54.9724 58.7349Z" fill="#292929"/>
<path d="M49.461 51.8418C49.0361 51.8418 48.6918 51.4975 48.6918 51.0726V49.622C48.6918 49.1971 49.0361 48.8528 49.461 48.8528C49.8859 48.8528 50.2302 49.1971 50.2302 49.622V51.0726C50.2302 51.4974 49.8859 51.8418 49.461 51.8418Z" fill="#292929"/>
<path d="M54.9724 51.8418C54.5474 51.8418 54.2031 51.4975 54.2031 51.0726V49.622C54.2031 49.1971 54.5474 48.8528 54.9724 48.8528C55.3973 48.8528 55.7416 49.1971 55.7416 49.622V51.0726C55.7416 51.4974 55.3973 51.8418 54.9724 51.8418Z" fill="#292929"/>
<path d="M64.6173 65.7961C64.1923 65.7961 63.848 65.4518 63.848 65.0269V63.5763C63.848 63.1514 64.1923 62.8071 64.6173 62.8071C65.0422 62.8071 65.3865 63.1514 65.3865 63.5763V65.0269C65.3865 65.4518 65.042 65.7961 64.6173 65.7961Z" fill="#292929"/>
<path d="M64.6173 58.7349C64.1923 58.7349 63.848 58.3906 63.848 57.9657V56.5151C63.848 56.0902 64.1923 55.7458 64.6173 55.7458C65.0422 55.7458 65.3865 56.0902 65.3865 56.5151V57.9657C65.3865 58.3906 65.042 58.7349 64.6173 58.7349Z" fill="#292929"/>
<path d="M39.8162 65.7961C39.3913 65.7961 39.047 65.4518 39.047 65.0269V63.5763C39.047 63.1514 39.3913 62.8071 39.8162 62.8071C40.2412 62.8071 40.5855 63.1514 40.5855 63.5763V65.0269C40.5855 65.4518 40.241 65.7961 39.8162 65.7961Z" fill="#292929"/>
<path d="M39.8162 58.7349C39.3913 58.7349 39.047 58.3906 39.047 57.9657V56.5151C39.047 56.0902 39.3913 55.7458 39.8162 55.7458C40.2412 55.7458 40.5855 56.0902 40.5855 56.5151V57.9657C40.5855 58.3906 40.241 58.7349 39.8162 58.7349Z" fill="#292929"/>
<path d="M71.2308 70.4615H70.2088V51.8483C70.2088 50.5766 69.1747 49.5421 67.9036 49.5421H64.4102C63.9853 49.5421 63.641 49.8865 63.641 50.3114C63.641 50.7363 63.9853 51.0806 64.4102 51.0806H67.9036C68.3264 51.0806 68.6704 51.4249 68.6704 51.8483V70.4615H60.5641V45.6443C60.5641 44.3726 59.5299 43.3382 58.2588 43.3382H57.3951V41.6177C57.3951 40.3452 56.3599 39.31 55.0874 39.31H49.3462C48.0737 39.31 47.0385 40.3452 47.0385 41.6177V43.3382H46.1748C44.9036 43.3382 43.8696 44.3728 43.8696 45.6443V70.4615H35.7633V51.8483C35.7633 51.4249 36.1073 51.0806 36.5301 51.0806H40.0234C40.4484 51.0806 40.7927 50.7363 40.7927 50.3114C40.7927 49.8865 40.4484 49.5421 40.0234 49.5421H36.5301C35.259 49.5421 34.2248 50.5768 34.2248 51.8483V70.4615H33.2028C32.7781 70.4615 32.4336 70.8058 32.4336 71.2308C32.4336 71.6557 32.7781 72 33.2028 72H71.2308C71.6558 72 72.0001 71.6557 72.0001 71.2308C72.0001 70.8058 71.6558 70.4615 71.2308 70.4615ZM48.5768 41.6178C48.5768 41.1937 48.9219 40.8486 49.3461 40.8486H55.0873C55.5114 40.8486 55.8565 41.1937 55.8565 41.6178V43.3383H48.5768V41.6178ZM59.0256 70.4615H45.4077V45.6443C45.4077 45.2209 45.7517 44.8766 46.1745 44.8766H58.2587C58.6814 44.8766 59.0254 45.2209 59.0254 45.6443L59.0256 70.4615Z" fill="#292929"/>
<path d="M40.1536 44.4463H30.9293L32.0265 43.5486C32.3553 43.2795 32.4038 42.7949 32.1347 42.4662C31.8656 42.1374 31.3812 42.0889 31.0522 42.3578L28.2873 44.6202C27.9122 44.9118 27.9158 45.5292 28.2942 45.8165L31.0592 48.0258C31.3888 48.2897 31.8738 48.2385 32.1404 47.9051C32.4056 47.5732 32.3516 47.0891 32.0196 46.824L30.9693 45.9848H40.1536C40.5785 45.9848 40.9228 45.6405 40.9228 45.2155C40.9228 44.7906 40.5785 44.4463 40.1536 44.4463Z" fill="#292929"/>
<path d="M13.2182 15.7468L10.4535 13.5372C10.1213 13.272 9.63761 13.3263 9.37222 13.658C9.10699 13.9898 9.16099 14.474 9.49299 14.7391L10.5433 15.5783H6.58161C6.15684 15.5783 5.81238 15.9226 5.81238 16.3475V25.1428C5.81238 25.5677 6.15684 25.912 6.58161 25.912C7.00638 25.912 7.35084 25.5677 7.35084 25.1428V17.1169H10.5831L9.48592 18.0146C9.15715 18.2837 9.10869 18.7683 9.37776 19.0971C9.64792 19.4274 10.1335 19.4731 10.4602 19.2054L13.2251 16.9431C13.6004 16.6514 13.5968 16.034 13.2182 15.7468Z" fill="#292929"/>
<path d="M6.61386 30.086C7.20948 30.086 7.69232 29.6039 7.69232 29.0092C7.69232 28.4145 7.20948 27.9324 6.61386 27.9324C6.01824 27.9324 5.5354 28.4145 5.5354 29.0092C5.5354 29.6039 6.01824 30.086 6.61386 30.086Z" fill="#292929"/>
<path d="M67.7142 24.8577C67.3854 24.5887 66.9008 24.6375 66.6319 24.9664L65.7356 26.063V16.3477C65.7356 15.9227 65.3913 15.5784 64.9663 15.5784H61.989C61.564 15.5784 61.2197 15.9227 61.2197 16.3477C61.2197 16.7726 61.564 17.1169 61.989 17.1169H64.1971V26.0229L63.3596 24.9734C63.0942 24.6412 62.6105 24.5872 62.2785 24.852C61.9465 25.117 61.892 25.601 62.1571 25.933L64.3653 28.6995C64.6525 29.0784 65.2705 29.0821 65.562 28.7064L67.8231 25.94C68.0919 25.6112 68.0431 25.1264 67.7142 24.8577Z" fill="#292929"/>
<path d="M58.8075 17.4509C59.4031 17.4509 59.8859 16.9688 59.8859 16.3741C59.8859 15.7794 59.4031 15.2974 58.8075 15.2974C58.2118 15.2974 57.729 15.7794 57.729 16.3741C57.729 16.9688 58.2118 17.4509 58.8075 17.4509Z" fill="#292929"/>
</g>
<defs>
<clipPath id="clip0_322_106">
<rect width="72" height="72" fill="white"/>
</clipPath>
</defs>
</svg>
