<svg width="72" height="72" viewBox="0 0 72 72" fill="none" xmlns="http://www.w3.org/2000/svg">
<path d="M12.4588 36.5731V39.433H13.8844V36.5731C14.7167 36.2794 15.3158 35.4845 15.3158 34.5543V25.4679C15.3158 24.5347 14.7167 23.7427 13.8844 23.449V20.592H12.4588V23.449C11.6265 23.7427 11.0275 24.5376 11.0275 25.4679V34.5514C11.0275 35.4845 11.6265 36.2794 12.4588 36.5731ZM12.4531 25.4679C12.4531 25.0704 12.7756 24.7479 13.1731 24.7479C13.5705 24.7479 13.8931 25.0704 13.8931 25.4679V34.5514C13.8931 34.9488 13.5705 35.2714 13.1731 35.2714C12.7756 35.2714 12.4531 34.9488 12.4531 34.5514V25.4679Z" fill="#292929"/>
<path d="M28.1779 29.2061V32.0631H29.6035V29.2061C30.4359 28.9123 31.0349 28.1175 31.0349 27.1872V21.2775C31.0349 20.3443 30.4359 19.5523 29.6035 19.2586V16.4016H28.1779V19.2586C27.3456 19.5523 26.7466 20.3472 26.7466 21.2775V27.1843C26.7466 28.1175 27.3456 28.9095 28.1779 29.2061ZM28.1722 21.2775C28.1722 20.88 28.4947 20.5575 28.8922 20.5575C29.2896 20.5575 29.6122 20.88 29.6122 21.2775V27.1843C29.6122 27.5818 29.2896 27.9043 28.8922 27.9043C28.4947 27.9043 28.1722 27.5818 28.1722 27.1843V21.2775Z" fill="#292929"/>
<path d="M36.6076 37.3536V40.2106H38.0332V37.3536C38.8655 37.0599 39.4646 36.265 39.4646 35.3347V23.9127C39.4646 22.9795 38.8655 22.1875 38.0332 21.8938V19.0368H36.6076V21.8938C35.7753 22.1875 35.1763 22.9824 35.1763 23.9127V35.3347C35.1763 36.2679 35.7753 37.0599 36.6076 37.3536ZM36.6019 23.9127C36.6019 23.5152 36.9244 23.1927 37.3219 23.1927C37.7193 23.1927 38.0419 23.5152 38.0419 23.9127V35.3347C38.0419 35.7322 37.7193 36.0547 37.3219 36.0547C36.9244 36.0547 36.6019 35.7322 36.6019 35.3347V23.9127Z" fill="#292929"/>
<path d="M20.3183 39.0499V41.9098H21.7439V39.0499C22.5762 38.7562 23.1753 37.9613 23.1753 37.0311V33.745C23.1753 32.8119 22.5762 32.0199 21.7439 31.7261V28.8663H20.3183V31.7261C19.486 32.0199 18.887 32.8147 18.887 33.745V37.0311C18.887 37.9613 19.486 38.7562 20.3183 39.0499ZM20.3126 33.7421C20.3126 33.3447 20.6351 33.0221 21.0326 33.0221C21.43 33.0221 21.7526 33.3447 21.7526 33.7421V37.0282C21.7526 37.4256 21.43 37.7482 21.0326 37.7482C20.6351 37.7482 20.3126 37.4256 20.3126 37.0282V33.7421Z" fill="#292929"/>
<path d="M44.4671 27.4954V30.3552H45.8927V27.4954C46.725 27.2016 47.3241 26.4067 47.3241 25.4765V17.7178C47.3241 16.7847 46.725 15.9927 45.8927 15.6989V12.8419H44.4671V15.696C43.6348 15.9898 43.0358 16.7847 43.0358 17.7149V25.4765C43.0386 26.4096 43.6348 27.2016 44.4671 27.4954ZM44.4614 17.7178C44.4614 17.3203 44.7839 16.9978 45.1814 16.9978C45.5788 16.9978 45.8985 17.3203 45.8985 17.7178V25.4794C45.8985 25.8768 45.5759 26.1994 45.1814 26.1994C44.7868 26.1994 44.4614 25.8768 44.4614 25.4794V17.7178Z" fill="#292929"/>
<path d="M52.3296 26.3117V29.1687H53.7552V26.3117C54.5875 26.0179 55.1865 25.2231 55.1865 24.2928V20.2119C55.1865 19.2787 54.5875 18.4867 53.7552 18.193V15.336H52.3296V18.193C51.4972 18.4867 50.8982 19.2816 50.8982 20.2119V24.2928C50.8982 25.2231 51.4972 26.0179 52.3296 26.3117ZM52.3209 20.2119C52.3209 19.8144 52.6435 19.4919 53.0409 19.4919C53.4384 19.4919 53.7609 19.8144 53.7609 20.2119V24.2928C53.7609 24.6903 53.4384 25.0128 53.0409 25.0128C52.6435 25.0128 52.3209 24.6903 52.3209 24.2928V20.2119Z" fill="#292929"/>
<path d="M59.1465 39.6C55.7682 36.2218 50.2732 36.2218 46.8949 39.6C45.2591 41.2359 44.3577 43.4131 44.3577 45.7258C44.3577 48.0384 45.2591 50.2157 46.8949 51.8515C48.5826 53.5392 50.8031 54.3859 53.0207 54.3859C55.2383 54.3859 57.4588 53.5421 59.1465 51.8515C60.7823 50.2157 61.6837 48.0384 61.6837 45.7258C61.6837 43.4103 60.7823 41.2359 59.1465 39.6ZM58.1413 50.8435C55.3189 53.6659 50.7282 53.6659 47.9029 50.8435C46.5349 49.4755 45.7833 47.6583 45.7833 45.7258C45.7833 43.7933 46.5349 41.9731 47.9029 40.608C49.3141 39.1968 51.1689 38.4912 53.0207 38.4912C54.8754 38.4912 56.7273 39.1968 58.1385 40.608C59.5065 41.976 60.2581 43.7933 60.2581 45.7258C60.261 47.6583 59.5065 49.4755 58.1413 50.8435Z" fill="#292929"/>
<path d="M68.5181 56.8454L63.0749 51.4022C64.849 48.2602 65.0333 44.4586 63.6336 41.1782V12.9485C63.6336 11.2522 62.2541 9.87264 60.5577 9.87264H5.65055C3.95423 9.87264 2.57471 11.2522 2.57471 12.9485V51.5405C2.57471 53.2368 3.95423 54.6163 5.65055 54.6163H21.7094C20.3645 55.6762 19.4457 57.2486 19.2499 59.0371H11.9347V60.4627H19.2096H47.0016H54.2765V59.0371H46.9613C46.7654 57.2486 45.8467 55.6762 44.5017 54.6163H45.6509C47.7792 56.3846 50.4 57.2717 53.0208 57.2717C54.9821 57.2717 56.9433 56.7734 58.7001 55.7827L64.1434 61.2259C64.7453 61.8278 65.5401 62.1302 66.3322 62.1302C67.1242 62.1302 67.9162 61.8278 68.521 61.2259C69.7248 60.0163 69.7248 58.0522 68.5181 56.8454ZM45.527 59.0342H20.6841C21.0326 56.5517 23.1696 54.6365 25.7472 54.6365H40.464C43.0416 54.6365 45.1786 56.5517 45.527 59.0342ZM5.65055 11.2982H60.5577C61.4678 11.2982 62.208 12.0384 62.208 12.9485V38.7331C61.897 38.3242 61.5571 37.9325 61.1856 37.5581C56.6842 33.0566 49.3574 33.0566 44.8531 37.5581C42.287 40.1242 41.1869 43.6061 41.544 46.9613H4.00031V12.9485C4.00031 12.0384 4.74047 11.2982 5.65055 11.2982ZM4.00031 51.5376V48.3869H41.7888C42.1949 50.1149 43.0041 51.7622 44.2137 53.1878H5.65055C4.74047 53.1878 4.00031 52.4477 4.00031 51.5376ZM45.864 52.8854C41.9155 48.937 41.9155 42.5146 45.864 38.569C47.8368 36.5962 50.4288 35.6083 53.0237 35.6083C55.6157 35.6083 58.2077 36.5962 60.1833 38.569C64.1318 42.5174 64.1318 48.9398 60.1833 52.8854C56.232 56.831 49.8096 56.831 45.864 52.8854ZM67.5101 60.215C66.8592 60.8659 65.7994 60.8659 65.1485 60.215L59.9184 54.985C60.359 54.6566 60.7853 54.2909 61.1856 53.8906C61.5859 53.4902 61.9517 53.064 62.28 52.6234L67.5101 57.8534C68.161 58.5043 68.161 59.5642 67.5101 60.215Z" fill="#292929"/>
</svg>
