<svg width="72" height="72" viewBox="0 0 72 72" fill="none" xmlns="http://www.w3.org/2000/svg">
<path d="M36 2.25C33.5525 2.25 31.1599 2.97578 29.1248 4.33556C27.0898 5.69535 25.5036 7.62806 24.567 9.88929C23.6304 12.1505 23.3853 14.6387 23.8628 17.0392C24.3403 19.4398 25.5189 21.6448 27.2496 23.3754C28.9802 25.1061 31.1852 26.2847 33.5858 26.7622C35.9863 27.2397 38.4745 26.9946 40.7357 26.058C42.9969 25.1214 44.9297 23.5352 46.2894 21.5002C47.6492 19.4651 48.375 17.0725 48.375 14.625C48.3729 11.3436 47.0685 8.19717 44.7481 5.87686C42.4278 3.55655 39.2814 2.25209 36 2.25ZM46.0575 13.5H41.6025C41.5573 12.3496 41.437 11.2034 41.2425 10.0687C42.2124 9.61743 43.1199 9.04267 43.9425 8.35875C45.116 9.84006 45.849 11.6217 46.0575 13.5ZM42.3563 6.75C41.8528 7.15884 41.3102 7.51683 40.7363 7.81875C40.4875 6.92212 40.1521 6.05178 39.735 5.22C40.6793 5.59818 41.5626 6.11375 42.3563 6.75ZM36 4.5C36.855 4.5 37.9463 6.01875 38.655 8.64C37.7892 8.87372 36.8968 8.99472 36 9C35.1032 8.99472 34.2108 8.87372 33.345 8.64C34.0538 6.01875 35.145 4.5 36 4.5ZM28.0575 8.35875C28.8801 9.04267 29.7876 9.61743 30.7575 10.0687C30.563 11.2034 30.4427 12.3496 30.3975 13.5H25.9425C26.1511 11.6217 26.884 9.84006 28.0575 8.35875ZM25.9425 15.75H30.3975C30.4427 16.9004 30.563 18.0466 30.7575 19.1812C29.7876 19.6326 28.8801 20.2073 28.0575 20.8913C26.884 19.4099 26.1511 17.6283 25.9425 15.75ZM29.6438 22.5C30.1472 22.0912 30.6898 21.7332 31.2638 21.4312C31.5126 22.3279 31.8479 23.1982 32.265 24.03C31.3207 23.6518 30.4374 23.1363 29.6438 22.5ZM31.2638 7.81875C30.6898 7.51683 30.1472 7.15884 29.6438 6.75C30.4374 6.11375 31.3207 5.59818 32.265 5.22C31.8479 6.05178 31.5126 6.92212 31.2638 7.81875ZM36 24.75C35.145 24.75 34.0538 23.2312 33.345 20.61C35.0825 20.13 36.9176 20.13 38.655 20.61C37.9463 23.2312 36.855 24.75 36 24.75ZM39.105 18.405C37.0702 17.865 34.9298 17.865 32.895 18.405C32.7617 17.5255 32.679 16.639 32.6475 15.75H39.3525C39.321 16.639 39.2383 17.5255 39.105 18.405ZM32.6475 13.5C32.679 12.611 32.7617 11.7245 32.895 10.845C33.9088 11.1103 34.9521 11.2464 36 11.25C37.0479 11.2464 38.0912 11.1103 39.105 10.845C39.2383 11.7245 39.321 12.611 39.3525 13.5H32.6475ZM39.735 24.03C40.1521 23.1982 40.4875 22.3279 40.7363 21.4312C41.3102 21.7332 41.8528 22.0912 42.3563 22.5C41.5626 23.1363 40.6793 23.6518 39.735 24.03ZM43.9425 20.8913C43.1199 20.2073 42.2124 19.6326 41.2425 19.1812C41.437 18.0466 41.5573 16.9004 41.6025 15.75H46.0575C45.849 17.6283 45.116 19.4099 43.9425 20.8913Z" fill="#292929"/>
<path d="M63 25.875H61.875V24.2775C62.8765 23.8382 63.7287 23.1174 64.3279 22.2026C64.9271 21.2878 65.2474 20.2186 65.25 19.125V14.625C65.25 13.1332 64.6574 11.7024 63.6025 10.6475C62.5476 9.59263 61.1168 9 59.625 9H57.375C55.8832 9 54.4524 9.59263 53.3975 10.6475C52.3426 11.7024 51.75 13.1332 51.75 14.625V19.125C51.7526 20.2186 52.0729 21.2878 52.6721 22.2026C53.2713 23.1174 54.1235 23.8382 55.125 24.2775V25.875H54C52.2098 25.875 50.4929 26.5862 49.227 27.852C47.9612 29.1179 47.25 30.8348 47.25 32.625V43.875C47.25 44.1734 47.3685 44.4595 47.5795 44.6705C47.7905 44.8815 48.0766 45 48.375 45H68.625C68.9234 45 69.2095 44.8815 69.4205 44.6705C69.6315 44.4595 69.75 44.1734 69.75 43.875V32.625C69.75 30.8348 69.0388 29.1179 67.773 27.852C66.5071 26.5862 64.7902 25.875 63 25.875ZM57.375 11.25H59.625C60.4749 11.2534 61.2923 11.5773 61.9138 12.1571C62.5353 12.7369 62.9152 13.5298 62.9775 14.3775L58.725 13.5225C58.5769 13.4887 58.4231 13.4887 58.275 13.5225L54.0225 14.3775C54.0848 13.5298 54.4647 12.7369 55.0862 12.1571C55.7077 11.5773 56.5251 11.2534 57.375 11.25ZM54 19.125V16.6725L58.5 15.7725L63 16.6725V19.125C62.9973 20.0193 62.6409 20.8762 62.0085 21.5085C61.3762 22.1409 60.5193 22.4973 59.625 22.5H57.375C56.4807 22.4973 55.6238 22.1409 54.9915 21.5085C54.3591 20.8762 54.0027 20.0193 54 19.125ZM59.625 24.75V25.875C59.6219 26.0715 59.5717 26.2644 59.4787 26.4375C59.3559 26.6542 59.1647 26.8241 58.935 26.9204C58.7052 27.0167 58.45 27.034 58.2094 26.9697C57.9687 26.9053 57.7562 26.7629 57.6052 26.5648C57.4542 26.3667 57.3733 26.1241 57.375 25.875V24.75H59.625ZM67.5 42.75H49.5V32.625C49.5 31.4315 49.9741 30.2869 50.818 29.443C51.6619 28.5991 52.8065 28.125 54 28.125H56.0138C56.386 28.5356 56.8535 28.8486 57.375 29.0362V38.25H59.625V29.0362C60.1465 28.8486 60.614 28.5356 60.9862 28.125H63C64.1935 28.125 65.3381 28.5991 66.182 29.443C67.0259 30.2869 67.5 31.4315 67.5 32.625V42.75Z" fill="#292929"/>
<path d="M18 25.875H16.875V24.2775C17.8765 23.8382 18.7287 23.1174 19.3279 22.2026C19.9271 21.2878 20.2474 20.2186 20.25 19.125V14.625C20.25 13.1332 19.6574 11.7024 18.6025 10.6475C17.5476 9.59263 16.1168 9 14.625 9H12.375C10.8832 9 9.45242 9.59263 8.39752 10.6475C7.34263 11.7024 6.75 13.1332 6.75 14.625V19.125C6.75256 20.2186 7.07294 21.2878 7.67214 22.2026C8.27134 23.1174 9.12354 23.8382 10.125 24.2775V25.875H9C7.20979 25.875 5.4929 26.5862 4.22703 27.852C2.96116 29.1179 2.25 30.8348 2.25 32.625V43.875C2.25 44.1734 2.36853 44.4595 2.5795 44.6705C2.79048 44.8815 3.07663 45 3.375 45H23.625C23.9234 45 24.2095 44.8815 24.4205 44.6705C24.6315 44.4595 24.75 44.1734 24.75 43.875V32.625C24.75 30.8348 24.0388 29.1179 22.773 27.852C21.5071 26.5862 19.7902 25.875 18 25.875ZM12.375 11.25H14.625C15.4749 11.2534 16.2923 11.5773 16.9138 12.1571C17.5353 12.7369 17.9152 13.5298 17.9775 14.3775L13.725 13.5225C13.5769 13.4887 13.4231 13.4887 13.275 13.5225L9.0225 14.3775C9.08482 13.5298 9.46468 12.7369 10.0862 12.1571C10.7077 11.5773 11.5251 11.2534 12.375 11.25ZM9 19.125V16.6725L13.5 15.7725L18 16.6725V19.125C17.9973 20.0193 17.6409 20.8762 17.0085 21.5085C16.3762 22.1409 15.5193 22.4973 14.625 22.5H12.375C11.4807 22.4973 10.6238 22.1409 9.99146 21.5085C9.35911 20.8762 9.00267 20.0193 9 19.125ZM14.625 24.75V25.875C14.6219 26.0715 14.5717 26.2644 14.4788 26.4375C14.3559 26.6542 14.1647 26.8241 13.9349 26.9204C13.7052 27.0167 13.45 27.034 13.2094 26.9697C12.9687 26.9053 12.7562 26.7629 12.6052 26.5648C12.4542 26.3667 12.3733 26.1241 12.375 25.875V24.75H14.625ZM22.5 42.75H4.5V32.625C4.5 31.4315 4.97411 30.2869 5.81802 29.443C6.66193 28.5991 7.80653 28.125 9 28.125H11.0138C11.386 28.5356 11.8535 28.8486 12.375 29.0362V38.25H14.625V29.0362C15.1465 28.8486 15.614 28.5356 15.9862 28.125H18C19.1935 28.125 20.3381 28.5991 21.182 29.443C22.0259 30.2869 22.5 31.4315 22.5 32.625V42.75Z" fill="#292929"/>
<path d="M36 45C33.5525 45 31.1599 45.7258 29.1248 47.0856C27.0898 48.4453 25.5036 50.3781 24.567 52.6393C23.6304 54.9005 23.3853 57.3887 23.8628 59.7892C24.3403 62.1898 25.5189 64.3948 27.2496 66.1254C28.9802 67.8561 31.1852 69.0347 33.5858 69.5122C35.9863 69.9897 38.4745 69.7446 40.7357 68.808C42.9969 67.8714 44.9297 66.2852 46.2894 64.2502C47.6492 62.2151 48.375 59.8225 48.375 57.375C48.3711 54.0941 47.0661 50.9488 44.7462 48.6288C42.4263 46.3089 39.2809 45.0039 36 45ZM36 67.5C33.9975 67.5 32.0399 66.9062 30.3749 65.7936C28.7098 64.6811 27.4121 63.0998 26.6457 61.2497C25.8794 59.3996 25.6789 57.3638 26.0696 55.3997C26.4602 53.4357 27.4245 51.6316 28.8405 50.2155C30.2566 48.7995 32.0607 47.8352 34.0247 47.4445C35.9888 47.0539 38.0246 47.2544 39.8747 48.0207C41.7248 48.7871 43.3061 50.0848 44.4186 51.7498C45.5312 53.4149 46.125 55.3725 46.125 57.375C46.122 60.0594 45.0543 62.633 43.1562 64.5312C41.258 66.4293 38.6844 67.497 36 67.5Z" fill="#292929"/>
<path d="M36 54C36.2984 54 36.5845 54.1185 36.7955 54.3295C37.0065 54.5405 37.125 54.8266 37.125 55.125H39.375C39.3721 54.4295 39.1544 53.7518 38.7517 53.1847C38.3489 52.6176 37.7808 52.1888 37.125 51.957V50.625H34.875V51.957C34.125 52.2212 33.4927 52.7423 33.09 53.428C32.6874 54.1137 32.5404 54.9198 32.6752 55.7035C32.8099 56.4871 33.2177 57.1978 33.8262 57.7097C34.4348 58.2215 35.2048 58.5015 36 58.5C36.2225 58.5 36.44 58.566 36.625 58.6896C36.81 58.8132 36.9542 58.9889 37.0394 59.1945C37.1245 59.4 37.1468 59.6262 37.1034 59.8445C37.06 60.0627 36.9528 60.2632 36.7955 60.4205C36.6382 60.5778 36.4377 60.685 36.2195 60.7284C36.0012 60.7718 35.775 60.7495 35.5695 60.6644C35.3639 60.5792 35.1882 60.435 35.0646 60.25C34.941 60.065 34.875 59.8475 34.875 59.625H32.625C32.6279 60.3205 32.8456 60.9982 33.2483 61.5653C33.6511 62.1324 34.2192 62.5612 34.875 62.793V64.125H37.125V62.793C37.875 62.5288 38.5073 62.0077 38.91 61.322C39.3126 60.6363 39.4596 59.8302 39.3248 59.0465C39.1901 58.2629 38.7823 57.5522 38.1738 57.0403C37.5652 56.5285 36.7952 56.2485 36 56.25C35.7016 56.25 35.4155 56.1315 35.2045 55.9205C34.9935 55.7095 34.875 55.4234 34.875 55.125C34.875 54.8266 34.9935 54.5405 35.2045 54.3295C35.4155 54.1185 35.7016 54 36 54Z" fill="#292929"/>
<path d="M17.6704 54.3296L16.0796 55.9204L17.5343 57.375H13.5V47.25H11.25V58.5C11.25 58.7984 11.3685 59.0845 11.5795 59.2955C11.7905 59.5065 12.0766 59.625 12.375 59.625H17.5343L16.0796 61.0796L17.6704 62.6704L21.0454 59.2954C21.2563 59.0844 21.3748 58.7983 21.3748 58.5C21.3748 58.2017 21.2563 57.9156 21.0454 57.7046L17.6704 54.3296Z" fill="#292929"/>
<path d="M58.5 57.375H54.4658L55.9204 55.9204L54.3296 54.3296L50.9546 57.7046C50.7437 57.9156 50.6252 58.2017 50.6252 58.5C50.6252 58.7983 50.7437 59.0844 50.9546 59.2954L54.3296 62.6704L55.9204 61.0796L54.4658 59.625H59.625C59.9234 59.625 60.2095 59.5065 60.4205 59.2955C60.6315 59.0845 60.75 58.7984 60.75 58.5V47.25H58.5V57.375Z" fill="#292929"/>
<path d="M37.125 42.75V39.168C37.5955 38.9999 38.0229 38.7295 38.3762 38.3762C38.7295 38.0229 38.9999 37.5955 39.168 37.125H45V34.875H39.168C38.9999 34.4045 38.7295 33.9771 38.3762 33.6238C38.0229 33.2705 37.5955 33.0001 37.125 32.832V29.25H34.875V32.832C34.4045 33.0001 33.9771 33.2705 33.6238 33.6238C33.2705 33.9771 33.0001 34.4045 32.832 34.875H27V37.125H32.832C33.0001 37.5955 33.2705 38.0229 33.6238 38.3762C33.9771 38.7295 34.4045 38.9999 34.875 39.168V42.75H37.125ZM36 34.875C36.2225 34.875 36.44 34.941 36.625 35.0646C36.81 35.1882 36.9542 35.3639 37.0394 35.5695C37.1245 35.775 37.1468 36.0012 37.1034 36.2195C37.06 36.4377 36.9528 36.6382 36.7955 36.7955C36.6382 36.9528 36.4377 37.06 36.2195 37.1034C36.0012 37.1468 35.775 37.1245 35.5695 37.0394C35.3639 36.9542 35.1882 36.81 35.0646 36.625C34.941 36.44 34.875 36.2225 34.875 36C34.875 35.7016 34.9935 35.4155 35.2045 35.2045C35.4155 34.9935 35.7016 34.875 36 34.875Z" fill="#292929"/>
</svg>
