<svg width="72" height="72" viewBox="0 0 72 72" fill="none" xmlns="http://www.w3.org/2000/svg">
<g clip-path="url(#clip0_322_42)">
<path d="M34.8728 20.2017H36.9866V19.0745H39.241V13.5791H34.7316V12.3113H39.3816V10.1975H36.9866V8.92969H34.8728V10.1975H32.6184V15.6929H37.1272V16.9607H32.6184V19.0745H34.8728V20.2017Z" fill="#292929"/>
<path d="M61.9255 33.8692H59.1801C57.7617 26.4012 52.8415 20.0237 45.8278 16.8091C45.9871 16.0977 46.0745 15.3419 46.0745 14.5833C46.0745 9.02802 41.5552 4.5 36 4.5C30.4448 4.5 25.9255 9.01483 25.9255 14.5701C25.9255 15.3287 26.0129 16.0999 26.1722 16.8113C19.158 20.0259 14.2383 26.4012 12.8199 33.8687H10.0745C4.51923 33.8687 0 38.3884 0 43.9431C0 49.4984 4.51923 54.0176 10.0745 54.0176H18.3895C22.8675 58.9488 29.2775 61.908 36 61.908C42.7225 61.908 49.1325 58.9488 53.6105 54.0176H61.9255C67.4808 54.0176 72 49.4984 72 43.9431C72 38.3884 67.4808 33.8692 61.9255 33.8692ZM56.3736 45.1412H49.9708C50.374 42.8868 50.5833 40.6555 50.5833 38.3071C50.5833 35.9692 50.3679 33.5874 49.9598 31.4736H56.3714C57.0981 33.5874 57.4871 35.9423 57.4871 38.3071C57.4871 40.6472 57.1064 42.8868 56.3736 45.1412ZM26.3749 51.9044C25.686 50.3542 25.1147 48.8046 24.6693 47.2544H34.8728V51.9044H26.3749ZM34.8728 54.0176V59.6448C32.1954 59.2388 29.601 57.2585 27.5339 54.0176H34.8728ZM36.9866 59.6448V54.0176H44.4661C42.399 57.2585 39.8046 59.2388 36.9866 59.6448ZM36.9866 51.9044V47.2544H47.3307C46.8853 48.8046 46.314 50.3542 45.6251 51.9044H36.9866ZM24.1787 45.1412C23.7519 42.8868 23.5305 40.667 23.5305 38.3071C23.5305 35.9566 23.759 33.5874 24.1891 31.4736H30.364V29.3604H24.6808C25.5229 26.1194 26.7687 23.4108 28.403 21.247C30.0317 23.0977 32.3366 24.3138 34.8728 24.5841V28.2332H32.6184V42.7456H39.241V28.2332H36.9866V24.5841C39.6634 24.3138 41.898 23.0977 43.5262 21.247C45.1609 23.4108 46.4766 26.1194 47.3192 29.3604H41.636V31.4736H47.8109C48.241 33.5874 48.4695 35.9566 48.4695 38.3071C48.4695 40.667 48.2481 42.8868 47.8213 45.1412H24.1787ZM37.1272 30.3464V40.6324H34.7316V30.3464H37.1272ZM55.5348 29.3604H49.4973C48.5217 25.4147 46.9221 22.0095 44.8314 19.4425C44.9429 19.2409 45.0456 19.0514 45.1428 18.8416C49.8214 21.0432 53.4556 24.7104 55.5348 29.3604ZM36 6.60498C40.3896 6.60498 43.9607 10.1761 43.9607 14.5657C43.9607 18.9553 40.3896 22.5264 36 22.5264C31.6104 22.5264 28.0393 18.9553 28.0393 14.5657C28.0393 10.1761 31.6104 6.60498 36 6.60498ZM26.8572 18.824C26.9544 19.0338 27.0571 19.2579 27.1686 19.4601C25.0779 22.027 23.4783 25.4147 22.5027 29.3604H16.4652C18.5438 24.7104 22.1786 21.0256 26.8572 18.824ZM15.6286 31.4736H22.0402C21.6321 33.5874 21.4167 35.9692 21.4167 38.3071C21.4167 40.6555 21.626 42.8868 22.0292 45.1412H15.6264C14.8936 42.8868 14.5129 40.6472 14.5129 38.3071C14.5129 35.9423 14.9019 33.5874 15.6286 31.4736ZM2.11377 43.9431C2.11377 39.5535 5.68488 35.9824 10.0745 35.9824H12.5145C12.4387 36.6872 12.3992 37.4903 12.3992 38.272C12.3992 42.6824 13.6236 46.9666 15.9406 50.6948L17.7358 49.6055C17.259 48.8386 16.836 47.9592 16.4625 47.2544H22.4874C22.8972 48.8046 23.4218 50.3542 24.0529 51.9044H10.0745C5.68488 51.9044 2.11377 48.3327 2.11377 43.9431ZM25.0856 54.0176C25.2296 54.1588 25.3773 54.5037 25.5295 54.757C26.3529 56.1297 27.2637 57.3338 28.242 58.3253C25.7042 57.342 23.3597 55.8495 21.3442 54.0176H25.0856ZM43.758 58.3077C44.7363 57.3162 45.6471 56.1473 46.4705 54.7745C46.6227 54.5213 46.7704 54.1588 46.9144 54.0176H50.6558C48.6403 55.8495 46.2958 57.3245 43.758 58.3077ZM61.9255 51.9044H47.9471C48.5782 50.3542 49.1028 48.8046 49.5126 47.2544H55.5375C55.164 47.9592 54.7416 48.8293 54.2648 49.5961L56.0599 50.6937C58.3764 46.966 59.6008 42.6907 59.6008 38.2808C59.6008 37.4991 59.5613 36.6866 59.4855 35.9824H61.9255C66.3151 35.9824 69.8862 39.5535 69.8862 43.9431C69.8862 48.3327 66.3151 51.9044 61.9255 51.9044Z" fill="#292929"/>
<path d="M30.364 65.4307H32.6184V67.5439H30.364V65.4307Z" fill="#292929"/>
<path d="M34.8728 65.4307H37.1272V67.5439H34.8728V65.4307Z" fill="#292929"/>
<path d="M39.3816 65.4307H41.636V67.5439H39.3816V65.4307Z" fill="#292929"/>
</g>
<defs>
<clipPath id="clip0_322_42">
<rect width="72" height="72" fill="white"/>
</clipPath>
</defs>
</svg>
