<svg width="72" height="72" viewBox="0 0 72 72" fill="none" xmlns="http://www.w3.org/2000/svg">
<path d="M12.6016 55.5278L9.74092 61.8243C8.98849 63.4824 10.5468 65.2503 12.2865 64.713L18.1878 62.8847C19.2089 62.5682 20.3058 63.0661 20.7404 64.0436L23.2466 69.6917C23.985 71.3555 26.3421 71.3653 27.096 69.7072L35.045 52.2058" stroke="black" stroke-width="2.10961" stroke-miterlimit="10" stroke-linecap="round" stroke-linejoin="round"/>
<path d="M18.5267 42.4819L14.6366 51.0455" stroke="black" stroke-width="2.10961" stroke-miterlimit="10" stroke-linecap="round" stroke-linejoin="round"/>
<path d="M10.233 60.8241L16.9964 58.73C20.0611 57.7811 23.3511 59.2755 24.6529 62.2079L27.5197 68.666" stroke="black" stroke-width="2.10961" stroke-miterlimit="10" stroke-linecap="round" stroke-linejoin="round"/>
<path d="M40.2107 59.3757L36.9549 52.2058" stroke="black" stroke-width="2.10961" stroke-miterlimit="10" stroke-linecap="round" stroke-linejoin="round"/>
<path d="M53.4731 42.4819L62.2589 61.8242C63.0114 63.4824 61.4531 65.2503 59.7133 64.713L53.8121 62.8847C52.791 62.5682 51.694 63.0661 51.2594 64.0436L48.7532 69.6917C48.0149 71.3555 45.6577 71.3653 44.9039 69.7072L42.2528 63.8706" stroke="black" stroke-width="2.10961" stroke-miterlimit="10" stroke-linecap="round" stroke-linejoin="round"/>
<path d="M61.7014 60.8039L55.0036 58.73C51.9389 57.7811 48.6489 59.2755 47.3471 62.2079L44.5239 68.5676" stroke="black" stroke-width="2.10961" stroke-miterlimit="10" stroke-linecap="round" stroke-linejoin="round"/>
<path d="M59.0078 31.3232C58.2534 31.898 57.9864 32.8946 58.3525 33.7694C59.9093 37.4901 57.4987 41.6639 53.4982 42.1773C52.558 42.2979 51.8286 43.0272 51.7081 43.9674C51.1948 47.9677 47.0208 50.3783 43.3002 48.8217C42.4253 48.4556 41.4287 48.7227 40.854 49.4769C38.4093 52.6858 33.5909 52.6858 31.1462 49.4769C30.5714 48.7226 29.5748 48.4556 28.7 48.8217C24.9792 50.3785 20.8053 47.9679 20.2921 43.9674C20.1714 43.0272 19.4422 42.2978 18.502 42.1773C14.5016 41.6639 12.091 37.49 13.6476 33.7694C14.0137 32.8944 13.7467 31.8978 12.9924 31.3232C9.78354 28.8784 9.78354 24.0601 12.9924 21.6153C13.7468 21.0405 14.0137 20.044 13.6476 19.1692C12.0909 15.4484 14.5015 11.2746 18.502 10.7612C19.4422 10.6406 20.1715 9.91136 20.2921 8.97117C20.8054 4.97079 24.9793 2.56021 28.7 4.11682C29.5749 4.48291 30.5715 4.21583 31.1462 3.46157C33.5909 0.252717 38.4093 0.252717 40.854 3.46157C41.4288 4.21597 42.4254 4.48291 43.3002 4.11682C47.021 2.56007 51.1949 4.97065 51.7081 8.97117C51.8288 9.91136 52.558 10.6407 53.4982 10.7612C57.4986 11.2746 59.9091 15.4485 58.3525 19.1692C57.9864 20.0441 58.2535 21.0407 59.0078 21.6153C62.2166 24.0601 62.2166 28.8784 59.0078 31.3232Z" stroke="black" stroke-width="2.10961" stroke-miterlimit="10" stroke-linecap="round" stroke-linejoin="round"/>
<path d="M50.109 15.2876C52.5463 18.3592 54.0019 22.2437 54.0019 26.47C54.0019 36.4118 45.9418 44.472 35.9999 44.472C26.058 44.472 17.9979 36.4118 17.9979 26.47C17.9979 16.5267 26.058 8.46796 35.9999 8.46796C39.9407 8.46796 43.5861 9.73372 46.5522 11.8827" stroke="black" stroke-width="2.10961" stroke-miterlimit="10" stroke-linecap="round" stroke-linejoin="round"/>
<path d="M25.9435 16.9388H30.1722V35.9998" stroke="black" stroke-width="2.10961" stroke-miterlimit="10" stroke-linecap="round" stroke-linejoin="round"/>
<path d="M44.9974 16.9388H37.6391L36.2139 25.3718C37.5508 24.6945 38.7434 24.5172 40.1999 24.5172C43.5376 24.5172 46.2231 27.2584 46.0482 30.5639C45.8902 33.5467 43.3668 35.9383 40.3207 35.9985C36.9901 36.0643 34.4079 33.4144 34.4079 30.2584" stroke="black" stroke-width="2.10961" stroke-miterlimit="10" stroke-linecap="round" stroke-linejoin="round"/>
</svg>
