<svg width="277" height="322" viewBox="0 0 277 322" fill="none" xmlns="http://www.w3.org/2000/svg">
<ellipse cx="266.44" cy="158.989" rx="10.5636" ry="41.0806" fill="#3B8F6E"/>
<path fill-rule="evenodd" clip-rule="evenodd" d="M78.6101 26.6355C31.2583 55.0935 0 104.075 0 159.726C0 215.373 31.2534 264.351 78.5991 292.81C52.238 264.351 34.8369 215.374 34.8369 159.729C34.8369 104.076 52.2428 55.0931 78.6101 26.6355Z" fill="#3B8F6E"/>
<path fill-rule="evenodd" clip-rule="evenodd" d="M194.212 306.496C219.548 306.496 240.087 241.384 240.087 161.066C240.087 80.7467 219.548 15.6355 194.212 15.6355C168.876 15.6355 148.337 80.7467 148.337 161.066C148.337 241.384 168.876 306.496 194.212 306.496ZM203.061 261.104C219.267 261.104 232.404 216.437 232.404 161.337C232.404 106.237 219.267 61.5702 203.061 61.5702C186.855 61.5702 173.717 106.237 173.717 161.337C173.717 216.437 186.855 261.104 203.061 261.104Z" fill="#3B8F6E"/>
<path fill-rule="evenodd" clip-rule="evenodd" d="M163.33 41.8552C157.603 33.4316 151.172 28.7067 144.376 28.7067C120.391 28.7067 100.948 87.5624 100.948 160.165C100.948 232.767 120.391 291.622 144.376 291.622C151.695 291.622 158.591 286.142 164.641 276.463C155.364 304.402 142.727 321.593 128.802 321.593C100.328 321.593 77.2461 249.722 77.2461 161.065C77.2461 72.4075 100.328 0.536621 128.802 0.536621C142.083 0.536621 154.191 16.1727 163.33 41.8552Z" fill="#3B8F6E"/>
</svg>
