<svg width="54" height="54" viewBox="0 0 54 54" fill="none" xmlns="http://www.w3.org/2000/svg">
<path d="M27 1C12.6406 1 1 12.6406 1 27C1 41.3594 12.6406 53 27 53C41.3594 53 53 41.3594 53 27C53 12.6406 41.3594 1 27 1Z" fill="#3B8F6E"/>
<path d="M27 1C12.6406 1 1 12.6406 1 27C1 41.3594 12.6406 53 27 53C41.3594 53 53 41.3594 53 27C53 12.6406 41.3594 1 27 1Z" stroke="white" stroke-width="2"/>
<path d="M40.9833 35.7413L39.4281 27.9351C39.3347 27.466 38.8774 27.1603 38.4076 27.2538L36.4064 27.6525C35.9395 27.7455 35.6348 28.1995 35.7241 28.6664C35.1828 28.8359 34.5884 28.9395 33.9313 28.8542C34.8598 27.8141 35.3794 26.4695 35.3794 25.0518C35.3794 23.6787 34.8926 22.4172 34.0828 21.4306C33.8479 19.7162 33.2063 18.1422 32.263 16.8011C32.2607 16.7977 32.2585 16.7942 32.2563 16.7908C32.2531 16.7859 32.2493 16.7816 32.2459 16.777C30.3151 14.0484 27.1335 12.2905 23.5909 12.2905C22.1013 12.2905 20.6828 12.6003 19.3957 13.1578C19.3776 13.1632 19.3598 13.1696 19.3425 13.1772C17.7211 13.888 16.29 15.0071 15.2039 16.4133C14.5445 17.2672 14.0222 18.217 13.6515 19.2228C13.6476 19.2336 13.6435 19.2444 13.6395 19.2553C13.614 19.325 13.5894 19.395 13.5654 19.4652C13.5581 19.4866 13.551 19.508 13.5438 19.5295C13.4728 19.742 13.4086 19.9568 13.3512 20.1736C13.344 20.2006 13.3367 20.2274 13.3297 20.2544C13.3139 20.3161 13.299 20.3779 13.2844 20.4399C13.2762 20.4741 13.2683 20.5085 13.2605 20.5429C13.2467 20.6038 13.2332 20.6648 13.2205 20.726C13.2134 20.76 13.2069 20.7941 13.2002 20.8283C13.1774 20.9442 13.1565 21.0605 13.1376 21.1773C13.1322 21.2101 13.1264 21.2428 13.1213 21.2757C13.1193 21.2889 13.1168 21.3018 13.1149 21.315C13.1139 21.3213 13.1139 21.3275 13.1132 21.3338C13.0389 21.8392 12.9998 22.3559 12.9998 22.8817C12.9998 26.9633 15.3434 30.6701 19.0025 32.4298L18.3428 35.7413C18.2493 36.2105 18.555 36.6684 19.0242 36.7618L21.0254 37.1605C21.0824 37.1718 21.1391 37.1773 21.1952 37.1773C21.5474 37.1773 21.8677 36.9611 21.9994 36.6339L26.6039 41.2383C26.9077 41.542 27.3126 41.7093 27.7443 41.7093C28.176 41.7093 28.581 41.542 28.8846 41.2383C29.0518 41.0712 29.1777 40.8734 29.257 40.6574L29.7775 41.1778C30.4063 41.8066 31.4295 41.8065 32.0583 41.1778C32.2321 41.004 32.3579 40.8 32.4356 40.5825C32.7153 40.7975 33.0568 40.9138 33.417 40.9138C33.8486 40.9138 34.2536 40.7465 34.5574 40.4428C34.8732 40.127 35.0305 39.7117 35.029 39.2969H35.034C35.4657 39.2969 35.8708 39.1295 36.1744 38.8258C36.5826 38.4177 36.7331 37.8163 36.59 37.2698L37.3003 36.5595C37.3579 36.7521 37.4797 36.9175 37.6495 37.0308C37.7942 37.1274 37.9604 37.1775 38.13 37.1775C38.1867 37.1775 38.2438 37.1719 38.3006 37.1606L40.3018 36.7619C40.7709 36.6685 41.0766 36.2107 40.9832 35.7414L40.9833 35.7413ZM35.9082 29.5921L37.0763 35.4558L36.0471 36.4849L31.4294 31.7998C31.4235 31.7939 31.4175 31.7881 31.4113 31.7824C30.4253 30.884 29.5201 30.4956 28.9274 30.7166C28.6297 30.8277 28.4367 31.0801 28.3978 31.4091C28.3973 31.4127 28.3969 31.4165 28.3966 31.4202C28.3871 31.5208 28.3782 31.6211 28.3694 31.7209C28.2588 32.9783 28.1757 33.9235 27.0073 34.3932L26.3028 31.1651C26.245 30.8999 26.4067 30.6991 26.5525 30.5773L29.2358 28.3368C29.7063 27.944 30.3461 27.9671 30.8658 28.3959C30.9588 28.4726 31.0509 28.5443 31.1426 28.6138C31.1555 28.6246 31.1688 28.6346 31.1827 28.6438C33.0625 30.0508 34.655 29.9664 35.9081 29.5919L35.9082 29.5921ZM31.4748 27.681C31.4709 27.6779 31.4672 27.675 31.4633 27.6718C31.0576 27.3372 30.5945 27.1538 30.1324 27.1222V26.985C30.6242 26.8233 30.9802 26.3596 30.9802 25.8143C30.9802 25.135 30.4276 24.5823 29.7482 24.5823H29.5778C29.4189 24.5823 29.2846 24.448 29.2846 24.2891C29.2846 24.1301 29.4189 23.9958 29.5778 23.9958H29.8179C29.9111 23.9958 30 24.0419 30.0559 24.1191C30.2079 24.3292 30.5014 24.3762 30.7114 24.2242C30.9213 24.0723 30.9685 23.7789 30.8165 23.5688C30.6478 23.3357 30.4042 23.1708 30.1324 23.0984V22.8749C30.1324 22.6157 29.9223 22.4055 29.6631 22.4055C29.4038 22.4055 29.1937 22.6157 29.1937 22.8749V23.1183C28.7019 23.2802 28.3459 23.7438 28.3459 24.289C28.3459 24.9683 28.8986 25.521 29.5779 25.521H29.7483C29.9072 25.521 30.0415 25.6553 30.0415 25.8143C30.0415 25.9732 29.9072 26.1075 29.7483 26.1075H29.5082C29.415 26.1075 29.3261 26.0615 29.2702 25.9844C29.1185 25.7743 28.825 25.7271 28.6149 25.879C28.4048 26.0309 28.3577 26.3244 28.5096 26.5344C28.6782 26.7677 28.9218 26.9325 29.1936 27.005V27.2284C29.1936 27.2442 29.1944 27.2597 29.196 27.275C28.9982 27.3569 28.809 27.4705 28.6342 27.6164L28.2665 27.9234C27.182 27.3936 26.4701 26.2718 26.4701 25.0517C26.4701 23.2911 27.9024 21.8588 29.663 21.8588C31.4236 21.8588 32.8559 23.2911 32.8559 25.0517C32.8559 26.1067 32.3336 27.0882 31.4747 27.681L31.4748 27.681ZM32.8973 28.5682C32.6958 28.4829 32.4892 28.3781 32.2771 28.251C33.227 27.4738 33.7947 26.3027 33.7947 25.0517C33.7947 22.7735 31.9412 20.9201 29.663 20.9201C27.3847 20.9201 25.5313 22.7735 25.5313 25.0517C25.5313 26.4906 26.2967 27.8239 27.4947 28.5678L26.975 29.0016C25.6786 28.1164 24.8855 26.6315 24.8855 25.0516C24.8855 22.4173 27.0287 20.2741 29.6631 20.2741C32.2974 20.2741 34.4407 22.4173 34.4407 25.0516C34.4407 26.3967 33.8814 27.6634 32.8974 28.5681L32.8973 28.5682ZM23.5835 28.2652C23.5247 28.0606 23.3918 27.8829 23.2099 27.7687C23.2399 27.6619 23.2684 27.5477 23.2955 27.4249C23.303 27.391 23.3067 27.3562 23.3065 27.3214C23.3026 26.4618 23.6122 26.2295 24.0407 26.0748C24.1855 26.8627 24.4944 27.6088 24.9402 28.2651H23.5835V28.2652ZM20.339 27.3407C20.1967 27.0438 20.0005 26.7283 19.7227 26.3942C19.4036 25.9776 19.4008 25.6346 19.3976 25.2378C19.3932 24.6989 19.3877 24.0284 18.4607 23.4925C17.5661 22.9754 17.0816 22.4739 16.6542 22.0315C16.0153 21.3701 15.4956 20.8299 14.151 20.8661C14.1582 20.8319 14.1656 20.7978 14.1733 20.7638C14.1813 20.7283 14.1893 20.6927 14.1977 20.6573C14.2077 20.6151 14.218 20.5732 14.2285 20.5313C14.2426 20.4756 14.2571 20.4199 14.2722 20.3645C14.2785 20.3411 14.2847 20.3177 14.2912 20.2944C14.8461 18.3147 16.0349 16.5517 17.6438 15.284C17.6974 15.242 17.7514 15.2007 17.8058 15.1598C17.8119 15.1552 17.818 15.1506 17.8241 15.146C18.3801 14.7304 18.9823 14.3732 19.6213 14.0837C20.6891 14.1818 21.9333 15.0056 22.331 15.8955C22.5724 16.4358 22.4945 16.9581 22.0992 17.4483C21.1972 18.3932 20.0606 18.7962 18.898 18.5837C18.8638 18.5774 18.8388 18.5733 18.8235 18.5713C17.973 18.4634 17.201 18.7417 16.8557 19.28C16.6931 19.5335 16.4878 20.0668 16.939 20.7922C17.7225 22.0523 18.3617 22.3324 19.4721 21.9026C20.1533 21.639 20.3178 21.7406 20.7152 21.9861C21.058 22.1978 21.5275 22.4877 22.3835 22.5698C22.756 22.6055 22.9811 22.9359 23.3469 23.5167C23.4738 23.7183 23.6051 23.9267 23.7597 24.1374C23.8419 24.2494 23.9146 24.3533 23.9784 24.4494C23.9576 24.6474 23.9467 24.8483 23.9467 25.0518C23.9467 25.0735 23.9475 25.0951 23.9478 25.1168C23.3642 25.3005 22.3824 25.6658 22.3679 27.2709C22.3467 27.3631 22.3247 27.4493 22.3019 27.5294L20.9184 27.2538C20.7133 27.213 20.5103 27.2485 20.339 27.3406V27.3407ZM27.2557 19.5188C27.0189 19.1892 26.6592 18.5722 26.9111 18.1426C27.1025 17.8162 27.9414 17.1105 31.5944 17.4942C32.1322 18.3396 32.5686 19.3197 32.8576 20.3135C31.945 19.6962 30.8454 19.3354 29.663 19.3354C28.8817 19.3354 28.1366 19.4931 27.4577 19.7781C27.389 19.697 27.322 19.611 27.2557 19.5188ZM30.8177 16.4846C28.2175 16.3087 26.6699 16.6982 26.1013 17.6677C25.7155 18.3257 25.8546 19.1776 26.4933 20.0665C26.5316 20.1198 26.5703 20.1712 26.6093 20.2215C25.5215 20.9117 24.6817 21.9587 24.2558 23.1968C24.2171 23.1363 24.1788 23.076 24.1412 23.0163C23.7388 22.3774 23.3227 21.7167 22.4731 21.6353C21.8348 21.5741 21.5164 21.3775 21.2085 21.1873C20.647 20.8405 20.1692 20.626 19.1332 21.027C18.5957 21.235 18.3734 21.3211 17.7361 20.2964C17.5999 20.0773 17.5695 19.9058 17.6459 19.7867C17.766 19.5996 18.1765 19.4365 18.7015 19.502C18.7086 19.5032 18.7178 19.5049 18.7291 19.5069C20.2199 19.7797 21.663 19.2733 22.7926 18.0813C22.8004 18.073 22.8079 18.0645 22.8151 18.0557C23.4448 17.2865 23.5773 16.3833 23.188 15.5123C22.83 14.7113 22.027 13.9852 21.1141 13.5518C21.9049 13.3417 22.7349 13.2291 23.5909 13.2291C26.4428 13.2291 29.038 14.4791 30.8177 16.4844L30.8177 16.4846ZM13.9386 22.8817C13.9386 22.5201 13.9593 22.1631 13.9982 21.8117C15.0612 21.7334 15.3702 22.0534 15.979 22.6837C16.426 23.1464 16.9824 23.7222 17.9909 24.3053C18.4534 24.5726 18.4549 24.7695 18.4589 25.2454C18.4625 25.6925 18.4675 26.3049 18.9847 26.9745C18.9884 26.9792 18.992 26.9838 18.9958 26.9883C19.5488 27.6509 19.6884 28.1811 19.7598 28.6284L19.1927 31.4747C15.9829 29.8306 13.9386 26.5201 13.9386 22.8817H13.9386ZM21.1391 36.2259L19.2773 35.855L20.8046 28.1883L22.6664 28.5593L21.1391 36.2259ZM35.5106 38.1619C35.3842 38.2883 35.2149 38.358 35.034 38.358C34.8531 38.358 34.6842 38.2885 34.5577 38.1622C34.5576 38.1621 34.5576 38.162 34.5574 38.1619L31.1529 34.7574C30.9695 34.5741 30.6724 34.5742 30.4891 34.7574C30.3058 34.9408 30.3058 35.2379 30.4891 35.4212L33.8936 38.8257C33.8936 38.8257 33.8938 38.8259 33.8939 38.826C34.1564 39.0888 34.1564 39.5162 33.8936 39.7789C33.7672 39.9053 33.5979 39.975 33.417 39.975C33.236 39.975 33.0669 39.9054 32.9404 39.7789L32.0589 38.8975C32.0589 38.8975 32.0586 38.8971 32.0584 38.8969L29.343 36.1816C29.1597 35.9983 28.8625 35.9983 28.6792 36.1816C28.4959 36.3648 28.4959 36.662 28.6792 36.8453L31.3945 39.5607C31.6573 39.8235 31.6573 40.2511 31.3945 40.5139C31.1318 40.7767 30.7041 40.7768 30.4413 40.5139L28.8849 38.9574L27.5331 37.6056C27.3497 37.4224 27.0526 37.4225 26.8693 37.6056C26.686 37.789 26.686 38.0861 26.8693 38.2695L28.2211 39.6212C28.3475 39.7476 28.4171 39.9169 28.4171 40.0978C28.4171 40.2787 28.3475 40.448 28.221 40.5745C28.0945 40.701 27.9254 40.7705 27.7445 40.7704C27.5635 40.7704 27.3943 40.7008 27.2679 40.5744L22.2331 35.5397L23.4953 29.2039H25.7364C25.8927 29.3522 26.0582 29.4917 26.2316 29.6225L25.951 29.8567C25.4702 30.2582 25.2642 30.808 25.3858 31.3653L26.1997 35.0952C26.2268 35.2189 26.3027 35.3265 26.4101 35.3935C26.5177 35.4605 26.6477 35.4811 26.7707 35.4508C29.0329 34.8935 29.1773 33.2517 29.3047 31.8032C29.3047 31.8022 29.3049 31.8013 29.3049 31.8003C29.382 31.7508 29.4586 31.7003 29.5344 31.6488C29.7915 31.7385 30.2111 31.9605 30.7699 32.4679L35.6547 37.4239C35.7584 37.6736 35.703 37.9694 35.5106 38.1618L35.5106 38.1619ZM38.187 36.2259L36.6597 28.5593L38.5214 28.1883L40.0488 35.855L38.187 36.2259Z" fill="white"/>
</svg>
