<svg width="20" height="20" viewBox="0 0 20 20" fill="none" xmlns="http://www.w3.org/2000/svg">
<g opacity="0.7" clip-path="url(#clip0_279_56)">
<path d="M14.5833 20C7.79245 20.1908 -4.22922 8.15583 1.55162 1.615C1.57245 1.595 2.46162 0.82 2.46162 0.82C3.01967 0.30412 3.75344 0.0204491 4.51338 0.0267975C5.27333 0.0331459 6.00226 0.329036 6.55162 0.854167L8.34495 2.78583C8.8732 3.3379 9.16533 4.0742 9.15927 4.83826C9.1532 5.60232 8.8494 6.3339 8.31245 6.8775L7.98911 7.20583C8.95206 9.33824 10.6557 11.049 12.7841 12.0208L13.1266 11.6875C13.6821 11.1584 14.4199 10.8633 15.187 10.8633C15.9542 10.8633 16.6919 11.1584 17.2474 11.6875L19.1116 13.4167C19.6638 13.9561 19.9807 14.6916 19.9935 15.4634C20.0063 16.2353 19.7139 16.9809 19.1799 17.5383C19.1799 17.5383 18.4049 18.4267 18.3849 18.4475C17.8856 18.945 17.2924 19.3384 16.6398 19.605C15.9872 19.8715 15.2882 20.0057 14.5833 20ZM3.29162 3.41667C-0.757552 8.43167 12.2033 20.6442 16.5874 16.7083C16.5874 16.7083 17.3574 15.8258 17.3783 15.8058C17.4564 15.7277 17.5003 15.6217 17.5003 15.5113C17.5003 15.4008 17.4564 15.2948 17.3783 15.2167L15.5133 13.4883C15.2633 13.28 15.1224 13.2775 14.8908 13.455L13.9441 14.3867C13.7734 14.5546 13.5579 14.67 13.3235 14.7191C13.089 14.7681 12.8454 14.7488 12.6216 14.6633C10.9588 14.0446 9.44846 13.0755 8.19297 11.8219C6.93748 10.5683 5.96619 9.05939 5.34495 7.3975C5.25453 7.17191 5.23183 6.92485 5.27964 6.68656C5.32744 6.44827 5.44368 6.22909 5.61412 6.05583L6.53745 5.1175C6.5795 5.08015 6.61329 5.03443 6.63666 4.98327C6.66003 4.93212 6.67246 4.87665 6.67317 4.82041C6.67387 4.76417 6.66284 4.7084 6.64076 4.65667C6.61868 4.60495 6.58605 4.5584 6.54495 4.52L4.74995 2.58833C4.67052 2.52196 4.56874 2.48844 4.46541 2.49464C4.36209 2.50083 4.26504 2.54627 4.19412 2.62167C4.17412 2.6425 3.29162 3.41667 3.29162 3.41667ZM19.9999 7.91667C19.9975 5.81778 19.1627 3.80556 17.6785 2.32142C16.1944 0.83728 14.1822 0.00242608 12.0833 0C11.7518 4.94004e-09 11.4338 0.131696 11.1994 0.366117C10.965 0.600537 10.8333 0.918479 10.8333 1.25C10.8333 1.58152 10.965 1.89946 11.1994 2.13388C11.4338 2.3683 11.7518 2.5 12.0833 2.5C13.5193 2.50176 14.8961 3.07301 15.9115 4.08845C16.9269 5.10389 17.4982 6.48062 17.4999 7.91667C17.4999 8.24819 17.6316 8.56613 17.8661 8.80055C18.1005 9.03497 18.4184 9.16667 18.7499 9.16667C19.0815 9.16667 19.3994 9.03497 19.6338 8.80055C19.8683 8.56613 19.9999 8.24819 19.9999 7.91667ZM15.8333 7.91667C15.8322 6.92244 15.4367 5.96926 14.7337 5.26623C14.0307 4.56321 13.0775 4.16777 12.0833 4.16667C11.7518 4.16667 11.4338 4.29836 11.1994 4.53278C10.965 4.7672 10.8333 5.08515 10.8333 5.41667C10.8333 5.74819 10.965 6.06613 11.1994 6.30055C11.4338 6.53497 11.7518 6.66667 12.0833 6.66667C12.4148 6.66667 12.7327 6.79836 12.9672 7.03278C13.2016 7.2672 13.3333 7.58515 13.3333 7.91667C13.3333 8.24819 13.465 8.56613 13.6994 8.80055C13.9338 9.03497 14.2518 9.16667 14.5833 9.16667C14.9148 9.16667 15.2327 9.03497 15.4672 8.80055C15.7016 8.56613 15.8333 8.24819 15.8333 7.91667Z" fill="white"/>
</g>
<defs>
<clipPath id="clip0_279_56">
<rect width="20" height="20" fill="white"/>
</clipPath>
</defs>
</svg>
