<svg width="54" height="54" viewBox="0 0 54 54" fill="none" xmlns="http://www.w3.org/2000/svg">
<rect x="1" y="1" width="52" height="52" rx="26" fill="#3B8F6E"/>
<rect x="1" y="1" width="52" height="52" rx="26" stroke="white" stroke-width="2"/>
<path d="M41.5 24.5225C40.8023 24.5223 40.1204 24.3153 39.5404 23.9276C38.9603 23.5399 38.5082 22.989 38.2412 22.3445C37.9742 21.6999 37.9042 20.9907 38.0402 20.3064C38.1761 19.6221 38.5119 18.9935 39.005 18.5C39.0987 18.4062 39.1514 18.2791 39.1514 18.1465C39.1514 18.0139 39.0987 17.8868 39.005 17.793L36.2085 14.9955C36.1147 14.9018 35.9876 14.8491 35.855 14.8491C35.7224 14.8491 35.5953 14.9018 35.5015 14.9955C35.0119 15.4953 34.3829 15.8357 33.6967 15.9722C33.0104 16.1086 32.299 16.0346 31.6555 15.76C31.0063 15.4992 30.451 15.0485 30.0623 14.4668C29.6736 13.8851 29.4696 13.1996 29.477 12.5C29.477 12.3674 29.4243 12.2402 29.3306 12.1464C29.2368 12.0527 29.1096 12 28.977 12H25.023C24.8904 12 24.7632 12.0527 24.6694 12.1464C24.5757 12.2402 24.523 12.3674 24.523 12.5C24.5304 13.1996 24.3264 13.8851 23.9377 14.4668C23.549 15.0485 22.9937 15.4992 22.3445 15.76C21.7012 16.0343 20.9901 16.108 20.3041 15.9717C19.6182 15.8353 18.9894 15.495 18.5 14.9955C18.4062 14.9018 18.2791 14.8491 18.1465 14.8491C18.0139 14.8491 17.8868 14.9018 17.793 14.9955L14.995 17.7915C14.9484 17.838 14.9114 17.8932 14.8861 17.954C14.8609 18.0147 14.8479 18.0799 14.8479 18.1458C14.8479 18.2116 14.8609 18.2768 14.8861 18.3375C14.9114 18.3983 14.9484 18.4535 14.995 18.5C15.495 18.9895 15.8355 19.6185 15.9721 20.3047C16.1087 20.9909 16.0349 21.7024 15.7605 22.346C15.4992 22.9948 15.0482 23.5496 14.4665 23.9379C13.8847 24.3262 13.1994 24.53 12.5 24.5225C12.3674 24.5225 12.2402 24.5752 12.1464 24.6689C12.0527 24.7627 12 24.8899 12 25.0225V28.9775C12 29.1101 12.0527 29.2373 12.1464 29.3311C12.2402 29.4248 12.3674 29.4775 12.5 29.4775C13.1996 29.4701 13.885 29.6741 14.4668 30.0627C15.0485 30.4513 15.4994 31.0064 15.7605 31.6555C16.0346 32.2989 16.1082 33.0101 15.9716 33.696C15.835 34.3819 15.4946 35.0106 14.995 35.5C14.9013 35.5938 14.8486 35.7209 14.8486 35.8535C14.8486 35.9861 14.9013 36.1132 14.995 36.207L17.7915 39.003C17.8853 39.0967 18.0124 39.1494 18.145 39.1494C18.2776 39.1494 18.4047 39.0967 18.4985 39.003C18.9922 38.5096 19.6212 38.1736 20.3058 38.0376C20.9905 37.9016 21.7001 37.9717 22.3449 38.2389C22.9897 38.5062 23.5408 38.9587 23.9285 39.5391C24.3162 40.1196 24.5231 40.802 24.523 41.5C24.523 41.6326 24.5757 41.7598 24.6694 41.8536C24.7632 41.9473 24.8904 42 25.023 42H28.977C29.1096 42 29.2368 41.9473 29.3306 41.8536C29.4243 41.7598 29.477 41.6326 29.477 41.5C29.4775 40.8024 29.6847 40.1206 30.0724 39.5407C30.4602 38.9608 31.011 38.5088 31.6555 38.2418C32.3 37.9747 33.0091 37.9047 33.6934 38.0404C34.3776 38.1762 35.0063 38.5117 35.5 39.0045C35.5938 39.0982 35.7209 39.1509 35.8535 39.1509C35.9861 39.1509 36.1132 39.0982 36.207 39.0045L39.0035 36.2085C39.0972 36.1147 39.1499 35.9876 39.1499 35.855C39.1499 35.7224 39.0972 35.5953 39.0035 35.5015C38.5098 35.008 38.1735 34.3791 38.0374 33.6944C37.9012 33.0097 37.9711 32.3 38.2384 31.6551C38.5057 31.0102 38.9582 30.4591 39.5388 30.0714C40.1194 29.6838 40.8019 29.4771 41.5 29.4775C41.6326 29.4775 41.7598 29.4248 41.8536 29.3311C41.9473 29.2373 42 29.1101 42 28.9775V25.0225C42 24.8899 41.9473 24.7627 41.8536 24.6689C41.7598 24.5752 41.6326 24.5225 41.5 24.5225ZM41 28.5035C40.1943 28.5934 39.4275 28.8978 38.7795 29.3849C38.1316 29.8721 37.6261 30.5241 37.3159 31.2731C37.0057 32.0221 36.9022 32.8406 37.016 33.6432C37.1298 34.4459 37.4568 35.2033 37.963 35.8365L35.8365 37.9625C35.2032 37.4563 34.4457 37.1293 33.643 37.0156C32.8403 36.9018 32.0218 37.0054 31.2728 37.3157C30.5238 37.6259 29.8717 38.1314 29.3845 38.7794C28.8973 39.4274 28.5929 40.1943 28.503 41H25.497C25.4071 40.1943 25.1027 39.4274 24.6155 38.7794C24.1283 38.1314 23.4762 37.6259 22.7272 37.3157C21.9782 37.0054 21.1597 36.9018 20.357 37.0156C19.5543 37.1293 18.7968 37.4563 18.1635 37.9625L16.037 35.8365C16.5512 35.2074 16.8833 34.4495 16.9974 33.645C17.1114 32.8406 17.003 32.0202 16.684 31.273C16.3813 30.519 15.8779 29.8624 15.2285 29.3742C14.5791 28.8859 13.8084 28.5848 13 28.5035V25.4965C13.8084 25.4152 14.5791 25.1141 15.2285 24.6258C15.8779 24.1376 16.3813 23.481 16.684 22.727C17.003 21.9798 17.1114 21.1594 16.9974 20.355C16.8833 19.5505 16.5512 18.7926 16.037 18.1635L18.1635 16.0375C18.7927 16.5517 19.5507 16.8838 20.3553 16.9978C21.1598 17.1117 21.9802 17.0032 22.7275 16.684C23.4815 16.3813 24.1381 15.8779 24.6263 15.2285C25.1146 14.5791 25.4157 13.8084 25.497 13H28.503C28.5843 13.8084 28.8854 14.5791 29.3737 15.2285C29.8619 15.8779 30.5185 16.3813 31.2725 16.684C32.0198 17.0032 32.8402 17.1117 33.6447 16.9978C34.4493 16.8838 35.2073 16.5517 35.8365 16.0375L37.963 18.1635C37.4568 18.7967 37.1298 19.5541 37.016 20.3568C36.9022 21.1594 37.0057 21.9779 37.3159 22.7269C37.6261 23.4759 38.1316 24.1279 38.7795 24.6151C39.4275 25.1022 40.1943 25.4066 41 25.4965V28.5035Z" fill="white"/>
<path d="M27 17C25.0222 17 23.0888 17.5865 21.4443 18.6853C19.7998 19.7841 18.5181 21.3459 17.7612 23.1732C17.0043 25.0004 16.8063 27.0111 17.1922 28.9509C17.578 30.8907 18.5304 32.6725 19.9289 34.0711C21.3275 35.4696 23.1093 36.422 25.0491 36.8079C26.9889 37.1937 28.9996 36.9957 30.8268 36.2388C32.6541 35.4819 34.2159 34.2002 35.3147 32.5557C36.4135 30.9112 37 28.9778 37 27C36.997 24.3488 35.9424 21.807 34.0677 19.9323C32.193 18.0576 29.6512 17.003 27 17ZM27 36C25.22 36 23.4799 35.4722 21.9999 34.4832C20.5198 33.4943 19.3663 32.0887 18.6851 30.4442C18.0039 28.7996 17.8257 26.99 18.1729 25.2442C18.5202 23.4984 19.3774 21.8947 20.636 20.636C21.8947 19.3774 23.4984 18.5202 25.2442 18.1729C26.99 17.8257 28.7996 18.0039 30.4442 18.6851C32.0887 19.3663 33.4943 20.5198 34.4832 21.9999C35.4722 23.4799 36 25.22 36 27C35.9972 29.3861 35.0481 31.6737 33.3609 33.3609C31.6737 35.0481 29.3861 35.9972 27 36Z" fill="white"/>
<path d="M30.5 21.9615V21.625H29.5V21.9615C29.289 22.0259 29.1033 22.1545 28.9688 22.3295C28.8344 22.5044 28.7579 22.717 28.75 22.9375C28.7555 23.1404 28.8203 23.3373 28.9363 23.5039C29.0523 23.6705 29.2146 23.7995 29.403 23.875H28.75V24.0625C28.7579 24.283 28.8344 24.4956 28.9688 24.6705C29.1033 24.8455 29.289 24.9741 29.5 25.0385V25.375H30.5V25.0385C30.711 24.9741 30.8967 24.8455 31.0312 24.6705C31.1656 24.4956 31.2421 24.283 31.25 24.0625C31.2445 23.8596 31.1797 23.6627 31.0637 23.4961C30.9477 23.3295 30.7854 23.2005 30.597 23.125H31.25V22.9375C31.2421 22.717 31.1656 22.5044 31.0312 22.3295C30.8967 22.1545 30.711 22.0259 30.5 21.9615ZM29.75 24.0615V23.9785C29.9118 23.9869 30.0719 24.0147 30.227 24.0615C30.1596 24.1053 30.0804 24.1275 30 24.125C29.913 24.1237 29.8274 24.1023 29.75 24.0625V24.0615ZM30.25 23.0195C30.0882 23.0113 29.928 22.9834 29.773 22.9365C29.8407 22.8934 29.9198 22.8719 30 22.875C30.0872 22.8752 30.173 22.8966 30.25 22.9375V23.0195Z" fill="white"/>
<path d="M30 20C29.3078 20 28.6311 20.2053 28.0555 20.5899C27.4799 20.9744 27.0313 21.5211 26.7664 22.1606C26.5015 22.8001 26.4322 23.5039 26.5673 24.1828C26.7023 24.8618 27.0356 25.4854 27.5251 25.9749C28.0146 26.4644 28.6383 26.7977 29.3172 26.9327C29.9961 27.0678 30.6999 26.9985 31.3394 26.7336C31.9789 26.4687 32.5256 26.0201 32.9101 25.4445C33.2947 24.8689 33.5 24.1922 33.5 23.5C33.4989 22.5721 33.1299 21.6824 32.4737 21.0263C31.8176 20.3701 30.9279 20.0011 30 20ZM30 26C29.5055 26 29.0222 25.8534 28.6111 25.5787C28.2 25.304 27.8795 24.9135 27.6903 24.4567C27.5011 23.9999 27.4516 23.4972 27.548 23.0123C27.6445 22.5273 27.8826 22.0819 28.2322 21.7322C28.5819 21.3826 29.0273 21.1445 29.5123 21.048C29.9972 20.9516 30.4999 21.0011 30.9567 21.1903C31.4135 21.3795 31.804 21.7 32.0787 22.1111C32.3534 22.5222 32.5 23.0055 32.5 23.5C32.4992 24.1628 32.2356 24.7982 31.7669 25.2669C31.2982 25.7356 30.6628 25.9992 30 26Z" fill="white"/>
<path d="M25.5 30C25.8956 30 26.2822 29.8827 26.6111 29.6629C26.94 29.4432 27.1964 29.1308 27.3478 28.7654C27.4991 28.3999 27.5387 27.9978 27.4616 27.6098C27.3844 27.2219 27.1939 26.8655 26.9142 26.5858C26.6345 26.3061 26.2781 26.1156 25.8902 26.0384C25.5022 25.9613 25.1001 26.0009 24.7346 26.1522C24.3692 26.3036 24.0568 26.56 23.8371 26.8889C23.6173 27.2178 23.5 27.6044 23.5 28C23.5 28.5304 23.7107 29.0391 24.0858 29.4142C24.4609 29.7893 24.9696 30 25.5 30ZM25.5 27C25.6978 27 25.8911 27.0586 26.0556 27.1685C26.22 27.2784 26.3482 27.4346 26.4239 27.6173C26.4996 27.8 26.5194 28.0011 26.4808 28.1951C26.4422 28.3891 26.347 28.5673 26.2071 28.7071C26.0673 28.847 25.8891 28.9422 25.6951 28.9808C25.5011 29.0194 25.3 28.9996 25.1173 28.9239C24.9346 28.8482 24.7784 28.72 24.6685 28.5556C24.5586 28.3911 24.5 28.1978 24.5 28C24.5 27.7348 24.6054 27.4804 24.7929 27.2929C24.9804 27.1054 25.2348 27 25.5 27Z" fill="white"/>
<path d="M23.5 31C23.5 30.7033 23.412 30.4133 23.2472 30.1666C23.0824 29.92 22.8481 29.7277 22.574 29.6142C22.2999 29.5007 21.9983 29.4709 21.7074 29.5288C21.4164 29.5867 21.1491 29.7296 20.9393 29.9393C20.7296 30.1491 20.5867 30.4164 20.5288 30.7074C20.4709 30.9983 20.5006 31.2999 20.6142 31.574C20.7277 31.8481 20.92 32.0824 21.1666 32.2472C21.4133 32.412 21.7033 32.5 22 32.5C22.3978 32.5 22.7794 32.342 23.0607 32.0607C23.342 31.7794 23.5 31.3978 23.5 31ZM22 31.5C21.9011 31.5 21.8044 31.4707 21.7222 31.4157C21.64 31.3608 21.5759 31.2827 21.5381 31.1913C21.5002 31.1 21.4903 30.9994 21.5096 30.9025C21.5289 30.8055 21.5765 30.7164 21.6464 30.6464C21.7164 30.5765 21.8055 30.5289 21.9025 30.5096C21.9994 30.4903 22.1 30.5002 22.1913 30.5381C22.2827 30.5759 22.3608 30.64 22.4157 30.7222C22.4707 30.8044 22.5 30.9011 22.5 31C22.5 31.1326 22.4473 31.2598 22.3536 31.3536C22.2598 31.4473 22.1326 31.5 22 31.5Z" fill="white"/>
<path d="M33.5 28H29.5C29.3674 28 29.2402 28.0527 29.1464 28.1464C29.0527 28.2402 29 28.3674 29 28.5V31H25C24.8674 31 24.7402 31.0527 24.6464 31.1464C24.5527 31.2402 24.5 31.3674 24.5 31.5V33H23V34H25C25.1326 34 25.2598 33.9473 25.3536 33.8536C25.4473 33.7598 25.5 33.6326 25.5 33.5V32H29.5C29.6326 32 29.7598 31.9473 29.8536 31.8536C29.9473 31.7598 30 31.6326 30 31.5V29H33.5V28Z" fill="white"/>
<path d="M32.2225 29.5841L30.7225 30.5841L31.2775 31.4161L32 30.9341V33.0001H33V30.9341L33.7225 31.4161L34.2775 30.5841L32.7775 29.5841C32.6954 29.5293 32.5988 29.5 32.5 29.5C32.4013 29.5 32.3047 29.5293 32.2225 29.5841Z" fill="white"/>
</svg>
