<svg width="40" height="40" viewBox="0 0 40 40" fill="none" xmlns="http://www.w3.org/2000/svg">
<rect x="0.5" y="0.5" width="39" height="39" rx="19.5" stroke="white"/>
<path fill-rule="evenodd" clip-rule="evenodd" d="M13 9.25C12.2707 9.25 11.5712 9.53973 11.0555 10.0555C10.5397 10.5712 10.25 11.2707 10.25 12C10.25 12.7293 10.5397 13.4288 11.0555 13.9445C11.5712 14.4603 12.2707 14.75 13 14.75C13.7293 14.75 14.4288 14.4603 14.9445 13.9445C15.4603 13.4288 15.75 12.7293 15.75 12C15.75 11.2707 15.4603 10.5712 14.9445 10.0555C14.4288 9.53973 13.7293 9.25 13 9.25ZM11.75 12C11.75 11.6685 11.8817 11.3505 12.1161 11.1161C12.3505 10.8817 12.6685 10.75 13 10.75C13.3315 10.75 13.6495 10.8817 13.8839 11.1161C14.1183 11.3505 14.25 11.6685 14.25 12C14.25 12.3315 14.1183 12.6495 13.8839 12.8839C13.6495 13.1183 13.3315 13.25 13 13.25C12.6685 13.25 12.3505 13.1183 12.1161 12.8839C11.8817 12.6495 11.75 12.3315 11.75 12ZM10.25 16C10.25 15.8011 10.329 15.6103 10.4697 15.4697C10.6103 15.329 10.8011 15.25 11 15.25H15C15.1989 15.25 15.3897 15.329 15.5303 15.4697C15.671 15.6103 15.75 15.8011 15.75 16V29C15.75 29.1989 15.671 29.3897 15.5303 29.5303C15.3897 29.671 15.1989 29.75 15 29.75H11C10.8011 29.75 10.6103 29.671 10.4697 29.5303C10.329 29.3897 10.25 29.1989 10.25 29V16ZM11.75 16.75V28.25H14.25V16.75H11.75ZM17.25 16C17.25 15.8011 17.329 15.6103 17.4697 15.4697C17.6103 15.329 17.8011 15.25 18 15.25H22C22.1989 15.25 22.3897 15.329 22.5303 15.4697C22.671 15.6103 22.75 15.8011 22.75 16V16.434L23.185 16.247C23.9351 15.9266 24.7307 15.7258 25.543 15.652C28.318 15.4 30.75 17.58 30.75 20.38V29C30.75 29.1989 30.671 29.3897 30.5303 29.5303C30.3897 29.671 30.1989 29.75 30 29.75H26C25.8011 29.75 25.6103 29.671 25.4697 29.5303C25.329 29.3897 25.25 29.1989 25.25 29V22C25.25 21.6685 25.1183 21.3505 24.8839 21.1161C24.6495 20.8817 24.3315 20.75 24 20.75C23.6685 20.75 23.3505 20.8817 23.1161 21.1161C22.8817 21.3505 22.75 21.6685 22.75 22V29C22.75 29.1989 22.671 29.3897 22.5303 29.5303C22.3897 29.671 22.1989 29.75 22 29.75H18C17.8011 29.75 17.6103 29.671 17.4697 29.5303C17.329 29.3897 17.25 29.1989 17.25 29V16ZM18.75 16.75V28.25H21.25V22C21.25 21.2707 21.5397 20.5712 22.0555 20.0555C22.5712 19.5397 23.2707 19.25 24 19.25C24.7293 19.25 25.4288 19.5397 25.9445 20.0555C26.4603 20.5712 26.75 21.2707 26.75 22V28.25H29.25V20.38C29.25 18.476 27.589 16.972 25.68 17.146C25.0241 17.2055 24.3817 17.3675 23.776 17.626L22.296 18.261C22.1818 18.31 22.0573 18.3299 21.9336 18.3189C21.8098 18.3079 21.6907 18.2663 21.587 18.1979C21.4833 18.1295 21.3982 18.0364 21.3394 17.927C21.2806 17.8176 21.2499 17.6952 21.25 17.571V16.75H18.75Z" fill="#FAFAFA"/>
</svg>
