<svg width="18" height="20" viewBox="0 0 18 20" fill="none" xmlns="http://www.w3.org/2000/svg">
<path d="M12.3389 13.2143C14.4671 9.87469 14.1996 10.2913 14.2609 10.2043C15.0358 9.11137 15.4453 7.82508 15.4453 6.48438C15.4453 2.92891 12.5601 0 9 0C5.45148 0 2.55469 2.92313 2.55469 6.48438C2.55469 7.82422 2.97281 9.14418 3.77305 10.2518L5.66102 13.2143C3.64246 13.5245 0.210938 14.4489 0.210938 16.4844C0.210938 17.2264 0.695234 18.2838 3.00242 19.1078C4.61344 19.6831 6.7434 20 9 20C13.2197 20 17.7891 18.8097 17.7891 16.4844C17.7891 14.4486 14.3616 13.5251 12.3389 13.2143ZM4.75191 9.60723C4.74547 9.59715 4.73875 9.5873 4.73172 9.57762C4.06582 8.66152 3.72656 7.57582 3.72656 6.48438C3.72656 3.55398 6.08617 1.17188 9 1.17188C11.9078 1.17188 14.2734 3.55504 14.2734 6.48438C14.2734 7.57758 13.9406 8.62645 13.3107 9.5184C13.2543 9.59285 13.5487 9.13535 9 16.273L4.75191 9.60723ZM9 18.8281C4.39086 18.8281 1.38281 17.4733 1.38281 16.4844C1.38281 15.8197 2.92844 14.7268 6.35344 14.3007L8.50586 17.6782C8.61344 17.847 8.79977 17.9492 8.99996 17.9492C9.20016 17.9492 9.38652 17.847 9.49406 17.6782L11.6464 14.3007C15.0715 14.7268 16.6172 15.8197 16.6172 16.4844C16.6172 17.4649 13.6362 18.8281 9 18.8281Z" fill="white"/>
</svg>
