<svg width="61" height="61" viewBox="0 0 61 61" fill="none" xmlns="http://www.w3.org/2000/svg">
<path d="M46.5422 30.4999V46.5421M33.7078 46.5421V40.1249M1.625 40.1249L10.7048 31.0451M17.6672 14.4578C15.1145 14.4578 12.6663 15.4718 10.8613 17.2769C9.05624 19.0819 8.04218 21.5301 8.04218 24.0828C8.04218 26.6355 9.05624 29.0836 10.8613 30.8887C12.6663 32.6937 15.1145 33.7078 17.6672 33.7078C20.2199 33.7078 22.668 32.6937 24.4731 30.8887C26.2781 29.0836 27.2922 26.6355 27.2922 24.0828C27.2922 21.5301 26.2781 19.0819 24.4731 17.2769C22.668 15.4718 20.2199 14.4578 17.6672 14.4578Z" stroke="white" stroke-width="3.08" stroke-linecap="round" stroke-linejoin="round"/>
<path d="M17.6672 1.625H56.1672C57.0179 1.625 57.8339 1.96297 58.4355 2.56455C59.037 3.16613 59.375 3.98205 59.375 4.83282V56.1672C59.375 57.0179 59.037 57.8339 58.4355 58.4355C57.8339 59.037 57.0179 59.375 56.1672 59.375H17.6672C17.2458 59.3752 16.8285 59.2924 16.4391 59.1313C16.0498 58.9701 15.696 58.7339 15.3979 58.436C15.0999 58.1381 14.8635 57.7844 14.7022 57.3951C14.5408 57.0058 14.4578 56.5886 14.4578 56.1672V46.5422" stroke="white" stroke-width="3.08" stroke-linecap="round" stroke-linejoin="round"/>
</svg>
