<svg width="29" height="30" viewBox="0 0 29 30" fill="none" xmlns="http://www.w3.org/2000/svg">
<path d="M12.3796 13.372C12.7085 12.8093 12.5415 12.0853 11.9994 11.7228L11.1876 11.1767C11.2348 10.9124 11.2586 10.6497 11.2586 10.3923C11.2586 10.1353 11.2347 9.87192 11.1872 9.60556L12.0006 9.06089C12.5387 8.69688 12.7057 7.97217 12.3809 7.41143L12.1289 6.97528C11.8009 6.40966 11.0879 6.19418 10.5101 6.48369L9.63372 6.91338C9.22797 6.57268 8.76567 6.30539 8.27108 6.12551L8.20572 5.14705C8.15831 4.50125 7.61473 3.99548 6.96815 3.99548H6.46506C5.81312 3.99548 5.26939 4.50314 5.22734 5.1502L5.16213 6.12504C4.66612 6.30476 4.20288 6.57205 3.79666 6.91307L2.92515 6.48463C2.33858 6.19371 1.62615 6.41076 1.30404 6.97607L1.05281 7.4108C0.727551 7.97201 0.894356 8.69672 1.43446 9.06215L2.24407 9.6043C2.19587 9.86861 2.17146 10.1324 2.17146 10.3923C2.17146 10.6508 2.19587 10.9139 2.24407 11.1778L1.43525 11.7219C0.891993 12.0842 0.724401 12.809 1.05171 13.3685L1.30357 13.8078C1.62647 14.3689 2.33716 14.5865 2.92357 14.3007L3.7976 13.871C4.2043 14.2107 4.66738 14.4772 5.16213 14.6562L5.22718 15.6302C5.26939 16.2782 5.81312 16.7859 6.46506 16.7859H6.96815C7.61473 16.7859 8.15831 16.2799 8.20587 15.631L8.27108 14.6559C8.76441 14.4766 9.22655 14.2103 9.63277 13.8707L10.5098 14.3008C11.0901 14.5851 11.8008 14.3703 12.13 13.8073L12.3796 13.372ZM11.5421 12.887L11.2925 13.3222C11.22 13.4462 11.0638 13.4942 10.936 13.432L9.76508 12.8579C9.58158 12.7678 9.36091 12.8026 9.21474 12.9454C8.78315 13.3654 8.25281 13.6709 7.6812 13.8291C7.48305 13.8839 7.34114 14.0581 7.32743 14.2632L7.24049 15.5633C7.23009 15.7061 7.11038 15.8181 6.96815 15.8181H6.46506C6.3192 15.8181 6.20233 15.7102 6.19288 15.5664L6.10578 14.2632C6.09207 14.0578 5.94984 13.8836 5.75138 13.8289C5.17819 13.6711 4.64706 13.3657 4.21548 12.9456C4.12302 12.8557 4.00127 12.8084 3.87778 12.8084C3.80532 12.8084 3.7324 12.8246 3.66451 12.858L2.49845 13.4314C2.36913 13.4937 2.21273 13.4476 2.14279 13.3258L1.8892 12.8835C1.81926 12.7641 1.85644 12.6041 1.97362 12.526L3.05746 11.797C3.22789 11.6824 3.30743 11.4727 3.25577 11.2739C3.17843 10.9761 3.13921 10.6795 3.13921 10.3923C3.13921 10.1031 3.17843 9.80529 3.25577 9.50743C3.30759 9.30834 3.22773 9.09822 3.05667 8.98371L1.97473 8.25916C1.85596 8.17883 1.81863 8.01943 1.89046 7.89546L2.14342 7.45758C2.21351 7.33488 2.36756 7.28873 2.49672 7.35236L3.66451 7.92649C3.84864 8.01706 4.0701 7.98162 4.21658 7.83781C4.64628 7.41679 5.17709 7.11058 5.75153 6.95229C5.95 6.89763 6.09207 6.72342 6.10578 6.51803L6.19304 5.21399C6.20233 5.07097 6.3192 4.96323 6.46506 4.96323H6.96815C7.11038 4.96323 7.23009 5.07507 7.24033 5.21478L7.32743 6.51803C7.34114 6.72311 7.4829 6.89716 7.68105 6.95213C8.25392 7.11074 8.78394 7.41694 9.21348 7.83781C9.36012 7.98131 9.58111 8.01675 9.76508 7.92665L10.9395 7.35079C11.065 7.28826 11.2197 7.33661 11.2912 7.4601L11.5432 7.89609C11.6146 8.01927 11.5774 8.17883 11.4604 8.2579L10.3765 8.98371C10.2069 9.09743 10.1267 9.30519 10.1763 9.50318C10.2534 9.81159 10.2909 10.1024 10.2909 10.3923C10.2909 10.679 10.2524 10.9767 10.1765 11.2771C10.1266 11.4751 10.2063 11.6831 10.3758 11.797L11.4596 12.526C11.4601 12.5263 11.4605 12.5268 11.4612 12.5271C11.5768 12.6041 11.6139 12.7641 11.5421 12.887Z" fill="white"/>
<path d="M6.7171 7.85712C5.31903 7.85712 4.18164 8.99466 4.18164 10.3927C4.18164 11.7889 5.31903 12.9249 6.7171 12.9249C8.11344 12.9249 9.24941 11.7889 9.24941 10.3927C9.24941 8.99466 8.11344 7.85712 6.7171 7.85712ZM6.7171 11.9571C5.85268 11.9571 5.14939 11.2554 5.14939 10.3927C5.14939 9.52815 5.85268 8.82487 6.7171 8.82487C7.57979 8.82487 8.28166 9.52815 8.28166 10.3927C8.28166 11.2554 7.57979 11.9571 6.7171 11.9571Z" fill="white"/>
<path d="M26.6626 5.48409H21.7163V5.3228C21.7163 5.05551 21.4997 4.83893 21.2324 4.83893C20.9651 4.83893 20.7485 5.05551 20.7485 5.3228V5.48409H15.8022C15.0017 5.48409 14.3506 6.13525 14.3506 6.93572V22.8229C14.3506 23.6234 15.0017 24.2746 15.8022 24.2746H26.6626C27.4631 24.2746 28.1142 23.6234 28.1142 22.8229V6.93572C28.1142 6.13525 27.4631 5.48409 26.6626 5.48409ZM27.1465 22.8229C27.1465 23.0898 26.9294 23.3068 26.6626 23.3068H15.8022C15.5354 23.3068 15.3183 23.0898 15.3183 22.8229V6.93572C15.3183 6.66889 15.5354 6.45184 15.8022 6.45184H26.6626C26.9294 6.45184 27.1465 6.66889 27.1465 6.93572V22.8229Z" fill="white"/>
<path d="M25.3851 8.70953H17.0796C16.8123 8.70953 16.5957 8.92611 16.5957 9.19341C16.5957 9.46071 16.8123 9.67728 17.0796 9.67728H25.3851C25.6524 9.67728 25.869 9.46071 25.869 9.19341C25.869 8.92611 25.6524 8.70953 25.3851 8.70953Z" fill="white"/>
<path d="M17.0796 13.4679H20.6565C20.9238 13.4679 21.1404 13.2514 21.1404 12.9841C21.1404 12.7168 20.9238 12.5002 20.6565 12.5002H17.0796C16.8123 12.5002 16.5957 12.7168 16.5957 12.9841C16.5957 13.2514 16.8123 13.4679 17.0796 13.4679Z" fill="white"/>
<path d="M25.2115 13.4679C25.4788 13.4679 25.6953 13.2514 25.6953 12.9841C25.6953 12.7168 25.4788 12.5002 25.2115 12.5002H23.4839C23.2166 12.5002 23 12.7168 23 12.9841C23 13.2514 23.2166 13.4679 23.4839 13.4679H25.2115Z" fill="white"/>
<path d="M17.0796 17.2585H22.4887C22.756 17.2585 22.9725 17.0419 22.9725 16.7746C22.9725 16.5073 22.756 16.2908 22.4887 16.2908H17.0796C16.8123 16.2908 16.5957 16.5073 16.5957 16.7746C16.5957 17.0419 16.8123 17.2585 17.0796 17.2585Z" fill="white"/>
<path d="M25.3851 20.0803H17.0796C16.8123 20.0803 16.5957 20.2969 16.5957 20.5642C16.5957 20.8315 16.8123 21.0481 17.0796 21.0481H25.3851C25.6524 21.0481 25.869 20.8315 25.869 20.5642C25.869 20.2969 25.6524 20.0803 25.3851 20.0803Z" fill="white"/>
<path d="M6.71618 17.5067C3.81088 17.5067 1.44727 19.8703 1.44727 22.7754C1.44727 25.5174 3.55323 27.7744 6.2323 28.0198V28.8508C6.2323 29.1181 6.44888 29.3346 6.71618 29.3346C6.98347 29.3346 7.20005 29.1181 7.20005 28.8508V28.0198C9.87912 27.7744 11.9851 25.5174 11.9851 22.7754C11.9851 19.8703 9.62147 17.5067 6.71618 17.5067ZM6.71618 27.0766C4.34453 27.0766 2.41502 25.1471 2.41502 22.7754C2.41502 20.4038 4.34453 18.4744 6.71618 18.4744C9.08783 18.4744 11.0173 20.4038 11.0173 22.7754C11.0173 25.1471 9.08783 27.0766 6.71618 27.0766Z" fill="white"/>
<path d="M8.87422 20.8339L6.01744 23.6907L4.55841 22.2317C4.3694 22.0426 4.0632 22.0426 3.87418 22.2317C3.68517 22.4205 3.68517 22.727 3.87418 22.9159L5.67532 24.717C5.76983 24.8115 5.89363 24.8588 6.01744 24.8588C6.14124 24.8588 6.26505 24.8115 6.35955 24.717L9.55845 21.5181C9.74747 21.3293 9.74747 21.0228 9.55845 20.8339C9.36944 20.6449 9.06324 20.6449 8.87422 20.8339Z" fill="white"/>
<path d="M6.71532 3.76605C6.98262 3.76605 7.19919 3.54948 7.19919 3.28218V2.63701C7.19919 2.36972 6.98262 2.15314 6.71532 2.15314C6.44802 2.15314 6.23145 2.36972 6.23145 2.63701V3.28218C6.23145 3.54948 6.44802 3.76605 6.71532 3.76605Z" fill="white"/>
<path d="M6.71532 1.61267C6.98262 1.61267 7.19919 1.39609 7.19919 1.1288V0.967505H7.36049C7.62778 0.967505 7.84436 0.750927 7.84436 0.483631C7.84436 0.216334 7.62778 -0.000244141 7.36049 -0.000244141H6.71532C6.44802 -0.000244141 6.23145 0.216334 6.23145 0.483631V1.1288C6.23145 1.39609 6.44802 1.61267 6.71532 1.61267Z" fill="white"/>
<path d="M9.76512 0.967505H10.9676C11.2349 0.967505 11.4514 0.750927 11.4514 0.483631C11.4514 0.216334 11.2349 -0.000244141 10.9676 -0.000244141H9.76512C9.49783 -0.000244141 9.28125 0.216334 9.28125 0.483631C9.28125 0.750927 9.49783 0.967505 9.76512 0.967505Z" fill="white"/>
<path d="M16.98 0.967505H18.1826C18.4499 0.967505 18.6664 0.750927 18.6664 0.483631C18.6664 0.216334 18.4499 -0.000244141 18.1826 -0.000244141H16.98C16.7127 -0.000244141 16.4961 0.216334 16.4961 0.483631C16.4961 0.750927 16.7127 0.967505 16.98 0.967505Z" fill="white"/>
<path d="M13.3725 0.967505H14.5751C14.8424 0.967505 15.059 0.750927 15.059 0.483631C15.059 0.216334 14.8424 -0.000244141 14.5751 -0.000244141H13.3725C13.1052 -0.000244141 12.8887 0.216334 12.8887 0.483631C12.8887 0.750927 13.1052 0.967505 13.3725 0.967505Z" fill="white"/>
<path d="M20.5874 0.967505H20.7487V1.1288C20.7487 1.39609 20.9653 1.61267 21.2326 1.61267C21.4999 1.61267 21.7164 1.39609 21.7164 1.1288V0.483631C21.7164 0.216334 21.4999 -0.000244141 21.2326 -0.000244141H20.5874C20.3201 -0.000244141 20.1035 0.216334 20.1035 0.483631C20.1035 0.750927 20.3201 0.967505 20.5874 0.967505Z" fill="white"/>
<path d="M21.2329 2.32269C20.9656 2.32269 20.749 2.53927 20.749 2.80657V3.64532C20.749 3.91261 20.9656 4.12919 21.2329 4.12919C21.5002 4.12919 21.7168 3.91261 21.7168 3.64532V2.80657C21.7168 2.53927 21.5002 2.32269 21.2329 2.32269Z" fill="white"/>
<path d="M9.92265 29.0323H8.63231C8.36502 29.0323 8.14844 29.2489 8.14844 29.5162C8.14844 29.7835 8.36502 30.0001 8.63231 30.0001H9.92265C10.1899 30.0001 10.4065 29.7835 10.4065 29.5162C10.4065 29.2489 10.1899 29.0323 9.92265 29.0323Z" fill="white"/>
<path d="M21.2329 24.8591C20.9656 24.8591 20.749 25.0757 20.749 25.343V26.6333C20.749 26.9006 20.9656 27.1172 21.2329 27.1172C21.5002 27.1172 21.7168 26.9006 21.7168 26.6333V25.343C21.7168 25.0757 21.5002 24.8591 21.2329 24.8591Z" fill="white"/>
<path d="M13.7937 29.0323H12.5034C12.2361 29.0323 12.0195 29.2489 12.0195 29.5162C12.0195 29.7835 12.2361 30.0001 12.5034 30.0001H13.7937C14.061 30.0001 14.2776 29.7835 14.2776 29.5162C14.2776 29.2489 14.061 29.0323 13.7937 29.0323Z" fill="white"/>
<path d="M21.2325 28.7303C21.0295 28.7303 20.8556 28.8554 20.7838 29.0328H20.2446C19.9773 29.0328 19.7607 29.2493 19.7607 29.5166C19.7607 29.7839 19.9773 30.0005 20.2446 30.0005H21.2325C21.4998 30.0005 21.7164 29.7839 21.7164 29.5166V29.2142C21.7164 28.9469 21.4998 28.7303 21.2325 28.7303Z" fill="white"/>
<path d="M17.6639 29.0323H16.3735C16.1062 29.0323 15.8896 29.2489 15.8896 29.5162C15.8896 29.7835 16.1062 30.0001 16.3735 30.0001H17.6639C17.9312 30.0001 18.1477 29.7835 18.1477 29.5162C18.1477 29.2489 17.9312 29.0323 17.6639 29.0323Z" fill="white"/>
</svg>
