<svg width="29" height="26" viewBox="0 0 29 26" fill="none" xmlns="http://www.w3.org/2000/svg">
<path d="M28.5352 20.6947H26.5317C26.6948 20.4576 26.8434 20.2169 26.9775 19.9714C27.9374 18.2142 28.1628 16.2934 28.2152 13.7638L28.2213 13.4743L27.3019 13.1262V0.410156C27.3019 0.183633 27.1182 0 26.8917 0H22.7562C22.5296 0 22.346 0.183633 22.346 0.410156V11.2494L21.2074 10.8183L20.401 11.1237V2.85164C20.401 2.62512 20.2174 2.44148 19.9908 2.44148H15.8554C15.6288 2.44148 15.4452 2.62512 15.4452 2.85164V13.0003L14.1935 13.4743L14.1996 13.7638C14.2521 16.2935 14.4775 18.2142 15.4373 19.9714C15.5714 20.2169 15.72 20.4576 15.8831 20.6947H13.5002V5.74148C13.5002 5.51496 13.3166 5.33133 13.0901 5.33133H8.95459C8.72807 5.33133 8.54443 5.51496 8.54443 5.74148V20.6947H6.59941V10.2258C6.59941 9.99926 6.41578 9.81562 6.18926 9.81562H2.05365C1.82713 9.81562 1.6435 9.99926 1.6435 10.2258V20.6947H0.410156C0.183633 20.6947 0 20.8783 0 21.1048V22.7955C0 23.022 0.183633 23.2056 0.410156 23.2056H18.3448C19.0955 23.7856 19.9744 24.3643 21.002 24.9587L21.2074 25.0775L21.4127 24.9587C22.4404 24.3643 23.3192 23.7856 24.07 23.2056H28.5352C28.7617 23.2056 28.9453 23.022 28.9453 22.7955V21.1048C28.9453 20.8783 28.7617 20.6947 28.5352 20.6947ZM23.1663 0.820312H26.4815V12.8155L23.1663 11.5601V0.820312ZM16.2655 3.2618H19.5807V11.4343L16.2655 12.6897V3.2618ZM9.36463 6.15164H12.6798V20.6947H9.36463V6.15164ZM2.46381 10.6359H5.77898V20.6947H2.46381V10.6359ZM0.820312 22.3853V21.515H16.5207C16.7763 21.8087 17.0583 22.0982 17.3695 22.3853H0.820312ZM21.2074 24.1288C15.8774 20.9939 15.145 18.4781 15.0264 14.0361L21.2074 11.6955L27.3882 14.0361C27.2697 18.478 26.5373 20.9939 21.2074 24.1288ZM28.125 22.3853H25.0453C25.3564 22.0982 25.6384 21.8087 25.8939 21.515H28.125V22.3853ZM24.1837 19.5177C24.2871 19.3243 24.371 19.122 24.4346 18.9122L25.2062 18.7876C25.4049 18.7555 25.5509 18.5839 25.5509 18.3827V17.4778C25.5509 17.2765 25.4049 17.105 25.2062 17.0729L24.4346 16.9482C24.371 16.7386 24.2871 16.5363 24.1837 16.3428L24.6413 15.709C24.7591 15.5458 24.741 15.3213 24.5987 15.1789L23.9587 14.539C23.8163 14.3965 23.5917 14.3786 23.4287 14.4964L22.7948 14.9539C22.6014 14.8505 22.399 14.7666 22.1894 14.703L22.0648 13.9315C22.0327 13.7327 21.8611 13.5867 21.6599 13.5867H20.7549C20.5536 13.5867 20.3821 13.7327 20.35 13.9315L20.2254 14.703C20.0157 14.7666 19.8134 14.8505 19.6199 14.9539L18.9861 14.4964C18.8229 14.3785 18.5984 14.3966 18.4561 14.539L17.8161 15.1789C17.6738 15.3213 17.6558 15.5458 17.7735 15.709L18.2311 16.3428C18.1276 16.5362 18.0438 16.7385 17.9801 16.9482L17.2086 17.0729C17.0099 17.105 16.8639 17.2765 16.8639 17.4778V18.3827C16.8639 18.584 17.0099 18.7555 17.2086 18.7876L17.9801 18.9122C18.0438 19.1219 18.1277 19.3243 18.2311 19.5176L17.7735 20.1515C17.6557 20.3147 17.6738 20.5392 17.8161 20.6815L18.4561 21.3215C18.5984 21.4638 18.8229 21.4819 18.9862 21.3641L19.6199 20.9065C19.8133 21.01 20.0157 21.0938 20.2254 21.1574L20.35 21.9289C20.3821 22.1277 20.5537 22.2737 20.7549 22.2737H21.6599C21.8612 22.2737 22.0327 22.1277 22.0648 21.9289L22.1894 21.1574C22.399 21.0939 22.6014 21.01 22.7948 20.9065L23.4287 21.3641C23.5917 21.4819 23.8163 21.4638 23.9587 21.3215L24.5987 20.6815C24.741 20.5392 24.759 20.3147 24.6413 20.1515L24.1837 19.5177ZM23.7036 18.4647C23.6388 18.769 23.5199 19.0559 23.3503 19.3172C23.2581 19.4593 23.2627 19.6433 23.3617 19.7805L23.7717 20.3485L23.6256 20.4946L23.0577 20.0846C22.9204 19.9856 22.7364 19.9809 22.5945 20.0731C22.3327 20.2428 22.0459 20.3617 21.7419 20.4264C21.5763 20.4617 21.4494 20.5951 21.4224 20.7622L21.3107 21.4534H21.1042L20.9925 20.7622C20.9655 20.595 20.8386 20.4617 20.673 20.4264C20.3688 20.3617 20.0819 20.2427 19.8204 20.0731C19.6785 19.9811 19.4944 19.9856 19.3571 20.0846L18.7893 20.4946L18.6432 20.3485L19.0531 19.7805C19.1521 19.6433 19.1568 19.4593 19.0646 19.3173C18.8949 19.0557 18.776 18.7689 18.7113 18.4647C18.6759 18.2991 18.5426 18.1723 18.3755 18.1453L17.6843 18.0336V17.827L18.3755 17.7153C18.5427 17.6883 18.676 17.5615 18.7113 17.3959C18.776 17.0917 18.8949 16.8049 19.0646 16.5432C19.1567 16.4012 19.1521 16.2172 19.0531 16.08L18.6432 15.5121L18.7893 15.366L19.3571 15.776C19.4944 15.875 19.6783 15.8796 19.8204 15.7874C20.082 15.6178 20.3688 15.4989 20.673 15.4341C20.8386 15.3988 20.9655 15.2655 20.9925 15.0984L21.1042 14.4071H21.3107L21.4224 15.0984C21.4494 15.2655 21.5763 15.3988 21.7419 15.4341C22.046 15.4989 22.3329 15.6178 22.5945 15.7874C22.7364 15.8795 22.9204 15.875 23.0577 15.776L23.6256 15.366L23.7717 15.5121L23.3617 16.0799C23.2627 16.2172 23.2581 16.4012 23.3503 16.5432C23.52 16.805 23.6389 17.0918 23.7036 17.3958C23.7388 17.5614 23.8722 17.6883 24.0393 17.7153L24.7306 17.827V18.0336L24.0393 18.1453C23.8722 18.1722 23.7389 18.2991 23.7036 18.4647ZM21.2074 15.6178C19.9322 15.6178 18.8948 16.6552 18.8948 17.9303C18.8948 19.2054 19.9322 20.2427 21.2074 20.2427C22.4825 20.2427 23.5198 19.2054 23.5198 17.9303C23.5198 16.6552 22.4825 15.6178 21.2074 15.6178ZM21.2074 19.4224C20.3845 19.4224 19.7152 18.753 19.7152 17.9302C19.7152 17.1074 20.3845 16.438 21.2074 16.438C22.0301 16.438 22.6995 17.1074 22.6995 17.9302C22.6995 18.753 22.0301 19.4224 21.2074 19.4224Z" fill="white"/>
</svg>
