<svg width="26" height="26" viewBox="0 0 26 26" fill="none" xmlns="http://www.w3.org/2000/svg">
<path d="M25.2383 0H0.761719C0.341047 0 0 0.341047 0 0.761719V19.4492C0 19.8699 0.341047 20.2109 0.761719 20.2109H9.69922V24.4766H6.85547C6.4348 24.4766 6.09375 24.8176 6.09375 25.2383C6.09375 25.659 6.4348 26 6.85547 26H19.1445C19.5652 26 19.9062 25.659 19.9062 25.2383C19.9062 24.8176 19.5652 24.4766 19.1445 24.4766H16.3008V20.2109H25.2383C25.659 20.2109 26 19.8699 26 19.4492V0.761719C26 0.341047 25.659 0 25.2383 0ZM14.7773 24.4766H11.2227V20.2109H14.7773V24.4766ZM24.4766 18.6875H1.52344V1.52344H24.4766V18.6875Z" fill="white"/>
<path d="M22.1914 17.1641C22.6121 17.1641 22.9531 16.823 22.9531 16.4023V10.4102C22.9531 9.98948 22.6121 9.64844 22.1914 9.64844C21.7707 9.64844 21.4297 9.98948 21.4297 10.4102V16.4023C21.4297 16.823 21.7707 17.1641 22.1914 17.1641Z" fill="white"/>
<path d="M19.1445 17.1641C19.5652 17.1641 19.9062 16.823 19.9062 16.4023V12.9492C19.9062 12.5285 19.5652 12.1875 19.1445 12.1875C18.7239 12.1875 18.3828 12.5285 18.3828 12.9492V16.4023C18.3828 16.823 18.7239 17.1641 19.1445 17.1641Z" fill="white"/>
<path d="M16.0977 17.1641C16.5183 17.1641 16.8594 16.823 16.8594 16.4023V10.918C16.8594 10.4973 16.5183 10.1562 16.0977 10.1562C15.677 10.1562 15.3359 10.4973 15.3359 10.918V16.4023C15.3359 16.823 15.677 17.1641 16.0977 17.1641Z" fill="white"/>
<path d="M19.1445 10.6641C19.5652 10.6641 19.9062 10.323 19.9062 9.90234C19.9062 9.48166 19.5652 9.14062 19.1445 9.14062C18.7238 9.14062 18.3828 9.48166 18.3828 9.90234C18.3828 10.323 18.7238 10.6641 19.1445 10.6641Z" fill="white"/>
<path d="M16.0977 8.63281C16.5183 8.63281 16.8594 8.29178 16.8594 7.87109C16.8594 7.45041 16.5183 7.10938 16.0977 7.10938C15.677 7.10938 15.3359 7.45041 15.3359 7.87109C15.3359 8.29178 15.677 8.63281 16.0977 8.63281Z" fill="white"/>
<path d="M13.0508 17.1641C13.4715 17.1641 13.8125 16.823 13.8125 16.4023V14.4727C13.8125 14.052 13.4715 13.7109 13.0508 13.7109C12.6301 13.7109 12.2891 14.052 12.2891 14.4727V16.4023C12.2891 16.823 12.6301 17.1641 13.0508 17.1641Z" fill="white"/>
<path d="M13.0508 12.1875C13.4715 12.1875 13.8125 11.8465 13.8125 11.4258C13.8125 11.0051 13.4715 10.6641 13.0508 10.6641C12.6301 10.6641 12.2891 11.0051 12.2891 11.4258C12.2891 11.8465 12.6301 12.1875 13.0508 12.1875Z" fill="white"/>
<path d="M22.1914 8.125C22.6121 8.125 22.9531 7.78397 22.9531 7.36328C22.9531 6.9426 22.6121 6.60156 22.1914 6.60156C21.7707 6.60156 21.4297 6.9426 21.4297 7.36328C21.4297 7.78397 21.7707 8.125 22.1914 8.125Z" fill="white"/>
<path d="M19.1445 7.61719C19.5652 7.61719 19.9062 7.27615 19.9062 6.85547C19.9062 6.43478 19.5652 6.09375 19.1445 6.09375C18.7238 6.09375 18.3828 6.43478 18.3828 6.85547C18.3828 7.27615 18.7238 7.61719 19.1445 7.61719Z" fill="white"/>
<path d="M16.0977 5.58594C16.5183 5.58594 16.8594 5.2449 16.8594 4.82422C16.8594 4.40353 16.5183 4.0625 16.0977 4.0625C15.677 4.0625 15.3359 4.40353 15.3359 4.82422C15.3359 5.2449 15.677 5.58594 16.0977 5.58594Z" fill="white"/>
<path d="M13.0508 9.14062C13.4715 9.14062 13.8125 8.79959 13.8125 8.37891C13.8125 7.95822 13.4715 7.61719 13.0508 7.61719C12.6301 7.61719 12.2891 7.95822 12.2891 8.37891C12.2891 8.79959 12.6301 9.14062 13.0508 9.14062Z" fill="white"/>
<path d="M22.1914 5.07812C22.6121 5.07812 22.9531 4.73709 22.9531 4.31641C22.9531 3.89572 22.6121 3.55469 22.1914 3.55469C21.7707 3.55469 21.4297 3.89572 21.4297 4.31641C21.4297 4.73709 21.7707 5.07812 22.1914 5.07812Z" fill="white"/>
<path d="M6.19578 9.34236C7.00203 9.34236 7.80829 9.03549 8.42208 8.42169C9.64962 7.19411 9.64962 5.19668 8.42208 3.96909C7.1945 2.7415 5.19707 2.7415 3.96948 3.96909C2.74194 5.19668 2.74194 7.19411 3.96948 8.42169C4.58327 9.03549 5.38953 9.34236 6.19578 9.34236ZM5.0467 5.04631C5.36348 4.72954 5.77968 4.57115 6.19578 4.57115C6.35635 4.57115 6.51687 4.59502 6.6718 4.6422L6.12398 5.19002C5.8265 5.48745 5.8265 5.96977 6.12398 6.26725C6.27271 6.41599 6.46766 6.49038 6.66256 6.49038C6.85746 6.49038 7.05246 6.41599 7.20115 6.26725L7.74887 5.71952C7.91828 6.27573 7.78381 6.90552 7.34481 7.34452C6.71116 7.97807 5.6803 7.97807 5.04665 7.34452C4.41316 6.71087 4.41316 5.67991 5.0467 5.04631Z" fill="white"/>
<path d="M6.19578 17.1627C7.00203 17.1627 7.80829 16.8558 8.42208 16.242C9.64962 15.0144 9.64962 13.017 8.42208 11.7894C7.1945 10.5618 5.19707 10.5618 3.96948 11.7894C2.74194 13.017 2.74194 15.0144 3.96948 16.242C4.58327 16.8558 5.38953 17.1627 6.19578 17.1627ZM7.34486 12.8666C7.97841 13.5002 7.97841 14.5312 7.34486 15.1648C6.71121 15.7983 5.68035 15.7983 5.0467 15.1648C4.6077 14.7257 4.47318 14.0959 4.64259 13.5397L5.19036 14.0875C5.3391 14.2362 5.53405 14.3106 5.72895 14.3106C5.92385 14.3106 6.11885 14.2362 6.26753 14.0875C6.56501 13.7901 6.56501 13.3078 6.26753 13.0103L5.71976 12.4625C6.27607 12.2932 6.9058 12.4277 7.34486 12.8666Z" fill="white"/>
</svg>
