<svg width="23" height="32" viewBox="0 0 23 32" fill="none" xmlns="http://www.w3.org/2000/svg">
<path d="M3.52082 24.7449C-0.688641 26.714 1.11961 33.111 6.56542 30.2942C6.7241 30.2139 6.91182 30.2197 7.06429 30.3117C8.27872 31.2144 11.3031 31.3697 11.367 28.8732V23.7965C11.2416 21.9379 10.0752 21.095 8.36885 21.095C7.12114 21.095 5.80772 21.8276 5.1216 23.1932" stroke="white" stroke-width="0.99046" stroke-miterlimit="10" stroke-linecap="round" stroke-linejoin="round"/>
<path d="M5.89844 22.2583C5.89844 22.2583 6.69748 23.1879 8.34019 23.5518" stroke="white" stroke-width="0.99046" stroke-miterlimit="10" stroke-linecap="round" stroke-linejoin="round"/>
<path d="M2.62207 25.4825C2.62207 25.4825 3.50688 26.1524 4.41883 27.5821" stroke="white" stroke-width="0.99046" stroke-miterlimit="10" stroke-linecap="round" stroke-linejoin="round"/>
<path d="M8.36816 26.9092C8.36816 26.9092 9.52251 27.719 11.2212 27.855" stroke="white" stroke-width="0.99046" stroke-miterlimit="10" stroke-linecap="round" stroke-linejoin="round"/>
<path d="M11.3672 28.8732V23.7965C11.4926 21.9379 12.659 21.095 14.3653 21.095C15.8777 21.095 17.4867 22.1714 17.9579 24.147C17.9896 24.2602 18.0743 24.3504 18.185 24.3875C23.6694 25.7223 22.0155 33.3185 16.1687 30.2942C16.0101 30.2139 15.8223 30.2198 15.6699 30.3117C14.4554 31.2144 11.431 31.3697 11.3672 28.8732Z" stroke="white" stroke-width="0.99046" stroke-miterlimit="10" stroke-linecap="round" stroke-linejoin="round"/>
<path d="M16.8343 22.2583C16.8343 22.2583 16.0353 23.1879 14.3926 23.5518" stroke="white" stroke-width="0.99046" stroke-miterlimit="10" stroke-linecap="round" stroke-linejoin="round"/>
<path d="M20.1112 25.4825C20.1112 25.4825 19.2264 26.1524 18.3145 27.5821" stroke="white" stroke-width="0.99046" stroke-miterlimit="10" stroke-linecap="round" stroke-linejoin="round"/>
<path d="M14.3647 26.9092C14.3647 26.9092 13.2104 27.719 11.5117 27.855" stroke="white" stroke-width="0.99046" stroke-miterlimit="10" stroke-linecap="round" stroke-linejoin="round"/>
<path d="M21.7336 7.41059V14.174C21.7336 14.9178 21.1297 15.5209 20.3846 15.5209H13.5547C13.4484 15.5209 13.3495 15.5748 13.2921 15.6641L11.5892 18.3109C11.4851 18.4726 11.2484 18.4726 11.1444 18.3109L9.44149 15.6641C9.38405 15.5748 9.28513 15.5209 9.17889 15.5209H2.34907C1.60398 15.5209 1 14.9179 1 14.174V2.34689C1 1.60299 1.60398 1 2.34907 1H20.3845C21.1297 1 21.7336 1.60299 21.7336 2.34689V4.95907" stroke="white" stroke-width="0.99046" stroke-miterlimit="10" stroke-linecap="round" stroke-linejoin="round"/>
<path d="M7.11808 12.5746H5.40445C5.07536 12.5746 4.80859 12.3078 4.80859 11.9787V10.2651C4.80859 9.93601 5.07536 9.66925 5.40445 9.66925H7.11808C7.44718 9.66925 7.71394 9.93601 7.71394 10.2651V11.9787C7.71394 12.3078 7.44718 12.5746 7.11808 12.5746Z" stroke="white" stroke-width="0.99046" stroke-miterlimit="10" stroke-linecap="round" stroke-linejoin="round"/>
<path d="M6.34195 6.47741C7.18071 6.47741 7.86065 5.79747 7.86065 4.95871C7.86065 4.11995 7.18071 3.44 6.34195 3.44C5.50319 3.44 4.82324 4.11995 4.82324 4.95871C4.82324 5.79747 5.50319 6.47741 6.34195 6.47741Z" stroke="white" stroke-width="0.99046" stroke-miterlimit="10" stroke-linecap="round" stroke-linejoin="round"/>
<path d="M15.2031 9.94708L17.5802 12.3242" stroke="white" stroke-width="0.99046" stroke-miterlimit="10" stroke-linecap="round" stroke-linejoin="round"/>
<path d="M17.5802 9.94708L15.2031 12.3242" stroke="white" stroke-width="0.99046" stroke-miterlimit="10" stroke-linecap="round" stroke-linejoin="round"/>
<path d="M16.3925 8.26111C16.3925 8.26111 16.9465 3.78502 10.3984 4.8635" stroke="white" stroke-width="0.99046" stroke-miterlimit="10" stroke-linecap="round" stroke-linejoin="round"/>
<path d="M11.4674 3.58075L10.0605 4.7932L11.4674 6.00573" stroke="white" stroke-width="0.99046" stroke-miterlimit="10" stroke-linecap="round" stroke-linejoin="round"/>
<path d="M11.7148 9.92371L13.1217 11.1362L11.7148 12.3486" stroke="white" stroke-width="0.99046" stroke-miterlimit="10" stroke-linecap="round" stroke-linejoin="round"/>
<path d="M9.64941 11.1359H12.8153" stroke="white" stroke-width="0.99046" stroke-miterlimit="10" stroke-linecap="round" stroke-linejoin="round"/>
</svg>
