<svg width="29" height="29" viewBox="0 0 29 29" fill="none" xmlns="http://www.w3.org/2000/svg">
<path d="M16.2033 17.1048C15.5137 16.4152 14.3918 16.4153 13.7022 17.1048L13.5864 17.2206C13.549 15.9832 12.5314 14.988 11.2851 14.988C10.0152 14.988 8.9821 16.0211 8.9821 17.291C8.9821 18.5373 9.97735 19.5549 11.2148 19.5923L10.698 20.1091C10.365 20.442 10.1816 20.8862 10.1816 21.3596C10.1816 21.8331 10.365 22.2772 10.6979 22.6102C11.0427 22.955 11.4956 23.1274 11.9485 23.1274C12.4013 23.1274 12.8543 22.955 13.199 22.6102L16.2034 19.6059C16.8929 18.9163 16.8929 17.7944 16.2034 17.1048L16.2033 17.1048ZM12.7922 17.291C12.7922 17.9843 12.3215 18.5693 11.6831 18.7443V15.8376C12.3215 16.0127 12.7922 16.5977 12.7922 17.291V17.291ZM9.77801 17.291C9.77801 16.5978 10.2487 16.0127 10.8871 15.8377V18.7444C10.2487 18.5693 9.77801 17.9843 9.77801 17.2911V17.291ZM12.6361 22.0474C12.257 22.4266 11.6399 22.4265 11.2607 22.0474C11.0781 21.8648 10.9775 21.6205 10.9775 21.3597C10.9775 21.0988 11.0782 20.8546 11.2608 20.672L12.4815 19.4512L13.8569 20.8266L12.6362 22.0473L12.6361 22.0474ZM15.6405 19.0431L14.4197 20.2638L13.0443 18.8884L14.2651 17.6677C14.4546 17.4781 14.7037 17.3833 14.9528 17.3833C15.2019 17.3833 15.4509 17.4781 15.6405 17.6677C16.0197 18.0468 16.0197 18.6639 15.6405 19.0431V19.0431ZM28.5855 23.6012C28.5175 23.3476 28.3553 23.1358 28.1289 23.0051L27.0522 22.3835C26.7019 22.1812 26.2773 22.2204 25.9722 22.4489C25.2359 21.9708 24.7928 21.5536 23.7685 20.4206L21.752 18.1902C21.2659 17.6526 20.5765 17.4091 19.8606 17.5225L18.8773 17.6781C18.2489 14.9312 15.7854 12.8756 12.8508 12.8756C9.44223 12.8756 6.66912 15.6487 6.66912 19.0573C6.66912 19.7737 6.78925 20.4687 7.02583 21.1312C5.4523 21.2772 4.2161 22.6045 4.2161 24.2155C4.2161 25.9238 5.60592 27.3136 7.31425 27.3136C8.85059 27.3136 10.1286 26.1893 10.3706 24.7204C11.1485 25.0608 11.9949 25.239 12.8507 25.239C14.5232 25.239 16.1196 24.5612 17.2808 23.3687L18.763 24.2244C19.384 24.583 19.8656 24.9889 20.3246 25.5406C21.28 26.6887 22.3273 26.9079 23.34 27.12C23.3528 27.1226 23.3658 27.1255 23.3786 27.1282C23.4032 27.4397 23.5752 27.7347 23.8658 27.9025L24.9425 28.5241C25.0931 28.611 25.2605 28.6555 25.4304 28.6555C25.5159 28.6555 25.6021 28.6443 25.687 28.6215C25.9407 28.5536 26.1524 28.3914 26.2831 28.1649L28.488 24.3459C28.6188 24.1195 28.6534 23.8551 28.5854 23.6014L28.5855 23.6012ZM7.31436 26.5176C6.04496 26.5176 5.01219 25.4848 5.01219 24.2154C5.01219 22.946 6.04496 21.9132 7.31436 21.9132C8.58377 21.9132 9.61649 22.946 9.61649 24.2154C9.61649 25.4848 8.58377 26.5176 7.31436 26.5176ZM12.8509 24.443C11.9933 24.443 11.1471 24.2378 10.39 23.8487C10.2308 22.5058 9.20992 21.424 7.89696 21.173C7.61064 20.5046 7.46514 19.794 7.46514 19.0573C7.46514 16.0876 9.88115 13.6715 12.8509 13.6715C15.8206 13.6715 18.2366 16.0876 18.2366 19.0573C18.2366 19.5406 18.1733 20.0159 18.048 20.4756L17.9877 20.4408C17.298 20.0426 16.4128 20.2797 16.0145 20.9695C15.6163 21.6593 15.8535 22.5444 16.5433 22.9427L16.5659 22.9558C15.5684 23.906 14.2398 24.443 12.8509 24.443ZM20.9366 25.0314C20.4147 24.4042 19.8671 23.9427 19.1611 23.5351L16.9412 22.2534C16.6315 22.0746 16.5251 21.6772 16.7038 21.3676C16.8827 21.0579 17.2802 20.9515 17.5897 21.1302L20.2651 22.6747C20.273 22.6793 20.2809 22.6836 20.2891 22.6876C20.7394 22.9079 21.1303 23.0068 21.4832 22.9901C21.7028 22.9796 21.8724 22.7932 21.8619 22.5736C21.8514 22.354 21.6641 22.1848 21.4455 22.1949C21.2349 22.2047 20.9679 22.1321 20.6509 21.9784L18.7567 20.8848C18.9392 20.2951 19.0326 19.682 19.0326 19.0573C19.0326 18.8571 19.0227 18.6592 19.004 18.4639L19.9851 18.3087C20.4369 18.2371 20.8548 18.3847 21.1617 18.7241L23.1781 20.9544C24.2354 22.1239 24.7272 22.586 25.5075 23.0962L23.6199 26.3656C23.581 26.3574 23.5418 26.349 23.5032 26.3409C22.5435 26.14 21.7146 25.9664 20.9366 25.0314V25.0314ZM27.7988 23.9478L25.5939 27.7667C25.5609 27.8239 25.5091 27.845 25.4811 27.8525C25.4533 27.86 25.3978 27.8677 25.3406 27.8346L24.2639 27.213C24.1768 27.1628 24.1457 27.0467 24.196 26.9597L26.4008 23.1408C26.4348 23.0821 26.4986 23.0487 26.5632 23.0487C26.5945 23.0487 26.6259 23.0565 26.6542 23.0728L27.7309 23.6945C27.7881 23.7275 27.8092 23.7793 27.8167 23.8073C27.8242 23.8353 27.8318 23.8907 27.7988 23.9478L27.7988 23.9478ZM8.52328 23.5694L7.87723 24.2154L8.52328 24.8615C8.67866 25.0168 8.67866 25.2689 8.52328 25.4243C8.44556 25.502 8.34367 25.5408 8.24184 25.5408C8.14001 25.5408 8.03813 25.5019 7.96041 25.4243L7.31436 24.7782L6.66832 25.4243C6.51299 25.5797 6.26095 25.5797 6.10551 25.4243C5.95013 25.2688 5.95013 25.0168 6.10551 24.8615L6.7515 24.2154L6.10551 23.5694C5.95007 23.414 5.95007 23.1619 6.10551 23.0066C6.26095 22.8512 6.51299 22.8512 6.66832 23.0066L7.31436 23.6526L7.96041 23.0066C8.11597 22.8511 8.36795 22.8512 8.52328 23.0066C8.67866 23.162 8.67866 23.414 8.52328 23.5694ZM15.4206 9.73463C15.7654 10.0795 16.2182 10.2518 16.6712 10.2518C17.1242 10.2518 17.577 10.0793 17.9217 9.73463C18.2547 9.40168 18.4381 8.95753 18.4381 8.4841C18.4381 8.01066 18.2547 7.56651 17.9217 7.23351L17.4048 6.71664C18.6422 6.67923 19.6375 5.66169 19.6375 4.41543C19.6375 3.14551 18.6044 2.1124 17.3345 2.1124C16.0882 2.1124 15.0707 3.10765 15.0332 4.34504L14.9174 4.22923C14.2279 3.53975 13.106 3.53969 12.4163 4.22923C11.7268 4.91877 11.7268 6.04075 12.4163 6.73034L15.4207 9.73463H15.4206ZM17.3589 9.17182C16.9797 9.5511 16.3626 9.55098 15.9835 9.17182L14.7628 7.95108L16.1382 6.5757L17.3589 7.79643C17.5416 7.97905 17.6421 8.2233 17.6421 8.48415C17.6421 8.745 17.5415 8.98914 17.3589 9.17182ZM18.8416 4.41548C18.8416 5.10872 18.3709 5.69376 17.7325 5.86882V2.96215C18.3709 3.13721 18.8416 3.72225 18.8416 4.41548ZM16.9365 2.96215V5.86882C16.2981 5.69376 15.8274 5.10872 15.8274 4.41548C15.8274 3.72225 16.298 3.13715 16.9365 2.96215ZM12.9792 4.79209C13.3583 4.41293 13.9754 4.41293 14.3545 4.79209L15.5753 6.01289L14.1999 7.38827L12.9792 6.16753C12.6 5.78831 12.6 5.17132 12.9792 4.79209ZM5.2408 14.2526C5.25371 14.2499 5.26678 14.247 5.27963 14.2443C6.29234 14.0323 7.33949 13.813 8.29478 12.6649C8.75388 12.1132 9.2355 11.7073 9.85642 11.3489L11.3387 10.4931C12.4998 11.6856 14.0962 12.3634 15.7687 12.3634C16.6246 12.3634 17.4709 12.1851 18.2489 11.8448C18.4908 13.3137 19.7689 14.438 21.3052 14.438C23.0135 14.438 24.4034 13.0481 24.4034 11.3398C24.4034 9.72883 23.1672 8.4016 21.5936 8.2556C21.8302 7.59301 21.9504 6.89795 21.9504 6.18169C21.9504 2.77311 19.1773 0 15.7687 0C12.834 0 10.3706 2.0556 9.74219 4.8025L8.75883 4.64688C8.04302 4.53369 7.35354 4.77703 6.86743 5.31471L4.851 7.54502C3.82664 8.67809 3.38351 9.09529 2.64724 9.57338C2.54825 9.4993 2.43517 9.44358 2.31185 9.41055C2.05811 9.34255 1.79373 9.37723 1.56728 9.50794L0.490609 10.1295C0.0219521 10.4001 -0.139232 11.0015 0.131341 11.4702L2.33624 15.2891C2.46701 15.5156 2.67868 15.6778 2.93237 15.7458C3.01731 15.7685 3.10344 15.7798 3.18895 15.7797C3.35884 15.7797 3.52628 15.7353 3.67689 15.6484L4.75361 15.0268C5.04414 14.859 5.21613 14.5641 5.24074 14.2525L5.2408 14.2526ZM23.6074 11.3399C23.6074 12.6093 22.5746 13.6421 21.3052 13.6421C20.0358 13.6421 19.0031 12.6093 19.0031 11.3399C19.0031 10.0705 20.0358 9.03775 21.3052 9.03775C22.5746 9.03775 23.6074 10.0705 23.6074 11.3399ZM15.7687 0.796029C18.7384 0.796029 21.1544 3.21203 21.1544 6.18175C21.1544 6.91842 21.009 7.62905 20.7227 8.2975C19.4097 8.54846 18.3888 9.6303 18.2296 10.9732C17.4726 11.3623 16.6263 11.5675 15.7688 11.5675C14.3799 11.5675 13.0513 11.0305 12.0537 10.0804L12.0764 10.0673C12.7661 9.66907 13.0033 8.78389 12.6051 8.09407C12.4127 7.7609 12.1012 7.52233 11.7276 7.42227C11.3542 7.3222 10.965 7.37298 10.6319 7.56537L10.5716 7.60023C10.4463 7.14044 10.383 6.66513 10.383 6.1818C10.383 3.21209 12.799 0.796086 15.7688 0.796086L15.7687 0.796029ZM5.44156 8.07883L7.45798 5.84852C7.76477 5.50909 8.18231 5.36155 8.63454 5.43308L9.61563 5.58829C9.59693 5.78365 9.58704 5.9815 9.58704 6.18169C9.58704 6.80641 9.68039 7.41948 9.8629 8.00924L7.96877 9.10285C7.65186 9.25653 7.38367 9.32942 7.17422 9.31936C6.95487 9.30884 6.76821 9.47844 6.75775 9.69795C6.74729 9.91747 6.91683 10.104 7.13635 10.1144C7.48948 10.1311 7.88036 10.0323 8.33059 9.81201C8.33878 9.80803 8.34674 9.8037 8.35464 9.79916L11.03 8.25457C11.1789 8.16855 11.3535 8.14586 11.5217 8.19101C11.6898 8.23604 11.8298 8.34293 11.9158 8.49194C12.0946 8.80163 11.9881 9.19905 11.6785 9.37786L9.45854 10.6595C8.75257 11.067 8.205 11.5285 7.68301 12.1558C6.90506 13.0907 6.07629 13.2643 5.11657 13.4652C5.07785 13.4734 5.03862 13.4818 4.99968 13.49L3.11214 10.2206C3.89248 9.71035 4.38422 9.24829 5.44156 8.07878V8.07883ZM4.35574 14.3375L3.27901 14.9591C3.22193 14.9921 3.1665 14.9845 3.13847 14.977C3.11055 14.9694 3.0587 14.9484 3.02572 14.8912L0.820824 11.0723C0.770507 10.9853 0.801607 10.8692 0.888709 10.8189L1.96538 10.1973C1.99778 10.1786 2.02968 10.173 2.05634 10.173C2.07658 10.173 2.09387 10.1763 2.10592 10.1795C2.13389 10.187 2.18575 10.2081 2.21872 10.2652L4.42356 14.0842C4.47388 14.1712 4.44278 14.2872 4.35574 14.3375ZM20.8688 11.4744L22.0673 10.2758C22.2228 10.1204 22.4747 10.1204 22.6302 10.2758C22.7856 10.4313 22.7856 10.6833 22.6302 10.8386L21.0649 12.4039C20.9898 12.479 20.8883 12.5205 20.7835 12.5205C20.7662 12.5205 20.7489 12.5193 20.7315 12.5171C20.6089 12.5009 20.5007 12.4286 20.4388 12.3215L19.9171 11.4179C19.8072 11.2275 19.8725 10.9841 20.0628 10.8742C20.2532 10.7643 20.4966 10.8295 20.6064 11.0199L20.8687 11.4743L20.8688 11.4744Z" fill="white"/>
</svg>
